<?xml version="1.0" encoding="utf-8"?>
<!-- Generator: Adobe Illustrator 25.2.1, SVG Export Plug-In . SVG Version: 6.00 Build 0)  -->
<svg version="1.1" id="Calque_1" xmlns="http://www.w3.org/2000/svg" xmlns:xlink="http://www.w3.org/1999/xlink" x="0px" y="0px"
	 viewBox="0 0 1490.7 472" style="enable-background:new 0 0 1490.7 472;" xml:space="preserve">
<style type="text/css">
	.st0{fill:#054B84;}
	.st1{fill:#DA2050;}
</style>
<g>
	<path class="st0" d="M326.2,352c14.2,15.8,28.2,31.4,42.2,46.9c-52.4,47.7-156.7,65.7-239.4,8.4C40.6,346,14.7,227.6,70.2,136.2
		c58-95.6,171.6-119,255.1-81C317,74.5,308.6,93.8,300,114c-39.1-15.7-77.8-15.9-115.9,2.4c-28.1,13.5-49.2,34.4-63.2,62.2
		c-28.2,55.8-15.2,120.4,27.8,161.5C195.5,384.8,267.5,392.7,326.2,352z"/>
	<path class="st0" d="M287.5,142.5c-8.3,19-16.6,38-25.1,57.6c-12-4.5-23.7-5.4-35.2,0.1c-8.3,3.9-14.9,9.5-19.8,17.2
		c-9.5,15.1-8.6,35,2,49.1c11.9,15.7,29.1,20.6,52.1,14.1c14.2,15.8,28.7,31.9,43.2,48c-30.6,25.5-91.2,30.1-132.6-7.4
		c-41.2-37.2-48.3-98.9-16.1-143.7C189,131.6,248.4,122.3,287.5,142.5z"/>
	<path class="st1" d="M358.2,345c-14.2-15.7-28.5-31.3-43.2-47.5c21.4-30.8,26.6-63.5,9.4-99.1c19.5-9.2,38.6-18.1,57.6-27
		C410.6,217.8,405.3,297.5,358.2,345z"/>
	<path class="st1" d="M355.5,63.2c25.4,15.8,44.8,35.7,61.1,59.1c-6.5,4.5-98.9,48.1-110.6,52.1C322.6,137.2,338.8,100.7,355.5,63.2
		z"/>
</g>
<g>
	<path class="st0" d="M494.7,88.8v-5.4c0-26.2,8.7-44.9,40.6-44.9c24,0,34.7,10,37.4,32l-20.4,3c-0.7-11.5-5.5-18.4-17.5-18.4
		c-16.3,0-21.1,10.6-21.1,28.3v5.4c0,19.2,4.9,28.3,21.4,28.3c12.9,0,16.8-5.5,18.3-19.6l20.2,2.2c-3.6,20.8-13.5,33.8-40,33.8
		C503.9,133.6,494.7,114.7,494.7,88.8z"/>
	<path class="st0" d="M639.8,89.4h-35.5V133h-18.9V39.2h18.9v33.5h35.5V39.2h18.9V133h-18.9V89.4z"/>
	<path class="st0" d="M700.8,38.5h19.2l31.9,94.5h-19l-6.4-18.9h-32.5l-6.3,18.9h-18.4L700.8,38.5z M699,99h22.3l-11.2-33.1L699,99z
		"/>
	<path class="st0" d="M762.3,39.2h26.8l20.7,64.2l20.5-64.2h26.8V133h-18.9V70.4L817.9,133h-17.2l-20.4-62.3V133h-18V39.2z"/>
	<path class="st0" d="M875.1,39.2h40.1c17.4,0,32.5,4,32.5,23.7c0,10.9-4.3,17.1-12.4,19.9c9.3,3,14.7,10.5,14.7,22.3
		c0,19-10.9,27.9-32.5,27.9h-42.4V39.2z M915.4,75.6c8.5,0,13.5-3.1,13.5-10.9c0-7.5-4.2-10.8-13.5-10.8h-21.6v21.7H915.4z
		 M917.6,118.3c9.7,0,13.5-6.3,13.5-13.2c0-8.5-3.9-13.6-13.5-13.6h-23.8v26.8H917.6z"/>
	<path class="st0" d="M1001.9,96.1h-18.3V133h-18.9V39.2h40.9c16.6,0,32.5,4.8,32.5,28c0,14.7-7.8,22.6-17.4,26.2l18.9,39.5h-20.2
		L1001.9,96.1z M1003.3,80.6c10.6,0,16-3.7,16-13c0-8.7-5.1-12.7-16-12.7h-19.6v25.8H1003.3z"/>
	<path class="st0" d="M1053,39.2h63.6v16.6h-44.8V74h40.3v16.3h-40.3v26.2h44.8V133H1053V39.2z"/>
	<path class="st0" d="M499.2,193.9h32.5c32.8,0,40.6,18,40.6,43.9v5.8c0,25.6-10.3,44-40.4,44h-32.6V193.9z M531.9,271.9
		c17.5,0,21.4-11.1,21.4-28.5v-5.7c0-19.8-5.2-27.9-21.6-27.9h-13.6v62H531.9z"/>
	<path class="st0" d="M585.8,193.9h63.6v16.6h-44.8v18.1h40.3v16.3h-40.3v26.2h44.8v16.5h-63.6V193.9z"/>
	<path class="st0" d="M687.1,243.4V238c0-26.2,8.7-44.9,40.6-44.9c24,0,34.7,10,37.4,32l-20.4,3c-0.7-11.5-5.5-18.4-17.5-18.4
		c-16.3,0-21.1,10.6-21.1,28.3v5.4c0,19.2,4.9,28.3,21.4,28.3c12.9,0,16.8-5.5,18.3-19.6l20.2,2.2c-3.6,20.8-13.5,33.8-40,33.8
		C696.3,288.2,687.1,269.3,687.1,243.4z"/>
	<path class="st0" d="M773.1,243.4V238c0-24.6,8.2-44.9,40.4-44.9c32.5,0,40.6,20.1,40.6,44.5v5.7c0,22.6-9.7,44.9-40.6,44.9
		C783,288.2,773.1,267.7,773.1,243.4z M835.1,243.7v-6c0-19.8-6.1-28-21.6-28c-15.3,0-21.4,8.4-21.4,28.2v5.7
		c0,19.6,7.5,28.5,21.4,28.5C827.6,272,835.1,263.4,835.1,243.7z"/>
	<path class="st0" d="M867.6,193.9h26.8l20.7,64.2l20.5-64.2h26.8v93.8h-18.9V225l-20.4,62.6h-17.2l-20.4-62.3v62.3h-18V193.9z"/>
	<path class="st0" d="M980.3,193.9h26.8l20.7,64.2l20.5-64.2h26.8v93.8h-18.9V225l-20.4,62.6h-17.2l-20.4-62.3v62.3h-18V193.9z"/>
	<path class="st0" d="M1093.1,193.9h63.6v16.6H1112v18.1h40.3v16.3H1112v26.2h44.8v16.5h-63.6V193.9z"/>
	<path class="st0" d="M1209.6,250.8h-18.3v36.8h-18.9v-93.8h40.9c16.6,0,32.5,4.8,32.5,28c0,14.7-7.8,22.6-17.4,26.2l18.9,39.5
		h-20.2L1209.6,250.8z M1211,235.2c10.6,0,16-3.7,16-13c0-8.7-5.1-12.7-16-12.7h-19.6v25.8H1211z"/>
	<path class="st0" d="M1255.1,243.4V238c0-26.2,8.7-44.9,40.6-44.9c24,0,34.7,10,37.4,32l-20.4,3c-0.7-11.5-5.5-18.4-17.5-18.4
		c-16.3,0-21.1,10.6-21.1,28.3v5.4c0,19.2,4.9,28.3,21.4,28.3c12.9,0,16.8-5.5,18.3-19.6l20.2,2.2c-3.6,20.8-13.5,33.8-40,33.8
		C1264.3,288.2,1255.1,269.3,1255.1,243.4z"/>
	<path class="st0" d="M1345.9,193.9h63.6v16.6h-44.8v18.1h40.3v16.3h-40.3v26.2h44.8v16.5h-63.6V193.9z"/>
	<path class="st0" d="M499.2,348.5h63.6v16.6h-44.8v18.1h40.3v16.3h-40.3v26.2h44.8v16.5h-63.6V348.5z"/>
	<path class="st0" d="M599.5,365.1H572v-16.6h73.8v16.6h-27.4v77.1h-18.9V365.1z"/>
	<path class="st0" d="M683.7,348.5h32.5c32.8,0,40.6,18,40.6,43.9v5.8c0,25.6-10.3,44-40.4,44h-32.6V348.5z M716.3,426.5
		c17.5,0,21.4-11.1,21.4-28.5v-5.7c0-19.8-5.2-27.9-21.6-27.9h-13.6v62H716.3z"/>
	<path class="st0" d="M769.2,372.8c6-0.6,7.6-1.5,7.6-6.6h-7.6v-17.7h17.4v17.7c0,10.2-2.8,15.4-17.4,15.6V372.8z"/>
	<path class="st0" d="M803.9,348.5h18.9v93.8h-18.9V348.5z"/>
	<path class="st0" d="M841.1,348.5h22.6l32.3,58.3v-58.3h18.3v93.8h-18.6l-36.5-65.6v65.6h-18.1V348.5z"/>
	<path class="st0" d="M932.3,348.5h32.5c32.8,0,40.6,18,40.6,43.9v5.8c0,25.6-10.3,44-40.4,44h-32.6V348.5z M964.9,426.5
		c17.5,0,21.4-11.1,21.4-28.5v-5.7c0-19.8-5.2-27.9-21.6-27.9h-13.6v62H964.9z"/>
	<path class="st0" d="M1018.4,409.9v-61.4h18.9v60.7c0,12,3,17.8,17.7,17.8c15,0,18.1-5.8,18.1-17.7v-60.8h18.3v61.3
		c0,24.6-12,33.2-36.4,33.2C1030.1,443,1018.4,434.3,1018.4,409.9z"/>
	<path class="st0" d="M1102.7,414.1l20.2-2.1c1.9,9.6,6.3,14.5,20.8,14.5c10.8,0,17.8-2.8,17.8-11.4c0-8.5-7.6-10-21.6-13.2
		c-17.2-3.7-32.9-7.8-32.9-27.7c0-14.8,9.9-26.5,36.1-26.5c20.8,0,32.3,8.5,36.4,24.7l-20.8,2.7c-1.5-7.3-5.7-10.8-15.6-10.8
		c-12.6,0-17.1,3.3-17.1,9.6c0,6.6,5.8,8.4,19.5,11.5c22,4.9,35,9.4,35,29.8c0,18.6-16.5,27.7-37,27.7
		C1115.7,443,1106.7,431,1102.7,414.1z"/>
	<path class="st0" d="M1213.1,365.1h-27.6v-16.6h73.8v16.6h-27.4v77.1h-18.9V365.1z"/>
	<path class="st0" d="M1307.9,405.4h-18.3v36.8h-18.9v-93.8h40.9c16.6,0,32.5,4.8,32.5,28c0,14.7-7.8,22.6-17.4,26.2l18.9,39.5
		h-20.2L1307.9,405.4z M1309.2,389.8c10.6,0,16-3.7,16-13c0-8.7-5.1-12.7-16-12.7h-19.6v25.8H1309.2z"/>
	<path class="st0" d="M1359.2,348.5h18.9v93.8h-18.9V348.5z"/>
	<path class="st0" d="M1396.4,348.5h63.6v16.6h-44.8v18.1h40.3v16.3h-40.3v26.2h44.8v16.5h-63.6V348.5z"/>
</g>
</svg>
