<svg width="572" height="929" viewBox="0 0 572 929" fill="none" xmlns="http://www.w3.org/2000/svg">
<path d="M393.579 102.33C389.643 110.15 376.261 131.001 354.221 151.853C326.67 177.918 292.56 220.925 288.625 299.119" stroke="black" stroke-width="2" stroke-linecap="round"/>
<path d="M153.752 205.395C142.621 193.592 143.858 179.167 145.095 169.987C146.654 158.413 156.721 150.376 159.904 161.612C160.369 163.252 160.82 164.935 161.242 166.574C162.049 169.71 162.515 172.922 162.605 176.159C163.038 191.806 161.777 213.905 153.752 205.395Z" fill="#FFA63C" stroke="black" stroke-width="2" stroke-linecap="round"/>
<path d="M182.359 102.33C186.295 110.15 199.676 131.001 221.717 151.853C249.267 177.918 283.377 220.925 287.313 299.119" stroke="black" stroke-width="2" stroke-linecap="round"/>
<circle cx="286" cy="286" r="285" stroke="black" stroke-width="2"/>
<path d="M196.788 196.789C200.721 207.284 214.357 234.048 237.431 257.138C266.275 286 287.252 310.927 285.941 393.578" stroke="black" stroke-width="2" stroke-linecap="round"/>
<path d="M114.139 146.936C110.204 159.18 116.501 192.853 173.176 229.587C244.02 275.505 237.461 259.761 263.699 288.624" stroke="black" stroke-width="2" stroke-linecap="round"/>
<path d="M490.659 333.45C471.723 340.285 431.01 348.76 409.32 327.982" stroke="black" stroke-width="2" stroke-linecap="round"/>
<path d="M286 82.6514V145.624" stroke="black" stroke-width="2" stroke-linecap="round"/>
<path d="M286 166.615V213.844" stroke="black" stroke-width="2" stroke-linecap="round"/>
<path d="M83.9638 332.138C102.9 338.973 143.613 347.449 165.303 326.67" stroke="black" stroke-width="2" stroke-linecap="round"/>
<path d="M458.237 146.936C462.148 159.18 455.89 192.853 399.571 229.587C329.171 275.505 335.69 259.761 309.616 288.624" stroke="black" stroke-width="2" stroke-linecap="round"/>
<path d="M375.212 196.789C371.279 207.284 357.643 234.048 334.569 257.138C305.725 286 284.748 310.927 286.059 393.578" stroke="black" stroke-width="2" stroke-linecap="round"/>
<path d="M286 413.257V822.578" stroke="black" stroke-width="2" stroke-linecap="round"/>
<path d="M191.542 288.624C193.729 302.618 204.662 334.279 230.9 348.972C263.698 367.339 276.818 390.954 286.001 409.321" stroke="black" stroke-width="2" stroke-linecap="round"/>
<path d="M380.458 288.624C378.271 302.618 367.338 334.279 341.1 348.972C308.302 367.339 295.182 390.954 285.999 409.321" stroke="black" stroke-width="2" stroke-linecap="round"/>
<path d="M426.377 413.426C419.895 410.356 401.744 400.268 381 384.478C355.07 364.741 351.181 341.057 316.176 367.373" stroke="black" stroke-width="2" stroke-linecap="round"/>
<path d="M146.935 414.569C153.418 411.499 171.569 401.411 192.312 385.621C218.242 365.884 222.132 342.2 257.137 368.516" stroke="black" stroke-width="2" stroke-linecap="round"/>
<path d="M465.734 244.018C452.615 278.566 409.584 348.448 342.413 351.596" stroke="black" stroke-width="2" stroke-linecap="round"/>
<path d="M107.578 244.018C120.697 278.566 163.729 348.448 230.899 351.596" stroke="black" stroke-width="2" stroke-linecap="round"/>
<path d="M271.412 146.013C261.604 141.174 259.747 132.14 258.873 126.297C257.745 118.758 263.168 111.95 267.504 118.22C268.074 119.044 268.642 119.891 269.187 120.721C270.373 122.527 271.334 124.467 272.03 126.512C275.24 135.932 278.449 149.485 271.412 146.013Z" fill="#FFA63C" stroke="black" stroke-width="2" stroke-linecap="round"/>
<path d="M300.164 145.146C310.525 141.645 313.558 132.936 315.197 127.259C317.311 119.935 312.834 112.471 307.708 118.113C307.034 118.855 306.359 119.619 305.709 120.37C304.295 122.004 303.087 123.8 302.126 125.735C297.701 134.649 292.73 147.659 300.164 145.146Z" fill="#FFA63C" stroke="black" stroke-width="2" stroke-linecap="round"/>
<path d="M329.55 152.918C318.42 141.115 319.656 126.69 320.893 117.51C322.452 105.936 332.52 97.8988 335.703 109.135C336.167 110.775 336.619 112.458 337.041 114.097C337.848 117.233 338.314 120.444 338.403 123.682C338.836 139.329 337.575 161.428 329.55 152.918Z" fill="#FFA63C" stroke="black" stroke-width="2" stroke-linecap="round"/>
<path d="M418.759 294.606C407.629 282.804 408.866 268.378 410.103 259.198C411.662 247.624 421.729 239.587 424.912 250.824C425.377 252.464 425.828 254.146 426.25 255.785C427.057 258.922 427.523 262.133 427.613 265.37C428.046 281.017 426.785 303.116 418.759 294.606Z" fill="#FFA63C" stroke="black" stroke-width="2" stroke-linecap="round"/>
<path d="M113.2 291.611C97.3723 295.173 85.5911 286.757 78.3232 281.014C69.1596 273.774 67.3752 261.017 78.6652 264.004C80.3129 264.44 81.991 264.909 83.616 265.382C86.7258 266.286 89.7262 267.521 92.5571 269.094C106.24 276.696 124.611 289.044 113.2 291.611Z" fill="#FFA63C" stroke="black" stroke-width="2" stroke-linecap="round"/>
<path d="M466.58 290.832C482.8 291.118 492.635 280.492 498.591 273.398C506.1 264.454 505.267 251.599 494.814 256.809C493.289 257.569 491.741 258.368 490.245 259.16C487.382 260.674 484.694 262.491 482.24 264.604C470.377 274.817 454.884 290.626 466.58 290.832Z" fill="#FFA63C" stroke="black" stroke-width="2" stroke-linecap="round"/>
<path d="M455.12 196.855C469.092 205.099 482.887 200.703 491.566 197.467C502.508 193.386 508.12 181.791 496.458 181.171C494.756 181.081 493.015 181.013 491.323 180.964C488.086 180.87 484.851 181.126 481.674 181.755C466.319 184.793 445.046 190.91 455.12 196.855Z" fill="#FFA63C" stroke="black" stroke-width="2" stroke-linecap="round"/>
<path d="M444.911 183.171C439.803 167.773 447.013 155.218 452.009 147.418C458.308 137.583 470.827 134.547 468.97 146.077C468.699 147.76 468.398 149.476 468.088 151.14C467.496 154.323 466.563 157.431 465.278 160.404C459.065 174.771 448.594 194.273 444.911 183.171Z" fill="#FFA63C" stroke="black" stroke-width="2" stroke-linecap="round"/>
<path d="M127.816 184.63C134.83 170.001 129.264 156.636 125.294 148.267C120.289 137.715 108.254 133.121 108.639 144.793C108.695 146.496 108.777 148.237 108.873 149.926C109.058 153.16 109.591 156.36 110.49 159.472C114.837 174.509 122.759 195.178 127.816 184.63Z" fill="#FFA63C" stroke="black" stroke-width="2" stroke-linecap="round"/>
<path d="M390.854 127.838C401.47 132.757 411.178 128.684 417.257 125.786C424.897 122.145 428.273 113.492 419.817 113.845C418.565 113.897 417.286 113.968 416.044 114.05C413.71 114.204 411.401 114.604 409.156 115.264C398.233 118.475 383.194 124.289 390.854 127.838Z" fill="#FFA63C" stroke="black" stroke-width="2" stroke-linecap="round"/>
<path d="M182.132 127.556C171.334 132.062 161.79 127.619 155.827 124.489C148.333 120.556 145.292 111.78 153.729 112.458C154.977 112.558 156.253 112.679 157.491 112.808C159.817 113.052 162.11 113.541 164.327 114.286C175.119 117.916 189.922 124.305 182.132 127.556Z" fill="#FFA63C" stroke="black" stroke-width="2" stroke-linecap="round"/>
<path d="M136.034 219.049C130.941 227.92 123.032 228.298 117.948 228.221C111.137 228.119 106.123 221.657 112.068 218.329C112.716 217.966 113.375 217.608 114.025 217.263C115.784 216.331 117.663 215.652 119.617 215.273C127.976 213.652 139.658 212.736 136.034 219.049Z" fill="#FFA63C" stroke="black" stroke-width="2" stroke-linecap="round"/>
<path d="M437.528 218.992C442.788 227.766 450.703 227.994 455.784 227.821C462.593 227.589 467.483 221.035 461.477 217.819C460.822 217.468 460.156 217.123 459.5 216.791C457.724 215.892 455.832 215.249 453.871 214.907C445.483 213.443 433.785 212.748 437.528 218.992Z" fill="#FFA63C" stroke="black" stroke-width="2" stroke-linecap="round"/>
<path d="M135.523 352.436C134.31 363.305 126.448 368.125 121.251 370.936C114.546 374.562 106.299 371.778 110.719 365.568C111.3 364.751 111.902 363.929 112.498 363.134C113.793 361.405 115.29 359.841 116.976 358.49C124.742 352.267 136.393 344.638 135.523 352.436Z" fill="#FFA63C" stroke="black" stroke-width="2" stroke-linecap="round"/>
<path d="M438.247 351.967C438.755 362.892 446.29 368.209 451.295 371.35C457.752 375.401 466.161 373.156 462.151 366.673C461.624 365.821 461.076 364.962 460.533 364.129C459.353 362.32 457.959 360.663 456.365 359.206C449.016 352.494 437.882 344.129 438.247 351.967Z" fill="#FFA63C" stroke="black" stroke-width="2" stroke-linecap="round"/>
<path d="M206.865 392.466C208.239 404.898 201.045 414.296 196.198 420.101C190.22 427.259 180.464 429.04 183.531 420.233C184.023 418.82 184.548 417.374 185.07 415.981C185.956 413.616 187.063 411.339 188.391 409.19C195.128 398.288 205.869 383.458 206.865 392.466Z" fill="#FFA63C" stroke="black" stroke-width="2" stroke-linecap="round"/>
<path d="M366.047 392.931C364.186 405.3 371.007 414.973 375.623 420.963C381.315 428.35 390.993 430.513 388.275 421.592C387.838 420.161 387.37 418.696 386.903 417.283C386.111 414.885 385.094 412.566 383.851 410.367C377.546 399.209 367.395 383.97 366.047 392.931Z" fill="#FFA63C" stroke="black" stroke-width="2" stroke-linecap="round"/>
<path d="M116.793 195.53C102.621 203.424 88.9396 198.686 80.3439 195.234C69.5063 190.883 64.1851 179.151 75.8591 178.823C77.5628 178.775 79.3051 178.75 80.9974 178.743C84.2358 178.73 87.4633 179.066 90.6235 179.774C105.899 183.194 127.012 189.839 116.793 195.53Z" fill="#FFA63C" stroke="black" stroke-width="2" stroke-linecap="round"/>
<path d="M418.248 205.395C429.379 193.592 428.142 179.167 426.905 169.987C425.346 158.413 415.279 150.376 412.096 161.612C411.631 163.252 411.179 164.935 410.758 166.574C409.95 169.71 409.485 172.922 409.395 176.159C408.962 191.806 410.223 213.905 418.248 205.395Z" fill="#FFA63C" stroke="black" stroke-width="2" stroke-linecap="round"/>
<path d="M242.45 150.294C253.58 138.492 252.344 124.066 251.107 114.886C249.548 103.312 239.48 95.2753 236.297 106.512C235.833 108.151 235.381 109.834 234.959 111.473C234.152 114.61 233.686 117.821 233.597 121.058C233.164 136.705 234.425 158.804 242.45 150.294Z" fill="#FFA63C" stroke="black" stroke-width="2" stroke-linecap="round"/>
<path d="M153.241 294.606C164.371 282.804 163.134 268.378 161.897 259.198C160.338 247.624 150.271 239.587 147.088 250.824C146.623 252.464 146.172 254.146 145.75 255.785C144.943 258.922 144.477 262.133 144.387 265.37C143.954 281.017 145.215 303.116 153.241 294.606Z" fill="#FFA63C" stroke="black" stroke-width="2" stroke-linecap="round"/>
<path d="M153.241 294.606C164.371 282.804 163.134 268.378 161.897 259.198C160.338 247.624 150.271 239.587 147.088 250.824C146.623 252.464 146.172 254.146 145.75 255.785C144.943 258.922 144.477 262.133 144.387 265.37C143.954 281.017 145.215 303.116 153.241 294.606Z" fill="#FFA63C" stroke="black" stroke-width="2" stroke-linecap="round"/>
<path d="M167.294 384.156C158.025 377.016 147.657 378.846 141.088 380.33C132.833 382.196 127.631 389.89 135.956 391.413C137.189 391.638 138.452 391.851 139.681 392.045C141.992 392.41 144.333 392.529 146.667 392.381C158.03 391.66 173.981 389.307 167.294 384.156Z" fill="#FFA63C" stroke="black" stroke-width="2" stroke-linecap="round"/>
<path d="M405.631 384.612C414.439 376.911 424.901 378.094 431.549 379.168C439.904 380.517 445.574 387.874 437.359 389.91C436.143 390.211 434.895 390.502 433.68 390.772C431.397 391.28 429.068 391.544 426.728 391.541C415.343 391.527 399.276 390.169 405.631 384.612Z" fill="#FFA63C" stroke="black" stroke-width="2" stroke-linecap="round"/>
<mask id="path-44-outside-1_26_74" maskUnits="userSpaceOnUse" x="69.5968" y="834.89" width="208" height="52" fill="black">
<rect fill="white" x="69.5968" y="834.89" width="208" height="52"/>
<path d="M72.5518 883.89C72.7685 882.677 72.8768 880.878 72.8768 878.495V843.785C72.8768 841.402 72.7685 839.603 72.5518 838.39H111.877L112.852 841.77C111.725 841.51 109.927 841.38 107.457 841.38H76.1268V859.58H102.777C105.16 859.58 106.959 859.472 108.172 859.255V862.83C107.089 862.57 105.29 862.44 102.777 862.44H76.1268V880.835H108.562C111.032 880.835 112.83 880.705 113.957 880.445L113.047 883.89H72.5518ZM170.53 884.54C164.29 884.54 159.068 883.37 154.865 881.03C150.661 878.647 148.56 875.462 148.56 871.475C148.56 868.442 149.773 865.928 152.2 863.935C154.67 861.942 158.136 860.707 162.6 860.23V859.645C158.83 859.125 155.84 857.912 153.63 856.005C151.42 854.098 150.315 851.823 150.315 849.18C150.315 845.41 152.135 842.485 155.775 840.405C159.458 838.325 164.268 837.285 170.205 837.285C172.241 837.285 174.56 837.458 177.16 837.805C179.803 838.152 181.883 838.607 183.4 839.17V842.29C179.933 840.86 175.535 840.145 170.205 840.145C165.265 840.145 161.213 840.968 158.05 842.615C154.93 844.262 153.37 846.558 153.37 849.505C153.37 852.365 154.778 854.683 157.595 856.46C160.455 858.193 164.225 859.06 168.905 859.06H183.595V851.715H186.78V859.125H194.06V861.01H186.78V882.005C184.873 882.742 182.36 883.348 179.24 883.825C176.163 884.302 173.26 884.54 170.53 884.54ZM170.53 881.55C175.296 881.55 179.651 880.987 183.595 879.86V861.01H167.8C162.946 861.01 159.003 861.963 155.97 863.87C152.98 865.733 151.485 868.203 151.485 871.28C151.485 874.357 153.326 876.848 157.01 878.755C160.736 880.618 165.243 881.55 170.53 881.55ZM229.458 883.89C229.675 882.677 229.783 880.878 229.783 878.495V843.785C229.783 841.402 229.675 839.603 229.458 838.39H233.423C233.163 839.473 233.033 841.272 233.033 843.785V859.58H271.448V843.785C271.448 841.272 271.318 839.473 271.058 838.39H275.023C274.763 839.473 274.633 841.272 274.633 843.785V878.495C274.633 880.965 274.763 882.763 275.023 883.89H271.058C271.318 882.763 271.448 880.965 271.448 878.495V862.7H233.033V878.495C233.033 880.965 233.163 882.763 233.423 883.89H229.458Z"/>
</mask>
<path d="M72.5518 883.89C72.7685 882.677 72.8768 880.878 72.8768 878.495V843.785C72.8768 841.402 72.7685 839.603 72.5518 838.39H111.877L112.852 841.77C111.725 841.51 109.927 841.38 107.457 841.38H76.1268V859.58H102.777C105.16 859.58 106.959 859.472 108.172 859.255V862.83C107.089 862.57 105.29 862.44 102.777 862.44H76.1268V880.835H108.562C111.032 880.835 112.83 880.705 113.957 880.445L113.047 883.89H72.5518ZM170.53 884.54C164.29 884.54 159.068 883.37 154.865 881.03C150.661 878.647 148.56 875.462 148.56 871.475C148.56 868.442 149.773 865.928 152.2 863.935C154.67 861.942 158.136 860.707 162.6 860.23V859.645C158.83 859.125 155.84 857.912 153.63 856.005C151.42 854.098 150.315 851.823 150.315 849.18C150.315 845.41 152.135 842.485 155.775 840.405C159.458 838.325 164.268 837.285 170.205 837.285C172.241 837.285 174.56 837.458 177.16 837.805C179.803 838.152 181.883 838.607 183.4 839.17V842.29C179.933 840.86 175.535 840.145 170.205 840.145C165.265 840.145 161.213 840.968 158.05 842.615C154.93 844.262 153.37 846.558 153.37 849.505C153.37 852.365 154.778 854.683 157.595 856.46C160.455 858.193 164.225 859.06 168.905 859.06H183.595V851.715H186.78V859.125H194.06V861.01H186.78V882.005C184.873 882.742 182.36 883.348 179.24 883.825C176.163 884.302 173.26 884.54 170.53 884.54ZM170.53 881.55C175.296 881.55 179.651 880.987 183.595 879.86V861.01H167.8C162.946 861.01 159.003 861.963 155.97 863.87C152.98 865.733 151.485 868.203 151.485 871.28C151.485 874.357 153.326 876.848 157.01 878.755C160.736 880.618 165.243 881.55 170.53 881.55ZM229.458 883.89C229.675 882.677 229.783 880.878 229.783 878.495V843.785C229.783 841.402 229.675 839.603 229.458 838.39H233.423C233.163 839.473 233.033 841.272 233.033 843.785V859.58H271.448V843.785C271.448 841.272 271.318 839.473 271.058 838.39H275.023C274.763 839.473 274.633 841.272 274.633 843.785V878.495C274.633 880.965 274.763 882.763 275.023 883.89H271.058C271.318 882.763 271.448 880.965 271.448 878.495V862.7H233.033V878.495C233.033 880.965 233.163 882.763 233.423 883.89H229.458Z" fill="#091158"/>
<path d="M72.5518 883.89L70.583 883.538L70.1631 885.89H72.5518V883.89ZM72.5518 838.39V836.39H70.1631L70.583 838.741L72.5518 838.39ZM111.877 838.39L113.798 837.836L113.381 836.39H111.877V838.39ZM112.852 841.77L112.402 843.719L115.716 844.483L114.773 841.216L112.852 841.77ZM76.1268 841.38V839.38H74.1268V841.38H76.1268ZM76.1268 859.58H74.1268V861.58H76.1268V859.58ZM108.172 859.255H110.172V856.866L107.82 857.286L108.172 859.255ZM108.172 862.83L107.705 864.775L110.172 865.367V862.83H108.172ZM76.1268 862.44V860.44H74.1268V862.44H76.1268ZM76.1268 880.835H74.1268V882.835H76.1268V880.835ZM113.957 880.445L115.891 880.956L116.737 877.751L113.507 878.496L113.957 880.445ZM113.047 883.89V885.89H114.587L114.981 884.401L113.047 883.89ZM74.5207 884.241C74.7692 882.85 74.8768 880.909 74.8768 878.495H70.8768C70.8768 880.848 70.7678 882.503 70.583 883.538L74.5207 884.241ZM74.8768 878.495V843.785H70.8768V878.495H74.8768ZM74.8768 843.785C74.8768 841.371 74.7692 839.43 74.5207 838.038L70.583 838.741C70.7678 839.776 70.8768 841.432 70.8768 843.785H74.8768ZM72.5518 840.39H111.877V836.39H72.5518V840.39ZM109.955 838.944L110.93 842.324L114.773 841.216L113.798 837.836L109.955 838.944ZM113.302 839.821C111.939 839.507 109.948 839.38 107.457 839.38V843.38C109.906 843.38 111.511 843.513 112.402 843.719L113.302 839.821ZM107.457 839.38H76.1268V843.38H107.457V839.38ZM74.1268 841.38V859.58H78.1268V841.38H74.1268ZM76.1268 861.58H102.777V857.58H76.1268V861.58ZM102.777 861.58C105.191 861.58 107.132 861.472 108.523 861.224L107.82 857.286C106.785 857.471 105.13 857.58 102.777 857.58V861.58ZM106.172 859.255V862.83H110.172V859.255H106.172ZM108.639 860.885C107.306 860.565 105.301 860.44 102.777 860.44V864.44C105.279 864.44 106.871 864.574 107.705 864.775L108.639 860.885ZM102.777 860.44H76.1268V864.44H102.777V860.44ZM74.1268 862.44V880.835H78.1268V862.44H74.1268ZM76.1268 882.835H108.562V878.835H76.1268V882.835ZM108.562 882.835C111.053 882.835 113.044 882.708 114.407 882.394L113.507 878.496C112.616 878.702 111.011 878.835 108.562 878.835V882.835ZM112.023 879.934L111.113 883.379L114.981 884.401L115.891 880.956L112.023 879.934ZM113.047 881.89H72.5518V885.89H113.047V881.89ZM154.865 881.03L153.878 882.77L153.885 882.774L153.892 882.777L154.865 881.03ZM152.2 863.935L150.944 862.378L150.937 862.384L150.93 862.389L152.2 863.935ZM162.6 860.23L162.812 862.219L164.6 862.028V860.23H162.6ZM162.6 859.645H164.6V857.902L162.873 857.664L162.6 859.645ZM153.63 856.005L154.936 854.491L153.63 856.005ZM155.775 840.405L154.791 838.663L154.782 838.668L155.775 840.405ZM177.16 837.805L176.895 839.787L176.9 839.788L177.16 837.805ZM183.4 839.17H185.4V837.779L184.096 837.295L183.4 839.17ZM183.4 842.29L182.637 844.139L185.4 845.278V842.29H183.4ZM158.05 842.615L157.126 840.841L157.116 840.846L158.05 842.615ZM157.595 856.46L156.528 858.151L156.543 858.161L156.558 858.17L157.595 856.46ZM183.595 859.06V861.06H185.595V859.06H183.595ZM183.595 851.715V849.715H181.595V851.715H183.595ZM186.78 851.715H188.78V849.715H186.78V851.715ZM186.78 859.125H184.78V861.125H186.78V859.125ZM194.06 859.125H196.06V857.125H194.06V859.125ZM194.06 861.01V863.01H196.06V861.01H194.06ZM186.78 861.01V859.01H184.78V861.01H186.78ZM186.78 882.005L187.5 883.87L188.78 883.376V882.005H186.78ZM179.24 883.825L178.938 881.848L178.933 881.848L179.24 883.825ZM183.595 879.86L184.144 881.783L185.595 881.368V879.86H183.595ZM183.595 861.01H185.595V859.01H183.595V861.01ZM155.97 863.87L157.027 865.567L157.034 865.563L155.97 863.87ZM157.01 878.755L156.09 880.531L156.103 880.537L156.115 880.544L157.01 878.755ZM170.53 882.54C164.532 882.54 159.668 881.415 155.838 879.282L153.892 882.777C158.468 885.325 164.048 886.54 170.53 886.54V882.54ZM155.851 879.29C152.117 877.173 150.56 874.578 150.56 871.475H146.56C146.56 876.345 149.205 880.12 153.878 882.77L155.851 879.29ZM150.56 871.475C150.56 869.064 151.486 867.109 153.469 865.48L150.93 862.389C148.06 864.747 146.56 867.819 146.56 871.475H150.56ZM153.456 865.491C155.527 863.82 158.58 862.671 162.812 862.219L162.387 858.241C157.693 858.743 153.813 860.063 150.944 862.378L153.456 865.491ZM164.6 860.23V859.645H160.6V860.23H164.6ZM162.873 857.664C159.371 857.181 156.777 856.079 154.936 854.491L152.323 857.519C154.902 859.744 158.289 861.069 162.326 861.626L162.873 857.664ZM154.936 854.491C153.115 852.919 152.315 851.177 152.315 849.18H148.315C148.315 852.47 149.724 855.277 152.323 857.519L154.936 854.491ZM152.315 849.18C152.315 846.22 153.666 843.914 156.767 842.141L154.782 838.668C150.604 841.056 148.315 844.6 148.315 849.18H152.315ZM156.758 842.146C160.044 840.291 164.481 839.285 170.205 839.285V835.285C164.055 835.285 158.872 836.359 154.791 838.663L156.758 842.146ZM170.205 839.285C172.132 839.285 174.359 839.449 176.895 839.787L177.424 835.822C174.76 835.467 172.351 835.285 170.205 835.285V839.285ZM176.9 839.788C179.477 840.126 181.389 840.556 182.703 841.045L184.096 837.295C182.377 836.657 180.13 836.177 177.42 835.822L176.9 839.788ZM181.4 839.17V842.29H185.4V839.17H181.4ZM184.162 840.441C180.375 838.879 175.695 838.145 170.205 838.145V842.145C175.375 842.145 179.491 842.841 182.637 844.139L184.162 840.441ZM170.205 838.145C165.06 838.145 160.663 839 157.126 840.841L158.973 844.389C161.763 842.937 165.469 842.145 170.205 842.145V838.145ZM157.116 840.846C153.496 842.757 151.37 845.656 151.37 849.505H155.37C155.37 847.461 156.364 845.766 158.983 844.384L157.116 840.846ZM151.37 849.505C151.37 853.174 153.242 856.079 156.528 858.151L158.662 854.768C156.314 853.287 155.37 851.556 155.37 849.505H151.37ZM156.558 858.17C159.832 860.154 163.999 861.06 168.905 861.06V857.06C164.451 857.06 161.078 856.232 158.631 854.749L156.558 858.17ZM168.905 861.06H183.595V857.06H168.905V861.06ZM185.595 859.06V851.715H181.595V859.06H185.595ZM183.595 853.715H186.78V849.715H183.595V853.715ZM184.78 851.715V859.125H188.78V851.715H184.78ZM186.78 861.125H194.06V857.125H186.78V861.125ZM192.06 859.125V861.01H196.06V859.125H192.06ZM194.06 859.01H186.78V863.01H194.06V859.01ZM184.78 861.01V882.005H188.78V861.01H184.78ZM186.059 880.139C184.339 880.804 181.983 881.383 178.938 881.848L179.542 885.802C182.737 885.314 185.407 884.679 187.5 883.87L186.059 880.139ZM178.933 881.848C175.944 882.312 173.144 882.54 170.53 882.54V886.54C173.375 886.54 176.382 886.292 179.546 885.801L178.933 881.848ZM170.53 883.55C175.453 883.55 179.996 882.968 184.144 881.783L183.045 877.937C179.307 879.005 175.14 879.55 170.53 879.55V883.55ZM185.595 879.86V861.01H181.595V879.86H185.595ZM183.595 859.01H167.8V863.01H183.595V859.01ZM167.8 859.01C162.699 859.01 158.352 860.01 154.905 862.177L157.034 865.563C159.654 863.916 163.194 863.01 167.8 863.01V859.01ZM154.912 862.173C151.436 864.338 149.485 867.402 149.485 871.28H153.485C153.485 869.004 154.523 867.128 157.027 865.567L154.912 862.173ZM149.485 871.28C149.485 875.364 152.011 878.419 156.09 880.531L157.929 876.979C154.642 875.277 153.485 873.349 153.485 871.28H149.485ZM156.115 880.544C160.184 882.578 165.014 883.55 170.53 883.55V879.55C165.472 879.55 161.289 878.658 157.904 876.966L156.115 880.544ZM229.458 883.89L227.489 883.538L227.07 885.89H229.458V883.89ZM229.458 838.39V836.39H227.07L227.489 838.741L229.458 838.39ZM233.423 838.39L235.368 838.857L235.96 836.39H233.423V838.39ZM233.033 859.58H231.033V861.58H233.033V859.58ZM271.448 859.58V861.58H273.448V859.58H271.448ZM271.058 838.39V836.39H268.521L269.114 838.857L271.058 838.39ZM275.023 838.39L276.968 838.857L277.56 836.39H275.023V838.39ZM275.023 883.89V885.89H277.537L276.972 883.44L275.023 883.89ZM271.058 883.89L269.109 883.44L268.544 885.89H271.058V883.89ZM271.448 862.7H273.448V860.7H271.448V862.7ZM233.033 862.7V860.7H231.033V862.7H233.033ZM233.423 883.89V885.89H235.937L235.372 883.44L233.423 883.89ZM231.427 884.241C231.676 882.85 231.783 880.909 231.783 878.495H227.783C227.783 880.848 227.674 882.503 227.489 883.538L231.427 884.241ZM231.783 878.495V843.785H227.783V878.495H231.783ZM231.783 843.785C231.783 841.371 231.676 839.43 231.427 838.038L227.489 838.741C227.674 839.776 227.783 841.432 227.783 843.785H231.783ZM229.458 840.39H233.423V836.39H229.458V840.39ZM231.479 837.923C231.159 839.255 231.033 841.26 231.033 843.785H235.033C235.033 841.283 235.168 839.691 235.368 838.857L231.479 837.923ZM231.033 843.785V859.58H235.033V843.785H231.033ZM233.033 861.58H271.448V857.58H233.033V861.58ZM273.448 859.58V843.785H269.448V859.58H273.448ZM273.448 843.785C273.448 841.26 273.323 839.255 273.003 837.923L269.114 838.857C269.314 839.691 269.448 841.283 269.448 843.785H273.448ZM271.058 840.39H275.023V836.39H271.058V840.39ZM273.079 837.923C272.759 839.255 272.633 841.26 272.633 843.785H276.633C276.633 841.283 276.768 839.691 276.968 838.857L273.079 837.923ZM272.633 843.785V878.495H276.633V843.785H272.633ZM272.633 878.495C272.633 880.986 272.76 882.977 273.074 884.34L276.972 883.44C276.766 882.549 276.633 880.944 276.633 878.495H272.633ZM275.023 881.89H271.058V885.89H275.023V881.89ZM273.007 884.34C273.321 882.977 273.448 880.986 273.448 878.495H269.448C269.448 880.944 269.315 882.549 269.109 883.44L273.007 884.34ZM273.448 878.495V862.7H269.448V878.495H273.448ZM271.448 860.7H233.033V864.7H271.448V860.7ZM231.033 862.7V878.495H235.033V862.7H231.033ZM231.033 878.495C231.033 880.986 231.16 882.977 231.475 884.34L235.372 883.44C235.166 882.549 235.033 880.944 235.033 878.495H231.033ZM233.423 881.89H229.458V885.89H233.423V881.89Z" fill="#091158" mask="url(#path-44-outside-1_26_74)"/>
<path d="M72.5518 883.89L70.583 883.538L70.1631 885.89H72.5518V883.89ZM72.5518 838.39V836.39H70.1631L70.583 838.741L72.5518 838.39ZM111.877 838.39L113.798 837.836L113.381 836.39H111.877V838.39ZM112.852 841.77L112.402 843.719L115.716 844.483L114.773 841.216L112.852 841.77ZM76.1268 841.38V839.38H74.1268V841.38H76.1268ZM76.1268 859.58H74.1268V861.58H76.1268V859.58ZM108.172 859.255H110.172V856.866L107.82 857.286L108.172 859.255ZM108.172 862.83L107.705 864.775L110.172 865.367V862.83H108.172ZM76.1268 862.44V860.44H74.1268V862.44H76.1268ZM76.1268 880.835H74.1268V882.835H76.1268V880.835ZM113.957 880.445L115.891 880.956L116.737 877.751L113.507 878.496L113.957 880.445ZM113.047 883.89V885.89H114.587L114.981 884.401L113.047 883.89ZM74.5207 884.241C74.7692 882.85 74.8768 880.909 74.8768 878.495H70.8768C70.8768 880.848 70.7678 882.503 70.583 883.538L74.5207 884.241ZM74.8768 878.495V843.785H70.8768V878.495H74.8768ZM74.8768 843.785C74.8768 841.371 74.7692 839.43 74.5207 838.038L70.583 838.741C70.7678 839.776 70.8768 841.432 70.8768 843.785H74.8768ZM72.5518 840.39H111.877V836.39H72.5518V840.39ZM109.955 838.944L110.93 842.324L114.773 841.216L113.798 837.836L109.955 838.944ZM113.302 839.821C111.939 839.507 109.948 839.38 107.457 839.38V843.38C109.906 843.38 111.511 843.513 112.402 843.719L113.302 839.821ZM107.457 839.38H76.1268V843.38H107.457V839.38ZM74.1268 841.38V859.58H78.1268V841.38H74.1268ZM76.1268 861.58H102.777V857.58H76.1268V861.58ZM102.777 861.58C105.191 861.58 107.132 861.472 108.523 861.224L107.82 857.286C106.785 857.471 105.13 857.58 102.777 857.58V861.58ZM106.172 859.255V862.83H110.172V859.255H106.172ZM108.639 860.885C107.306 860.565 105.301 860.44 102.777 860.44V864.44C105.279 864.44 106.871 864.574 107.705 864.775L108.639 860.885ZM102.777 860.44H76.1268V864.44H102.777V860.44ZM74.1268 862.44V880.835H78.1268V862.44H74.1268ZM76.1268 882.835H108.562V878.835H76.1268V882.835ZM108.562 882.835C111.053 882.835 113.044 882.708 114.407 882.394L113.507 878.496C112.616 878.702 111.011 878.835 108.562 878.835V882.835ZM112.023 879.934L111.113 883.379L114.981 884.401L115.891 880.956L112.023 879.934ZM113.047 881.89H72.5518V885.89H113.047V881.89ZM154.865 881.03L153.878 882.77L153.885 882.774L153.892 882.777L154.865 881.03ZM152.2 863.935L150.944 862.378L150.937 862.384L150.93 862.389L152.2 863.935ZM162.6 860.23L162.812 862.219L164.6 862.028V860.23H162.6ZM162.6 859.645H164.6V857.902L162.873 857.664L162.6 859.645ZM153.63 856.005L154.936 854.491L153.63 856.005ZM155.775 840.405L154.791 838.663L154.782 838.668L155.775 840.405ZM177.16 837.805L176.895 839.787L176.9 839.788L177.16 837.805ZM183.4 839.17H185.4V837.779L184.096 837.295L183.4 839.17ZM183.4 842.29L182.637 844.139L185.4 845.278V842.29H183.4ZM158.05 842.615L157.126 840.841L157.116 840.846L158.05 842.615ZM157.595 856.46L156.528 858.151L156.543 858.161L156.558 858.17L157.595 856.46ZM183.595 859.06V861.06H185.595V859.06H183.595ZM183.595 851.715V849.715H181.595V851.715H183.595ZM186.78 851.715H188.78V849.715H186.78V851.715ZM186.78 859.125H184.78V861.125H186.78V859.125ZM194.06 859.125H196.06V857.125H194.06V859.125ZM194.06 861.01V863.01H196.06V861.01H194.06ZM186.78 861.01V859.01H184.78V861.01H186.78ZM186.78 882.005L187.5 883.87L188.78 883.376V882.005H186.78ZM179.24 883.825L178.938 881.848L178.933 881.848L179.24 883.825ZM183.595 879.86L184.144 881.783L185.595 881.368V879.86H183.595ZM183.595 861.01H185.595V859.01H183.595V861.01ZM155.97 863.87L157.027 865.567L157.034 865.563L155.97 863.87ZM157.01 878.755L156.09 880.531L156.103 880.537L156.115 880.544L157.01 878.755ZM170.53 882.54C164.532 882.54 159.668 881.415 155.838 879.282L153.892 882.777C158.468 885.325 164.048 886.54 170.53 886.54V882.54ZM155.851 879.29C152.117 877.173 150.56 874.578 150.56 871.475H146.56C146.56 876.345 149.205 880.12 153.878 882.77L155.851 879.29ZM150.56 871.475C150.56 869.064 151.486 867.109 153.469 865.48L150.93 862.389C148.06 864.747 146.56 867.819 146.56 871.475H150.56ZM153.456 865.491C155.527 863.82 158.58 862.671 162.812 862.219L162.387 858.241C157.693 858.743 153.813 860.063 150.944 862.378L153.456 865.491ZM164.6 860.23V859.645H160.6V860.23H164.6ZM162.873 857.664C159.371 857.181 156.777 856.079 154.936 854.491L152.323 857.519C154.902 859.744 158.289 861.069 162.326 861.626L162.873 857.664ZM154.936 854.491C153.115 852.919 152.315 851.177 152.315 849.18H148.315C148.315 852.47 149.724 855.277 152.323 857.519L154.936 854.491ZM152.315 849.18C152.315 846.22 153.666 843.914 156.767 842.141L154.782 838.668C150.604 841.056 148.315 844.6 148.315 849.18H152.315ZM156.758 842.146C160.044 840.291 164.481 839.285 170.205 839.285V835.285C164.055 835.285 158.872 836.359 154.791 838.663L156.758 842.146ZM170.205 839.285C172.132 839.285 174.359 839.449 176.895 839.787L177.424 835.822C174.76 835.467 172.351 835.285 170.205 835.285V839.285ZM176.9 839.788C179.477 840.126 181.389 840.556 182.703 841.045L184.096 837.295C182.377 836.657 180.13 836.177 177.42 835.822L176.9 839.788ZM181.4 839.17V842.29H185.4V839.17H181.4ZM184.162 840.441C180.375 838.879 175.695 838.145 170.205 838.145V842.145C175.375 842.145 179.491 842.841 182.637 844.139L184.162 840.441ZM170.205 838.145C165.06 838.145 160.663 839 157.126 840.841L158.973 844.389C161.763 842.937 165.469 842.145 170.205 842.145V838.145ZM157.116 840.846C153.496 842.757 151.37 845.656 151.37 849.505H155.37C155.37 847.461 156.364 845.766 158.983 844.384L157.116 840.846ZM151.37 849.505C151.37 853.174 153.242 856.079 156.528 858.151L158.662 854.768C156.314 853.287 155.37 851.556 155.37 849.505H151.37ZM156.558 858.17C159.832 860.154 163.999 861.06 168.905 861.06V857.06C164.451 857.06 161.078 856.232 158.631 854.749L156.558 858.17ZM168.905 861.06H183.595V857.06H168.905V861.06ZM185.595 859.06V851.715H181.595V859.06H185.595ZM183.595 853.715H186.78V849.715H183.595V853.715ZM184.78 851.715V859.125H188.78V851.715H184.78ZM186.78 861.125H194.06V857.125H186.78V861.125ZM192.06 859.125V861.01H196.06V859.125H192.06ZM194.06 859.01H186.78V863.01H194.06V859.01ZM184.78 861.01V882.005H188.78V861.01H184.78ZM186.059 880.139C184.339 880.804 181.983 881.383 178.938 881.848L179.542 885.802C182.737 885.314 185.407 884.679 187.5 883.87L186.059 880.139ZM178.933 881.848C175.944 882.312 173.144 882.54 170.53 882.54V886.54C173.375 886.54 176.382 886.292 179.546 885.801L178.933 881.848ZM170.53 883.55C175.453 883.55 179.996 882.968 184.144 881.783L183.045 877.937C179.307 879.005 175.14 879.55 170.53 879.55V883.55ZM185.595 879.86V861.01H181.595V879.86H185.595ZM183.595 859.01H167.8V863.01H183.595V859.01ZM167.8 859.01C162.699 859.01 158.352 860.01 154.905 862.177L157.034 865.563C159.654 863.916 163.194 863.01 167.8 863.01V859.01ZM154.912 862.173C151.436 864.338 149.485 867.402 149.485 871.28H153.485C153.485 869.004 154.523 867.128 157.027 865.567L154.912 862.173ZM149.485 871.28C149.485 875.364 152.011 878.419 156.09 880.531L157.929 876.979C154.642 875.277 153.485 873.349 153.485 871.28H149.485ZM156.115 880.544C160.184 882.578 165.014 883.55 170.53 883.55V879.55C165.472 879.55 161.289 878.658 157.904 876.966L156.115 880.544ZM229.458 883.89L227.489 883.538L227.07 885.89H229.458V883.89ZM229.458 838.39V836.39H227.07L227.489 838.741L229.458 838.39ZM233.423 838.39L235.368 838.857L235.96 836.39H233.423V838.39ZM233.033 859.58H231.033V861.58H233.033V859.58ZM271.448 859.58V861.58H273.448V859.58H271.448ZM271.058 838.39V836.39H268.521L269.114 838.857L271.058 838.39ZM275.023 838.39L276.968 838.857L277.56 836.39H275.023V838.39ZM275.023 883.89V885.89H277.537L276.972 883.44L275.023 883.89ZM271.058 883.89L269.109 883.44L268.544 885.89H271.058V883.89ZM271.448 862.7H273.448V860.7H271.448V862.7ZM233.033 862.7V860.7H231.033V862.7H233.033ZM233.423 883.89V885.89H235.937L235.372 883.44L233.423 883.89ZM231.427 884.241C231.676 882.85 231.783 880.909 231.783 878.495H227.783C227.783 880.848 227.674 882.503 227.489 883.538L231.427 884.241ZM231.783 878.495V843.785H227.783V878.495H231.783ZM231.783 843.785C231.783 841.371 231.676 839.43 231.427 838.038L227.489 838.741C227.674 839.776 227.783 841.432 227.783 843.785H231.783ZM229.458 840.39H233.423V836.39H229.458V840.39ZM231.479 837.923C231.159 839.255 231.033 841.26 231.033 843.785H235.033C235.033 841.283 235.168 839.691 235.368 838.857L231.479 837.923ZM231.033 843.785V859.58H235.033V843.785H231.033ZM233.033 861.58H271.448V857.58H233.033V861.58ZM273.448 859.58V843.785H269.448V859.58H273.448ZM273.448 843.785C273.448 841.26 273.323 839.255 273.003 837.923L269.114 838.857C269.314 839.691 269.448 841.283 269.448 843.785H273.448ZM271.058 840.39H275.023V836.39H271.058V840.39ZM273.079 837.923C272.759 839.255 272.633 841.26 272.633 843.785H276.633C276.633 841.283 276.768 839.691 276.968 838.857L273.079 837.923ZM272.633 843.785V878.495H276.633V843.785H272.633ZM272.633 878.495C272.633 880.986 272.76 882.977 273.074 884.34L276.972 883.44C276.766 882.549 276.633 880.944 276.633 878.495H272.633ZM275.023 881.89H271.058V885.89H275.023V881.89ZM273.007 884.34C273.321 882.977 273.448 880.986 273.448 878.495H269.448C269.448 880.944 269.315 882.549 269.109 883.44L273.007 884.34ZM273.448 878.495V862.7H269.448V878.495H273.448ZM271.448 860.7H233.033V864.7H271.448V860.7ZM231.033 862.7V878.495H235.033V862.7H231.033ZM231.033 878.495C231.033 880.986 231.16 882.977 231.475 884.34L235.372 883.44C235.166 882.549 235.033 880.944 235.033 878.495H231.033ZM233.423 881.89H229.458V885.89H233.423V881.89Z" fill="#091158" mask="url(#path-44-outside-1_26_74)"/>
<mask id="path-46-outside-2_26_74" maskUnits="userSpaceOnUse" x="309" y="858" width="165" height="30" fill="black">
<rect fill="white" x="309" y="858" width="165" height="30"/>
<path d="M324 885.49C319.73 885.49 315.693 884.603 311.89 882.83L311.995 880.975C315.705 882.912 319.73 883.88 324.07 883.88C326.847 883.88 329.098 883.39 330.825 882.41C332.552 881.43 333.415 880.135 333.415 878.525C333.415 877.498 333.03 876.647 332.26 875.97C331.49 875.293 330.487 874.792 329.25 874.465C328.037 874.115 326.683 873.823 325.19 873.59C323.697 873.333 322.203 873.065 320.71 872.785C319.217 872.505 317.852 872.155 316.615 871.735C315.402 871.292 314.41 870.65 313.64 869.81C312.87 868.947 312.485 867.885 312.485 866.625C312.485 864.618 313.547 863.02 315.67 861.83C317.793 860.617 320.372 860.01 323.405 860.01C326.952 860.01 330.16 860.687 333.03 862.04V863.86C331.863 863.207 330.405 862.67 328.655 862.25C326.928 861.83 325.178 861.62 323.405 861.62C320.932 861.597 318.785 862.04 316.965 862.95C315.168 863.86 314.27 865.062 314.27 866.555C314.27 867.558 314.655 868.398 315.425 869.075C316.195 869.728 317.187 870.218 318.4 870.545C319.637 870.872 320.99 871.163 322.46 871.42C323.953 871.653 325.447 871.922 326.94 872.225C328.433 872.505 329.787 872.867 331 873.31C332.237 873.73 333.24 874.372 334.01 875.235C334.78 876.098 335.165 877.16 335.165 878.42C335.165 880.52 334.138 882.223 332.085 883.53C330.055 884.837 327.36 885.49 324 885.49ZM350.13 885C350.27 884.16 350.34 883.192 350.34 882.095V862.11H341.905C340.645 862.11 339.689 862.168 339.035 862.285L339.56 860.5H362.835L363.36 862.285C362.707 862.168 361.739 862.11 360.455 862.11H352.055V882.095C352.055 883.402 352.125 884.37 352.265 885H350.13ZM389.814 882.55C387.62 884.51 384.739 885.49 381.169 885.49C377.599 885.49 374.705 884.51 372.489 882.55C370.295 880.567 369.199 877.953 369.199 874.71V863.405C369.199 862.052 369.129 861.083 368.989 860.5H371.124C371.007 861.153 370.949 862.122 370.949 863.405V874.675C370.949 877.498 371.894 879.738 373.784 881.395C375.697 883.028 378.159 883.845 381.169 883.845C384.202 883.845 386.664 883.028 388.554 881.395C390.467 879.738 391.424 877.498 391.424 874.675V863.405C391.424 862.262 391.354 861.293 391.214 860.5H393.349C393.209 861.293 393.139 862.262 393.139 863.405V874.71C393.139 877.953 392.03 880.567 389.814 882.55ZM401.661 885C401.801 884.393 401.871 883.425 401.871 882.095V863.405C401.871 862.052 401.801 861.083 401.661 860.5H413.386C417.352 860.5 420.596 861.632 423.116 863.895C425.636 866.158 426.896 869.11 426.896 872.75C426.896 876.39 425.636 879.342 423.116 881.605C420.596 883.868 417.352 885 413.386 885H401.661ZM403.586 883.39H413.316C416.722 883.39 419.534 882.422 421.751 880.485C423.991 878.548 425.111 875.97 425.111 872.75C425.111 869.53 423.991 866.952 421.751 865.015C419.534 863.055 416.722 862.075 413.316 862.075H403.586V883.39ZM434.088 885C434.204 884.347 434.263 883.378 434.263 882.095V863.405C434.263 862.122 434.204 861.153 434.088 860.5H436.223C436.083 861.083 436.013 862.052 436.013 863.405V882.095C436.013 883.425 436.083 884.393 436.223 885H434.088ZM457.376 885.49C453.316 885.49 449.968 884.312 447.331 881.955C444.718 879.575 443.411 876.507 443.411 872.75C443.411 868.993 444.718 865.937 447.331 863.58C449.968 861.2 453.316 860.01 457.376 860.01C461.413 860.01 464.75 861.2 467.386 863.58C470.023 865.937 471.341 868.993 471.341 872.75C471.341 876.507 470.023 879.575 467.386 881.955C464.75 884.312 461.413 885.49 457.376 885.49ZM448.661 880.8C450.995 882.83 453.9 883.845 457.376 883.845C460.853 883.845 463.758 882.83 466.091 880.8C468.425 878.747 469.591 876.063 469.591 872.75C469.591 869.413 468.425 866.73 466.091 864.7C463.758 862.647 460.853 861.62 457.376 861.62C453.9 861.62 450.995 862.647 448.661 864.7C446.328 866.73 445.161 869.413 445.161 872.75C445.161 876.063 446.328 878.747 448.661 880.8Z"/>
</mask>
<path d="M324 885.49C319.73 885.49 315.693 884.603 311.89 882.83L311.995 880.975C315.705 882.912 319.73 883.88 324.07 883.88C326.847 883.88 329.098 883.39 330.825 882.41C332.552 881.43 333.415 880.135 333.415 878.525C333.415 877.498 333.03 876.647 332.26 875.97C331.49 875.293 330.487 874.792 329.25 874.465C328.037 874.115 326.683 873.823 325.19 873.59C323.697 873.333 322.203 873.065 320.71 872.785C319.217 872.505 317.852 872.155 316.615 871.735C315.402 871.292 314.41 870.65 313.64 869.81C312.87 868.947 312.485 867.885 312.485 866.625C312.485 864.618 313.547 863.02 315.67 861.83C317.793 860.617 320.372 860.01 323.405 860.01C326.952 860.01 330.16 860.687 333.03 862.04V863.86C331.863 863.207 330.405 862.67 328.655 862.25C326.928 861.83 325.178 861.62 323.405 861.62C320.932 861.597 318.785 862.04 316.965 862.95C315.168 863.86 314.27 865.062 314.27 866.555C314.27 867.558 314.655 868.398 315.425 869.075C316.195 869.728 317.187 870.218 318.4 870.545C319.637 870.872 320.99 871.163 322.46 871.42C323.953 871.653 325.447 871.922 326.94 872.225C328.433 872.505 329.787 872.867 331 873.31C332.237 873.73 333.24 874.372 334.01 875.235C334.78 876.098 335.165 877.16 335.165 878.42C335.165 880.52 334.138 882.223 332.085 883.53C330.055 884.837 327.36 885.49 324 885.49ZM350.13 885C350.27 884.16 350.34 883.192 350.34 882.095V862.11H341.905C340.645 862.11 339.689 862.168 339.035 862.285L339.56 860.5H362.835L363.36 862.285C362.707 862.168 361.739 862.11 360.455 862.11H352.055V882.095C352.055 883.402 352.125 884.37 352.265 885H350.13ZM389.814 882.55C387.62 884.51 384.739 885.49 381.169 885.49C377.599 885.49 374.705 884.51 372.489 882.55C370.295 880.567 369.199 877.953 369.199 874.71V863.405C369.199 862.052 369.129 861.083 368.989 860.5H371.124C371.007 861.153 370.949 862.122 370.949 863.405V874.675C370.949 877.498 371.894 879.738 373.784 881.395C375.697 883.028 378.159 883.845 381.169 883.845C384.202 883.845 386.664 883.028 388.554 881.395C390.467 879.738 391.424 877.498 391.424 874.675V863.405C391.424 862.262 391.354 861.293 391.214 860.5H393.349C393.209 861.293 393.139 862.262 393.139 863.405V874.71C393.139 877.953 392.03 880.567 389.814 882.55ZM401.661 885C401.801 884.393 401.871 883.425 401.871 882.095V863.405C401.871 862.052 401.801 861.083 401.661 860.5H413.386C417.352 860.5 420.596 861.632 423.116 863.895C425.636 866.158 426.896 869.11 426.896 872.75C426.896 876.39 425.636 879.342 423.116 881.605C420.596 883.868 417.352 885 413.386 885H401.661ZM403.586 883.39H413.316C416.722 883.39 419.534 882.422 421.751 880.485C423.991 878.548 425.111 875.97 425.111 872.75C425.111 869.53 423.991 866.952 421.751 865.015C419.534 863.055 416.722 862.075 413.316 862.075H403.586V883.39ZM434.088 885C434.204 884.347 434.263 883.378 434.263 882.095V863.405C434.263 862.122 434.204 861.153 434.088 860.5H436.223C436.083 861.083 436.013 862.052 436.013 863.405V882.095C436.013 883.425 436.083 884.393 436.223 885H434.088ZM457.376 885.49C453.316 885.49 449.968 884.312 447.331 881.955C444.718 879.575 443.411 876.507 443.411 872.75C443.411 868.993 444.718 865.937 447.331 863.58C449.968 861.2 453.316 860.01 457.376 860.01C461.413 860.01 464.75 861.2 467.386 863.58C470.023 865.937 471.341 868.993 471.341 872.75C471.341 876.507 470.023 879.575 467.386 881.955C464.75 884.312 461.413 885.49 457.376 885.49ZM448.661 880.8C450.995 882.83 453.9 883.845 457.376 883.845C460.853 883.845 463.758 882.83 466.091 880.8C468.425 878.747 469.591 876.063 469.591 872.75C469.591 869.413 468.425 866.73 466.091 864.7C463.758 862.647 460.853 861.62 457.376 861.62C453.9 861.62 450.995 862.647 448.661 864.7C446.328 866.73 445.161 869.413 445.161 872.75C445.161 876.063 446.328 878.747 448.661 880.8Z" fill="#BE1313"/>
<path d="M311.89 882.83L309.893 882.717L309.817 884.07L311.045 884.643L311.89 882.83ZM311.995 880.975L312.921 879.202L310.173 877.768L309.998 880.862L311.995 880.975ZM330.825 882.41L331.812 884.149L330.825 882.41ZM332.26 875.97L333.58 874.468V874.468L332.26 875.97ZM329.25 874.465L328.696 876.387L328.717 876.393L328.739 876.399L329.25 874.465ZM325.19 873.59L324.851 875.561L324.866 875.564L324.881 875.566L325.19 873.59ZM320.71 872.785L320.341 874.751H320.341L320.71 872.785ZM316.615 871.735L315.929 873.614L315.95 873.621L315.972 873.629L316.615 871.735ZM313.64 869.81L312.147 871.141L312.156 871.151L312.166 871.161L313.64 869.81ZM315.67 861.83L316.648 863.575L316.655 863.571L316.662 863.566L315.67 861.83ZM333.03 862.04H335.03V860.772L333.883 860.231L333.03 862.04ZM333.03 863.86L332.053 865.605L335.03 867.272V863.86H333.03ZM328.655 862.25L328.182 864.193L328.188 864.195L328.655 862.25ZM323.405 861.62L323.386 863.62L323.396 863.62H323.405V861.62ZM316.965 862.95L316.071 861.161L316.061 861.166L316.965 862.95ZM315.425 869.075L314.105 870.577L314.118 870.589L314.131 870.6L315.425 869.075ZM318.4 870.545L317.88 872.476L317.889 872.479L318.4 870.545ZM322.46 871.42L322.116 873.39L322.134 873.393L322.151 873.396L322.46 871.42ZM326.94 872.225L326.542 874.185L326.557 874.188L326.571 874.191L326.94 872.225ZM331 873.31L330.314 875.189L330.335 875.196L330.357 875.204L331 873.31ZM332.085 883.53L331.011 881.843L331.003 881.848L332.085 883.53ZM324 883.49C320.017 883.49 316.269 882.665 312.735 881.017L311.045 884.643C315.118 886.542 319.443 887.49 324 887.49V883.49ZM313.887 882.943L313.992 881.088L309.998 880.862L309.893 882.717L313.887 882.943ZM311.069 882.748C315.076 884.839 319.42 885.88 324.07 885.88V881.88C320.04 881.88 316.334 880.984 312.921 879.202L311.069 882.748ZM324.07 885.88C327.062 885.88 329.688 885.355 331.812 884.149L329.838 880.671C328.508 881.425 326.632 881.88 324.07 881.88V885.88ZM331.812 884.149C333.994 882.911 335.415 881.032 335.415 878.525H331.415C331.415 879.238 331.11 879.949 329.838 880.671L331.812 884.149ZM335.415 878.525C335.415 876.924 334.783 875.525 333.58 874.468L330.94 877.472C331.277 877.769 331.415 878.073 331.415 878.525H335.415ZM333.58 874.468C332.527 873.542 331.224 872.918 329.761 872.531L328.739 876.399C329.749 876.665 330.453 877.045 330.94 877.472L333.58 874.468ZM329.804 872.543C328.497 872.166 327.059 871.858 325.499 871.614L324.881 875.566C326.307 875.789 327.577 876.064 328.696 876.387L329.804 872.543ZM325.529 871.619C324.045 871.364 322.562 871.097 321.079 870.819L320.341 874.751C321.845 875.033 323.348 875.303 324.851 875.561L325.529 871.619ZM321.079 870.819C319.664 870.554 318.392 870.226 317.258 869.841L315.972 873.629C317.311 874.084 318.77 874.456 320.341 874.751L321.079 870.819ZM317.301 869.856C316.349 869.508 315.64 869.032 315.114 868.459L312.166 871.161C313.18 872.268 314.455 873.075 315.929 873.614L317.301 869.856ZM315.133 868.479C314.72 868.016 314.485 867.441 314.485 866.625H310.485C310.485 868.329 311.02 869.878 312.147 871.141L315.133 868.479ZM314.485 866.625C314.485 865.508 314.997 864.5 316.648 863.575L314.692 860.085C312.097 861.54 310.485 863.729 310.485 866.625H314.485ZM316.662 863.566C318.419 862.563 320.637 862.01 323.405 862.01V858.01C320.106 858.01 317.168 858.671 314.678 860.094L316.662 863.566ZM323.405 862.01C326.692 862.01 329.604 862.636 332.177 863.849L333.883 860.231C330.716 858.738 327.212 858.01 323.405 858.01V862.01ZM331.03 862.04V863.86H335.03V862.04H331.03ZM334.007 862.115C332.636 861.347 330.993 860.754 329.122 860.305L328.188 864.195C329.817 864.586 331.091 865.066 332.053 865.605L334.007 862.115ZM329.128 860.307C327.247 859.849 325.338 859.62 323.405 859.62V863.62C325.019 863.62 326.61 863.811 328.182 864.193L329.128 860.307ZM323.424 859.62C320.701 859.594 318.229 860.082 316.071 861.161L317.859 864.739C319.341 863.998 321.162 863.599 323.386 863.62L323.424 859.62ZM316.061 861.166C313.865 862.278 312.27 864.045 312.27 866.555H316.27C316.27 866.079 316.472 865.442 317.869 864.734L316.061 861.166ZM312.27 866.555C312.27 868.148 312.913 869.53 314.105 870.577L316.745 867.573C316.397 867.266 316.27 866.969 316.27 866.555H312.27ZM314.131 870.6C315.174 871.485 316.45 872.091 317.88 872.476L318.92 868.614C317.924 868.346 317.216 867.972 316.719 867.55L314.131 870.6ZM317.889 872.479C319.189 872.822 320.599 873.125 322.116 873.39L322.804 869.45C321.381 869.201 320.084 868.921 318.911 868.611L317.889 872.479ZM322.151 873.396C323.614 873.625 325.078 873.888 326.542 874.185L327.338 870.265C325.815 869.956 324.292 869.682 322.769 869.444L322.151 873.396ZM326.571 874.191C327.975 874.454 329.22 874.789 330.314 875.189L331.686 871.431C330.354 870.944 328.892 870.556 327.309 870.259L326.571 874.191ZM330.357 875.204C331.309 875.527 332.006 875.992 332.517 876.566L335.503 873.904C334.474 872.751 333.164 871.933 331.643 871.416L330.357 875.204ZM332.517 876.566C332.93 877.029 333.165 877.604 333.165 878.42H337.165C337.165 876.716 336.63 875.167 335.503 873.904L332.517 876.566ZM333.165 878.42C333.165 879.718 332.595 880.835 331.011 881.843L333.159 885.217C335.682 883.612 337.165 881.322 337.165 878.42H333.165ZM331.003 881.848C329.399 882.881 327.121 883.49 324 883.49V887.49C327.599 887.49 330.711 886.793 333.167 885.212L331.003 881.848ZM350.13 885L348.157 884.671L347.769 887H350.13V885ZM350.34 862.11H352.34V860.11H350.34V862.11ZM339.035 862.285L337.117 861.721L336.204 864.822L339.387 864.254L339.035 862.285ZM339.56 860.5V858.5H338.064L337.642 859.936L339.56 860.5ZM362.835 860.5L364.754 859.936L364.332 858.5H362.835V860.5ZM363.36 862.285L363.009 864.254L366.191 864.822L365.279 861.721L363.36 862.285ZM352.055 862.11V860.11H350.055V862.11H352.055ZM352.265 885V887H354.758L354.218 884.566L352.265 885ZM352.103 885.329C352.265 884.354 352.34 883.272 352.34 882.095H348.34C348.34 883.111 348.275 883.966 348.157 884.671L352.103 885.329ZM352.34 882.095V862.11H348.34V882.095H352.34ZM350.34 860.11H341.905V864.11H350.34V860.11ZM341.905 860.11C340.612 860.11 339.514 860.168 338.684 860.316L339.387 864.254C339.863 864.169 340.678 864.11 341.905 864.11V860.11ZM340.954 862.849L341.479 861.064L337.642 859.936L337.117 861.721L340.954 862.849ZM339.56 862.5H362.835V858.5H339.56V862.5ZM360.917 861.064L361.442 862.849L365.279 861.721L364.754 859.936L360.917 861.064ZM363.712 860.316C362.88 860.168 361.769 860.11 360.455 860.11V864.11C361.708 864.11 362.534 864.169 363.009 864.254L363.712 860.316ZM360.455 860.11H352.055V864.11H360.455V860.11ZM350.055 862.11V882.095H354.055V862.11H350.055ZM350.055 882.095C350.055 883.431 350.123 884.581 350.313 885.434L354.218 884.566C354.127 884.159 354.055 883.372 354.055 882.095H350.055ZM352.265 883H350.13V887H352.265V883ZM389.814 882.55L391.146 884.041L391.147 884.04L389.814 882.55ZM372.489 882.55L371.147 884.033L371.156 884.041L371.164 884.048L372.489 882.55ZM368.989 860.5V858.5H366.452L367.044 860.967L368.989 860.5ZM371.124 860.5L373.093 860.852L373.512 858.5H371.124V860.5ZM373.784 881.395L372.465 882.899L372.475 882.908L372.485 882.916L373.784 881.395ZM388.554 881.395L389.861 882.908L389.863 882.907L388.554 881.395ZM391.214 860.5V858.5H388.83L389.244 860.848L391.214 860.5ZM393.349 860.5L395.318 860.848L395.733 858.5H393.349V860.5ZM388.481 881.059C386.729 882.624 384.357 883.49 381.169 883.49V887.49C385.12 887.49 388.512 886.396 391.146 884.041L388.481 881.059ZM381.169 883.49C377.981 883.49 375.592 882.625 373.813 881.052L371.164 884.048C373.818 886.395 377.216 887.49 381.169 887.49V883.49ZM373.83 881.067C372.099 879.502 371.199 877.449 371.199 874.71H367.199C367.199 878.458 368.491 881.632 371.147 884.033L373.83 881.067ZM371.199 874.71V863.405H367.199V874.71H371.199ZM371.199 863.405C371.199 862.04 371.133 860.866 370.933 860.033L367.044 860.967C367.124 861.301 367.199 862.063 367.199 863.405H371.199ZM368.989 862.5H371.124V858.5H368.989V862.5ZM369.155 860.148C369.006 860.98 368.949 862.091 368.949 863.405H372.949C372.949 862.152 373.008 861.326 373.093 860.852L369.155 860.148ZM368.949 863.405V874.675H372.949V863.405H368.949ZM368.949 874.675C368.949 877.995 370.086 880.813 372.465 882.899L375.102 879.891C373.702 878.663 372.949 877.002 372.949 874.675H368.949ZM372.485 882.916C374.829 884.917 377.781 885.845 381.169 885.845V881.845C378.537 881.845 376.565 881.14 375.082 879.874L372.485 882.916ZM381.169 885.845C384.575 885.845 387.534 884.919 389.861 882.908L387.246 879.882C385.793 881.137 383.829 881.845 381.169 881.845V885.845ZM389.863 882.907C392.269 880.824 393.424 878.004 393.424 874.675H389.424C389.424 876.993 388.665 878.653 387.245 879.883L389.863 882.907ZM393.424 874.675V863.405H389.424V874.675H393.424ZM393.424 863.405C393.424 862.189 393.35 861.097 393.183 860.152L389.244 860.848C389.357 861.49 389.424 862.334 389.424 863.405H393.424ZM391.214 862.5H393.349V858.5H391.214V862.5ZM391.379 860.152C391.212 861.097 391.139 862.189 391.139 863.405H395.139C395.139 862.334 395.205 861.49 395.318 860.848L391.379 860.152ZM391.139 863.405V874.71H395.139V863.405H391.139ZM391.139 874.71C391.139 877.442 390.232 879.492 388.48 881.06L391.147 884.04C393.829 881.641 395.139 878.465 395.139 874.71H391.139ZM401.661 885L399.712 884.55L399.147 887H401.661V885ZM401.661 860.5V858.5H399.124L399.716 860.967L401.661 860.5ZM423.116 863.895L421.779 865.383V865.383L423.116 863.895ZM423.116 881.605L421.779 880.117L423.116 881.605ZM403.586 883.39H401.586V885.39H403.586V883.39ZM421.751 880.485L420.443 878.972L420.435 878.979L421.751 880.485ZM421.751 865.015L420.426 866.513L420.434 866.521L420.443 866.528L421.751 865.015ZM403.586 862.075V860.075H401.586V862.075H403.586ZM403.609 885.45C403.804 884.607 403.871 883.446 403.871 882.095H399.871C399.871 883.404 399.797 884.179 399.712 884.55L403.609 885.45ZM403.871 882.095V863.405H399.871V882.095H403.871ZM403.871 863.405C403.871 862.04 403.805 860.866 403.605 860.033L399.716 860.967C399.796 861.301 399.871 862.063 399.871 863.405H403.871ZM401.661 862.5H413.386V858.5H401.661V862.5ZM413.386 862.5C416.948 862.5 419.688 863.505 421.779 865.383L424.452 862.407C421.503 859.759 417.756 858.5 413.386 858.5V862.5ZM421.779 865.383C423.843 867.236 424.896 869.63 424.896 872.75H428.896C428.896 868.59 427.429 865.08 424.452 862.407L421.779 865.383ZM424.896 872.75C424.896 875.87 423.843 878.264 421.779 880.117L424.452 883.093C427.429 880.42 428.896 876.91 428.896 872.75H424.896ZM421.779 880.117C419.688 881.995 416.948 883 413.386 883V887C417.756 887 421.503 885.741 424.452 883.093L421.779 880.117ZM413.386 883H401.661V887H413.386V883ZM403.586 885.39H413.316V881.39H403.586V885.39ZM413.316 885.39C417.125 885.39 420.429 884.296 423.067 881.991L420.435 878.979C418.639 880.548 416.319 881.39 413.316 881.39V885.39ZM423.059 881.998C425.78 879.645 427.111 876.494 427.111 872.75H423.111C423.111 875.446 422.202 877.451 420.443 878.972L423.059 881.998ZM427.111 872.75C427.111 869.006 425.78 865.855 423.059 863.502L420.443 866.528C422.202 868.049 423.111 870.054 423.111 872.75H427.111ZM423.075 863.517C420.438 861.185 417.132 860.075 413.316 860.075V864.075C416.313 864.075 418.63 864.925 420.426 866.513L423.075 863.517ZM413.316 860.075H403.586V864.075H413.316V860.075ZM401.586 862.075V883.39H405.586V862.075H401.586ZM434.088 885L432.119 884.648L431.699 887H434.088V885ZM434.088 860.5V858.5H431.699L432.119 860.852L434.088 860.5ZM436.223 860.5L438.167 860.967L438.759 858.5H436.223V860.5ZM436.223 885V887H438.737L438.171 884.55L436.223 885ZM436.056 885.352C436.205 884.52 436.263 883.409 436.263 882.095H432.263C432.263 883.348 432.204 884.174 432.119 884.648L436.056 885.352ZM436.263 882.095V863.405H432.263V882.095H436.263ZM436.263 863.405C436.263 862.091 436.205 860.98 436.056 860.148L432.119 860.852C432.204 861.326 432.263 862.152 432.263 863.405H436.263ZM434.088 862.5H436.223V858.5H434.088V862.5ZM434.278 860.033C434.078 860.866 434.013 862.04 434.013 863.405H438.013C438.013 862.063 438.087 861.301 438.167 860.967L434.278 860.033ZM434.013 863.405V882.095H438.013V863.405H434.013ZM434.013 882.095C434.013 883.446 434.079 884.607 434.274 885.45L438.171 884.55C438.086 884.179 438.013 883.404 438.013 882.095H434.013ZM436.223 883H434.088V887H436.223V883ZM447.331 881.955L445.985 883.434L445.991 883.44L445.998 883.446L447.331 881.955ZM447.331 863.58L448.671 865.065L448.671 865.065L447.331 863.58ZM467.386 863.58L466.046 865.065L466.053 865.071L467.386 863.58ZM467.386 881.955L468.719 883.446L468.726 883.44L467.386 881.955ZM448.661 880.8L447.34 882.301L447.349 882.309L448.661 880.8ZM466.091 880.8L467.404 882.309L467.413 882.301L466.091 880.8ZM466.091 864.7L464.77 866.201L464.779 866.209L466.091 864.7ZM448.661 864.7L449.974 866.209L449.983 866.201L448.661 864.7ZM457.376 883.49C453.73 883.49 450.88 882.444 448.664 880.464L445.998 883.446C449.056 886.179 452.902 887.49 457.376 887.49V883.49ZM448.678 880.476C446.509 878.501 445.411 875.984 445.411 872.75H441.411C441.411 877.03 442.927 880.649 445.985 883.434L448.678 880.476ZM445.411 872.75C445.411 869.517 446.509 867.015 448.671 865.065L445.992 862.095C442.927 864.859 441.411 868.47 441.411 872.75H445.411ZM448.671 865.065C450.888 863.064 453.736 862.01 457.376 862.01V858.01C452.897 858.01 449.048 859.336 445.991 862.095L448.671 865.065ZM457.376 862.01C460.99 862.01 463.827 863.062 466.046 865.065L468.726 862.095C465.672 859.338 461.836 858.01 457.376 858.01V862.01ZM466.053 865.071C468.237 867.022 469.341 869.523 469.341 872.75H473.341C473.341 868.464 471.809 864.851 468.719 862.089L466.053 865.071ZM469.341 872.75C469.341 875.978 468.236 878.494 466.046 880.47L468.726 883.44C471.81 880.656 473.341 877.036 473.341 872.75H469.341ZM466.053 880.464C463.835 882.446 460.996 883.49 457.376 883.49V887.49C461.83 887.49 465.664 886.177 468.719 883.446L466.053 880.464ZM447.349 882.309C450.091 884.695 453.481 885.845 457.376 885.845V881.845C454.318 881.845 451.898 880.965 449.974 879.291L447.349 882.309ZM457.376 885.845C461.271 885.845 464.661 884.695 467.404 882.309L464.779 879.291C462.855 880.965 460.434 881.845 457.376 881.845V885.845ZM467.413 882.301C470.209 879.841 471.591 876.595 471.591 872.75H467.591C467.591 875.532 466.641 877.652 464.77 879.299L467.413 882.301ZM471.591 872.75C471.591 868.886 470.211 865.634 467.404 863.191L464.779 866.209C466.638 867.826 467.591 869.94 467.591 872.75H471.591ZM467.413 863.199C464.67 860.785 461.277 859.62 457.376 859.62V863.62C460.428 863.62 462.846 864.508 464.77 866.201L467.413 863.199ZM457.376 859.62C453.475 859.62 450.082 860.785 447.34 863.199L449.983 866.201C451.907 864.508 454.324 863.62 457.376 863.62V859.62ZM447.349 863.191C444.541 865.634 443.161 868.886 443.161 872.75H447.161C447.161 869.94 448.115 867.826 449.974 866.209L447.349 863.191ZM443.161 872.75C443.161 876.595 444.544 879.841 447.34 882.301L449.983 879.299C448.112 877.652 447.161 875.532 447.161 872.75H443.161Z" fill="#BE1313" mask="url(#path-46-outside-2_26_74)"/>
<path d="M311.89 882.83L309.893 882.717L309.817 884.07L311.045 884.643L311.89 882.83ZM311.995 880.975L312.921 879.202L310.173 877.768L309.998 880.862L311.995 880.975ZM330.825 882.41L331.812 884.149L330.825 882.41ZM332.26 875.97L333.58 874.468V874.468L332.26 875.97ZM329.25 874.465L328.696 876.387L328.717 876.393L328.739 876.399L329.25 874.465ZM325.19 873.59L324.851 875.561L324.866 875.564L324.881 875.566L325.19 873.59ZM320.71 872.785L320.341 874.751H320.341L320.71 872.785ZM316.615 871.735L315.929 873.614L315.95 873.621L315.972 873.629L316.615 871.735ZM313.64 869.81L312.147 871.141L312.156 871.151L312.166 871.161L313.64 869.81ZM315.67 861.83L316.648 863.575L316.655 863.571L316.662 863.566L315.67 861.83ZM333.03 862.04H335.03V860.772L333.883 860.231L333.03 862.04ZM333.03 863.86L332.053 865.605L335.03 867.272V863.86H333.03ZM328.655 862.25L328.182 864.193L328.188 864.195L328.655 862.25ZM323.405 861.62L323.386 863.62L323.396 863.62H323.405V861.62ZM316.965 862.95L316.071 861.161L316.061 861.166L316.965 862.95ZM315.425 869.075L314.105 870.577L314.118 870.589L314.131 870.6L315.425 869.075ZM318.4 870.545L317.88 872.476L317.889 872.479L318.4 870.545ZM322.46 871.42L322.116 873.39L322.134 873.393L322.151 873.396L322.46 871.42ZM326.94 872.225L326.542 874.185L326.557 874.188L326.571 874.191L326.94 872.225ZM331 873.31L330.314 875.189L330.335 875.196L330.357 875.204L331 873.31ZM332.085 883.53L331.011 881.843L331.003 881.848L332.085 883.53ZM324 883.49C320.017 883.49 316.269 882.665 312.735 881.017L311.045 884.643C315.118 886.542 319.443 887.49 324 887.49V883.49ZM313.887 882.943L313.992 881.088L309.998 880.862L309.893 882.717L313.887 882.943ZM311.069 882.748C315.076 884.839 319.42 885.88 324.07 885.88V881.88C320.04 881.88 316.334 880.984 312.921 879.202L311.069 882.748ZM324.07 885.88C327.062 885.88 329.688 885.355 331.812 884.149L329.838 880.671C328.508 881.425 326.632 881.88 324.07 881.88V885.88ZM331.812 884.149C333.994 882.911 335.415 881.032 335.415 878.525H331.415C331.415 879.238 331.11 879.949 329.838 880.671L331.812 884.149ZM335.415 878.525C335.415 876.924 334.783 875.525 333.58 874.468L330.94 877.472C331.277 877.769 331.415 878.073 331.415 878.525H335.415ZM333.58 874.468C332.527 873.542 331.224 872.918 329.761 872.531L328.739 876.399C329.749 876.665 330.453 877.045 330.94 877.472L333.58 874.468ZM329.804 872.543C328.497 872.166 327.059 871.858 325.499 871.614L324.881 875.566C326.307 875.789 327.577 876.064 328.696 876.387L329.804 872.543ZM325.529 871.619C324.045 871.364 322.562 871.097 321.079 870.819L320.341 874.751C321.845 875.033 323.348 875.303 324.851 875.561L325.529 871.619ZM321.079 870.819C319.664 870.554 318.392 870.226 317.258 869.841L315.972 873.629C317.311 874.084 318.77 874.456 320.341 874.751L321.079 870.819ZM317.301 869.856C316.349 869.508 315.64 869.032 315.114 868.459L312.166 871.161C313.18 872.268 314.455 873.075 315.929 873.614L317.301 869.856ZM315.133 868.479C314.72 868.016 314.485 867.441 314.485 866.625H310.485C310.485 868.329 311.02 869.878 312.147 871.141L315.133 868.479ZM314.485 866.625C314.485 865.508 314.997 864.5 316.648 863.575L314.692 860.085C312.097 861.54 310.485 863.729 310.485 866.625H314.485ZM316.662 863.566C318.419 862.563 320.637 862.01 323.405 862.01V858.01C320.106 858.01 317.168 858.671 314.678 860.094L316.662 863.566ZM323.405 862.01C326.692 862.01 329.604 862.636 332.177 863.849L333.883 860.231C330.716 858.738 327.212 858.01 323.405 858.01V862.01ZM331.03 862.04V863.86H335.03V862.04H331.03ZM334.007 862.115C332.636 861.347 330.993 860.754 329.122 860.305L328.188 864.195C329.817 864.586 331.091 865.066 332.053 865.605L334.007 862.115ZM329.128 860.307C327.247 859.849 325.338 859.62 323.405 859.62V863.62C325.019 863.62 326.61 863.811 328.182 864.193L329.128 860.307ZM323.424 859.62C320.701 859.594 318.229 860.082 316.071 861.161L317.859 864.739C319.341 863.998 321.162 863.599 323.386 863.62L323.424 859.62ZM316.061 861.166C313.865 862.278 312.27 864.045 312.27 866.555H316.27C316.27 866.079 316.472 865.442 317.869 864.734L316.061 861.166ZM312.27 866.555C312.27 868.148 312.913 869.53 314.105 870.577L316.745 867.573C316.397 867.266 316.27 866.969 316.27 866.555H312.27ZM314.131 870.6C315.174 871.485 316.45 872.091 317.88 872.476L318.92 868.614C317.924 868.346 317.216 867.972 316.719 867.55L314.131 870.6ZM317.889 872.479C319.189 872.822 320.599 873.125 322.116 873.39L322.804 869.45C321.381 869.201 320.084 868.921 318.911 868.611L317.889 872.479ZM322.151 873.396C323.614 873.625 325.078 873.888 326.542 874.185L327.338 870.265C325.815 869.956 324.292 869.682 322.769 869.444L322.151 873.396ZM326.571 874.191C327.975 874.454 329.22 874.789 330.314 875.189L331.686 871.431C330.354 870.944 328.892 870.556 327.309 870.259L326.571 874.191ZM330.357 875.204C331.309 875.527 332.006 875.992 332.517 876.566L335.503 873.904C334.474 872.751 333.164 871.933 331.643 871.416L330.357 875.204ZM332.517 876.566C332.93 877.029 333.165 877.604 333.165 878.42H337.165C337.165 876.716 336.63 875.167 335.503 873.904L332.517 876.566ZM333.165 878.42C333.165 879.718 332.595 880.835 331.011 881.843L333.159 885.217C335.682 883.612 337.165 881.322 337.165 878.42H333.165ZM331.003 881.848C329.399 882.881 327.121 883.49 324 883.49V887.49C327.599 887.49 330.711 886.793 333.167 885.212L331.003 881.848ZM350.13 885L348.157 884.671L347.769 887H350.13V885ZM350.34 862.11H352.34V860.11H350.34V862.11ZM339.035 862.285L337.117 861.721L336.204 864.822L339.387 864.254L339.035 862.285ZM339.56 860.5V858.5H338.064L337.642 859.936L339.56 860.5ZM362.835 860.5L364.754 859.936L364.332 858.5H362.835V860.5ZM363.36 862.285L363.009 864.254L366.191 864.822L365.279 861.721L363.36 862.285ZM352.055 862.11V860.11H350.055V862.11H352.055ZM352.265 885V887H354.758L354.218 884.566L352.265 885ZM352.103 885.329C352.265 884.354 352.34 883.272 352.34 882.095H348.34C348.34 883.111 348.275 883.966 348.157 884.671L352.103 885.329ZM352.34 882.095V862.11H348.34V882.095H352.34ZM350.34 860.11H341.905V864.11H350.34V860.11ZM341.905 860.11C340.612 860.11 339.514 860.168 338.684 860.316L339.387 864.254C339.863 864.169 340.678 864.11 341.905 864.11V860.11ZM340.954 862.849L341.479 861.064L337.642 859.936L337.117 861.721L340.954 862.849ZM339.56 862.5H362.835V858.5H339.56V862.5ZM360.917 861.064L361.442 862.849L365.279 861.721L364.754 859.936L360.917 861.064ZM363.712 860.316C362.88 860.168 361.769 860.11 360.455 860.11V864.11C361.708 864.11 362.534 864.169 363.009 864.254L363.712 860.316ZM360.455 860.11H352.055V864.11H360.455V860.11ZM350.055 862.11V882.095H354.055V862.11H350.055ZM350.055 882.095C350.055 883.431 350.123 884.581 350.313 885.434L354.218 884.566C354.127 884.159 354.055 883.372 354.055 882.095H350.055ZM352.265 883H350.13V887H352.265V883ZM389.814 882.55L391.146 884.041L391.147 884.04L389.814 882.55ZM372.489 882.55L371.147 884.033L371.156 884.041L371.164 884.048L372.489 882.55ZM368.989 860.5V858.5H366.452L367.044 860.967L368.989 860.5ZM371.124 860.5L373.093 860.852L373.512 858.5H371.124V860.5ZM373.784 881.395L372.465 882.899L372.475 882.908L372.485 882.916L373.784 881.395ZM388.554 881.395L389.861 882.908L389.863 882.907L388.554 881.395ZM391.214 860.5V858.5H388.83L389.244 860.848L391.214 860.5ZM393.349 860.5L395.318 860.848L395.733 858.5H393.349V860.5ZM388.481 881.059C386.729 882.624 384.357 883.49 381.169 883.49V887.49C385.12 887.49 388.512 886.396 391.146 884.041L388.481 881.059ZM381.169 883.49C377.981 883.49 375.592 882.625 373.813 881.052L371.164 884.048C373.818 886.395 377.216 887.49 381.169 887.49V883.49ZM373.83 881.067C372.099 879.502 371.199 877.449 371.199 874.71H367.199C367.199 878.458 368.491 881.632 371.147 884.033L373.83 881.067ZM371.199 874.71V863.405H367.199V874.71H371.199ZM371.199 863.405C371.199 862.04 371.133 860.866 370.933 860.033L367.044 860.967C367.124 861.301 367.199 862.063 367.199 863.405H371.199ZM368.989 862.5H371.124V858.5H368.989V862.5ZM369.155 860.148C369.006 860.98 368.949 862.091 368.949 863.405H372.949C372.949 862.152 373.008 861.326 373.093 860.852L369.155 860.148ZM368.949 863.405V874.675H372.949V863.405H368.949ZM368.949 874.675C368.949 877.995 370.086 880.813 372.465 882.899L375.102 879.891C373.702 878.663 372.949 877.002 372.949 874.675H368.949ZM372.485 882.916C374.829 884.917 377.781 885.845 381.169 885.845V881.845C378.537 881.845 376.565 881.14 375.082 879.874L372.485 882.916ZM381.169 885.845C384.575 885.845 387.534 884.919 389.861 882.908L387.246 879.882C385.793 881.137 383.829 881.845 381.169 881.845V885.845ZM389.863 882.907C392.269 880.824 393.424 878.004 393.424 874.675H389.424C389.424 876.993 388.665 878.653 387.245 879.883L389.863 882.907ZM393.424 874.675V863.405H389.424V874.675H393.424ZM393.424 863.405C393.424 862.189 393.35 861.097 393.183 860.152L389.244 860.848C389.357 861.49 389.424 862.334 389.424 863.405H393.424ZM391.214 862.5H393.349V858.5H391.214V862.5ZM391.379 860.152C391.212 861.097 391.139 862.189 391.139 863.405H395.139C395.139 862.334 395.205 861.49 395.318 860.848L391.379 860.152ZM391.139 863.405V874.71H395.139V863.405H391.139ZM391.139 874.71C391.139 877.442 390.232 879.492 388.48 881.06L391.147 884.04C393.829 881.641 395.139 878.465 395.139 874.71H391.139ZM401.661 885L399.712 884.55L399.147 887H401.661V885ZM401.661 860.5V858.5H399.124L399.716 860.967L401.661 860.5ZM423.116 863.895L421.779 865.383V865.383L423.116 863.895ZM423.116 881.605L421.779 880.117L423.116 881.605ZM403.586 883.39H401.586V885.39H403.586V883.39ZM421.751 880.485L420.443 878.972L420.435 878.979L421.751 880.485ZM421.751 865.015L420.426 866.513L420.434 866.521L420.443 866.528L421.751 865.015ZM403.586 862.075V860.075H401.586V862.075H403.586ZM403.609 885.45C403.804 884.607 403.871 883.446 403.871 882.095H399.871C399.871 883.404 399.797 884.179 399.712 884.55L403.609 885.45ZM403.871 882.095V863.405H399.871V882.095H403.871ZM403.871 863.405C403.871 862.04 403.805 860.866 403.605 860.033L399.716 860.967C399.796 861.301 399.871 862.063 399.871 863.405H403.871ZM401.661 862.5H413.386V858.5H401.661V862.5ZM413.386 862.5C416.948 862.5 419.688 863.505 421.779 865.383L424.452 862.407C421.503 859.759 417.756 858.5 413.386 858.5V862.5ZM421.779 865.383C423.843 867.236 424.896 869.63 424.896 872.75H428.896C428.896 868.59 427.429 865.08 424.452 862.407L421.779 865.383ZM424.896 872.75C424.896 875.87 423.843 878.264 421.779 880.117L424.452 883.093C427.429 880.42 428.896 876.91 428.896 872.75H424.896ZM421.779 880.117C419.688 881.995 416.948 883 413.386 883V887C417.756 887 421.503 885.741 424.452 883.093L421.779 880.117ZM413.386 883H401.661V887H413.386V883ZM403.586 885.39H413.316V881.39H403.586V885.39ZM413.316 885.39C417.125 885.39 420.429 884.296 423.067 881.991L420.435 878.979C418.639 880.548 416.319 881.39 413.316 881.39V885.39ZM423.059 881.998C425.78 879.645 427.111 876.494 427.111 872.75H423.111C423.111 875.446 422.202 877.451 420.443 878.972L423.059 881.998ZM427.111 872.75C427.111 869.006 425.78 865.855 423.059 863.502L420.443 866.528C422.202 868.049 423.111 870.054 423.111 872.75H427.111ZM423.075 863.517C420.438 861.185 417.132 860.075 413.316 860.075V864.075C416.313 864.075 418.63 864.925 420.426 866.513L423.075 863.517ZM413.316 860.075H403.586V864.075H413.316V860.075ZM401.586 862.075V883.39H405.586V862.075H401.586ZM434.088 885L432.119 884.648L431.699 887H434.088V885ZM434.088 860.5V858.5H431.699L432.119 860.852L434.088 860.5ZM436.223 860.5L438.167 860.967L438.759 858.5H436.223V860.5ZM436.223 885V887H438.737L438.171 884.55L436.223 885ZM436.056 885.352C436.205 884.52 436.263 883.409 436.263 882.095H432.263C432.263 883.348 432.204 884.174 432.119 884.648L436.056 885.352ZM436.263 882.095V863.405H432.263V882.095H436.263ZM436.263 863.405C436.263 862.091 436.205 860.98 436.056 860.148L432.119 860.852C432.204 861.326 432.263 862.152 432.263 863.405H436.263ZM434.088 862.5H436.223V858.5H434.088V862.5ZM434.278 860.033C434.078 860.866 434.013 862.04 434.013 863.405H438.013C438.013 862.063 438.087 861.301 438.167 860.967L434.278 860.033ZM434.013 863.405V882.095H438.013V863.405H434.013ZM434.013 882.095C434.013 883.446 434.079 884.607 434.274 885.45L438.171 884.55C438.086 884.179 438.013 883.404 438.013 882.095H434.013ZM436.223 883H434.088V887H436.223V883ZM447.331 881.955L445.985 883.434L445.991 883.44L445.998 883.446L447.331 881.955ZM447.331 863.58L448.671 865.065L448.671 865.065L447.331 863.58ZM467.386 863.58L466.046 865.065L466.053 865.071L467.386 863.58ZM467.386 881.955L468.719 883.446L468.726 883.44L467.386 881.955ZM448.661 880.8L447.34 882.301L447.349 882.309L448.661 880.8ZM466.091 880.8L467.404 882.309L467.413 882.301L466.091 880.8ZM466.091 864.7L464.77 866.201L464.779 866.209L466.091 864.7ZM448.661 864.7L449.974 866.209L449.983 866.201L448.661 864.7ZM457.376 883.49C453.73 883.49 450.88 882.444 448.664 880.464L445.998 883.446C449.056 886.179 452.902 887.49 457.376 887.49V883.49ZM448.678 880.476C446.509 878.501 445.411 875.984 445.411 872.75H441.411C441.411 877.03 442.927 880.649 445.985 883.434L448.678 880.476ZM445.411 872.75C445.411 869.517 446.509 867.015 448.671 865.065L445.992 862.095C442.927 864.859 441.411 868.47 441.411 872.75H445.411ZM448.671 865.065C450.888 863.064 453.736 862.01 457.376 862.01V858.01C452.897 858.01 449.048 859.336 445.991 862.095L448.671 865.065ZM457.376 862.01C460.99 862.01 463.827 863.062 466.046 865.065L468.726 862.095C465.672 859.338 461.836 858.01 457.376 858.01V862.01ZM466.053 865.071C468.237 867.022 469.341 869.523 469.341 872.75H473.341C473.341 868.464 471.809 864.851 468.719 862.089L466.053 865.071ZM469.341 872.75C469.341 875.978 468.236 878.494 466.046 880.47L468.726 883.44C471.81 880.656 473.341 877.036 473.341 872.75H469.341ZM466.053 880.464C463.835 882.446 460.996 883.49 457.376 883.49V887.49C461.83 887.49 465.664 886.177 468.719 883.446L466.053 880.464ZM447.349 882.309C450.091 884.695 453.481 885.845 457.376 885.845V881.845C454.318 881.845 451.898 880.965 449.974 879.291L447.349 882.309ZM457.376 885.845C461.271 885.845 464.661 884.695 467.404 882.309L464.779 879.291C462.855 880.965 460.434 881.845 457.376 881.845V885.845ZM467.413 882.301C470.209 879.841 471.591 876.595 471.591 872.75H467.591C467.591 875.532 466.641 877.652 464.77 879.299L467.413 882.301ZM471.591 872.75C471.591 868.886 470.211 865.634 467.404 863.191L464.779 866.209C466.638 867.826 467.591 869.94 467.591 872.75H471.591ZM467.413 863.199C464.67 860.785 461.277 859.62 457.376 859.62V863.62C460.428 863.62 462.846 864.508 464.77 866.201L467.413 863.199ZM457.376 859.62C453.475 859.62 450.082 860.785 447.34 863.199L449.983 866.201C451.907 864.508 454.324 863.62 457.376 863.62V859.62ZM447.349 863.191C444.541 865.634 443.161 868.886 443.161 872.75H447.161C447.161 869.94 448.115 867.826 449.974 866.209L447.349 863.191ZM443.161 872.75C443.161 876.595 444.544 879.841 447.34 882.301L449.983 879.299C448.112 877.652 447.161 875.532 447.161 872.75H443.161Z" fill="#BE1313" mask="url(#path-46-outside-2_26_74)"/>
</svg>
