<svg version="1.1" id="Layer_1" xmlns="http://www.w3.org/2000/svg" xmlns:xlink="http://www.w3.org/1999/xlink" x="0px" y="0px"
	 width="100%" viewBox="0 0 304 166" enable-background="new 0 0 304 166" xml:space="preserve">
<path fill="#FEFEFE" opacity="1.000000" stroke="none" 
	d="
M230.000000,167.000000 
	C153.333344,167.000000 77.166687,167.000000 1.000021,167.000000 
	C1.000014,111.666679 1.000014,56.333366 1.000007,1.000035 
	C102.333305,1.000024 203.666611,1.000024 304.999939,1.000012 
	C304.999939,56.333298 304.999939,111.666595 304.999969,166.999939 
	C280.166656,167.000000 255.333328,167.000000 230.000000,167.000000 
M60.295845,24.972010 
	C58.863964,25.686558 57.432083,26.401108 55.344982,27.133247 
	C54.458244,27.716112 53.571503,28.298979 52.007603,28.962881 
	C24.285704,45.667953 13.325445,77.375473 25.001707,107.089661 
	C36.013771,135.113556 66.620529,151.276764 96.820786,145.125443 
	C107.675430,142.914505 116.679214,137.178528 125.630333,131.048996 
	C136.159760,123.838638 147.729126,118.489265 160.676117,122.319221 
	C168.626556,124.671104 176.476959,128.540588 183.300552,133.273712 
	C196.997971,142.774780 211.670883,147.763351 228.257309,146.032364 
	C249.832642,143.780716 266.354279,133.399506 277.700348,114.004402 
	C278.103699,113.003311 278.507019,112.002220 279.338470,110.456032 
	C279.900726,108.973740 280.462982,107.491440 281.435394,105.607483 
	C281.578094,105.072098 281.720764,104.536705 282.203430,103.378532 
	C282.476501,102.255096 282.749603,101.131660 283.369812,99.584778 
	C283.485687,99.056778 283.601562,98.528770 284.011200,97.299850 
	C284.036987,96.544212 284.062775,95.788567 284.487122,94.525642 
	C284.590576,93.684204 284.694000,92.842766 285.050812,91.233818 
	C285.046234,90.160385 285.041687,89.086945 285.322083,87.357979 
	C285.240234,85.227974 285.158386,83.097961 285.245087,80.148232 
	C285.110657,78.765091 284.976196,77.381943 284.943665,75.305115 
	C284.641388,74.198280 284.339142,73.091438 284.162567,71.315010 
	C284.054626,70.876282 283.946686,70.437561 283.928650,69.426483 
	C283.672455,68.928291 283.416290,68.430107 283.219940,67.272255 
	C283.103882,66.847801 282.987854,66.423340 282.918152,65.312531 
	C282.273956,63.876949 281.629761,62.441364 280.995483,60.274345 
	C273.916382,43.496040 262.304565,31.341244 244.500748,24.534355 
	C243.000931,24.076666 241.501099,23.618977 239.377060,22.927336 
	C238.937042,22.901861 238.497040,22.876389 237.673218,22.418930 
	C237.115906,22.331715 236.558594,22.244497 235.364273,21.908092 
	C234.914856,21.924046 234.465439,21.939999 233.400497,21.629915 
	C232.267441,21.467329 231.134369,21.304741 229.193542,20.918280 
	C227.802963,20.925697 226.412384,20.933113 224.432510,20.678185 
	C222.945831,20.763351 221.459167,20.848520 219.133286,20.737467 
	C217.421814,20.880255 215.710358,21.023043 213.358398,21.072004 
	C212.559052,21.349638 211.759689,21.627272 210.298309,21.795725 
	C209.865204,21.901245 209.432098,22.006763 208.360779,22.015892 
	C207.572342,22.340235 206.783890,22.664577 205.294006,22.903728 
	C204.195724,23.295477 203.097458,23.687225 201.279785,24.045601 
	C199.383453,24.983856 197.487122,25.922112 194.905396,26.892437 
	C191.111984,29.229481 187.466858,31.864582 183.494049,33.841019 
	C175.424072,37.855762 167.176971,41.514492 158.376251,45.336380 
	C157.580643,45.548866 156.785019,45.761353 155.161819,45.866222 
	C153.775711,45.907505 152.389603,45.948784 150.333511,45.717510 
	C148.888855,45.535931 147.444214,45.354347 145.353943,44.973965 
	C144.907196,44.969692 144.460464,44.965416 143.470596,44.569366 
	C141.980133,44.114483 140.489670,43.659599 138.603622,42.919418 
	C138.298920,42.766834 137.981125,42.731216 137.194031,42.249573 
	C135.462708,41.515839 133.731400,40.782101 131.475220,39.599903 
	C125.750114,36.029099 120.025017,32.458298 113.949295,28.337219 
	C112.966225,27.924137 111.983154,27.511055 110.737579,26.836702 
	C110.737579,26.836702 110.368057,26.861635 110.104515,26.337345 
	C109.739700,26.251213 109.374893,26.165081 108.450920,25.739248 
	C107.635513,25.488325 106.820114,25.237402 105.465569,24.497040 
	C100.976936,23.385601 96.488312,22.274162 91.191071,20.939192 
	C89.798141,20.947966 88.405205,20.956739 86.346710,20.713209 
	C84.229805,20.805510 82.112900,20.897808 79.200867,20.845684 
	C78.134010,20.943426 77.067146,21.041170 75.177071,21.045712 
	C70.448647,22.357000 65.720230,23.668289 60.295845,24.972010 
z"/>
<path fill="#0A0A0C" opacity="1.000000" stroke="none" 
	d="
M277.120575,114.321564 
	C266.354279,133.399506 249.832642,143.780716 228.257309,146.032364 
	C211.670883,147.763351 196.997971,142.774780 183.300552,133.273712 
	C176.476959,128.540588 168.626556,124.671104 160.676117,122.319221 
	C147.729126,118.489265 136.159760,123.838638 125.630333,131.048996 
	C116.679214,137.178528 107.675430,142.914505 96.820786,145.125443 
	C66.620529,151.276764 36.013771,135.113556 25.001707,107.089661 
	C13.325445,77.375473 24.285704,45.667953 52.715393,28.949821 
	C54.282188,28.329727 55.141197,27.722692 56.000202,27.115658 
	C57.432083,26.401108 58.863964,25.686558 60.863281,25.233355 
	C65.330490,24.662855 69.250862,23.913221 73.116455,22.944897 
	C74.162872,22.682772 75.043541,21.758997 76.000290,21.138912 
	C77.067146,21.041170 78.134010,20.943426 79.856079,21.199417 
	C82.678284,21.357269 84.845284,21.161390 87.012276,20.965511 
	C88.405205,20.956739 89.798141,20.947966 91.683960,21.410225 
	C96.786133,22.916332 101.395416,23.951405 106.004707,24.986477 
	C106.820114,25.237402 107.635513,25.488325 108.898827,26.126062 
	C109.687172,26.629129 110.027618,26.745382 110.368057,26.861635 
	C110.368057,26.861635 110.737579,26.836702 110.942886,27.322155 
	C112.198769,28.167570 113.249344,28.527534 114.299911,28.887497 
	C120.025017,32.458298 125.750114,36.029099 131.808121,40.193256 
	C133.977417,41.461929 135.813828,42.137249 137.650223,42.812569 
	C137.981125,42.731216 138.298920,42.766834 138.867462,43.383404 
	C140.758789,44.218639 142.386246,44.589893 144.013718,44.961143 
	C144.460464,44.965416 144.907196,44.969692 145.754730,45.415295 
	C147.771515,45.901104 149.387497,45.945587 151.003494,45.990067 
	C152.389603,45.948784 153.775711,45.907505 155.755524,46.170227 
	C157.233780,46.089470 158.118332,45.704708 159.002884,45.319954 
	C167.176971,41.514492 175.424072,37.855762 183.494049,33.841019 
	C187.466858,31.864582 191.111984,29.229481 195.649811,26.908873 
	C198.262558,25.976530 200.130859,25.027750 201.999176,24.078972 
	C203.097458,23.687225 204.195724,23.295477 205.836639,23.200333 
	C207.252518,23.035389 208.125748,22.573839 208.998993,22.112286 
	C209.432098,22.006763 209.865204,21.901245 210.812180,22.114176 
	C212.216995,22.010361 213.107941,21.588095 213.998886,21.165829 
	C215.710358,21.023043 217.421814,20.880255 219.779907,21.116440 
	C221.958298,21.310453 223.490051,21.125492 225.021805,20.940529 
	C226.412384,20.933113 227.802963,20.925697 229.664200,21.363117 
	C231.428574,21.857286 232.722305,21.906620 234.016022,21.955952 
	C234.465439,21.939999 234.914856,21.924046 235.725769,22.321507 
	C236.743835,22.773584 237.400436,22.812248 238.057022,22.850914 
	C238.497040,22.876389 238.937042,22.901861 239.750961,23.368307 
	C241.751160,24.202658 243.377457,24.596037 245.003754,24.989418 
	C262.304565,31.341244 273.916382,43.496040 280.746094,60.843323 
	C281.288422,62.941158 282.080109,64.470016 282.871826,65.998878 
	C282.987854,66.423340 283.103882,66.847801 282.944031,67.751656 
	C283.058319,68.820312 283.448547,69.409576 283.838745,69.998840 
	C283.946686,70.437561 284.054626,70.876282 283.832367,71.860672 
	C283.948700,73.603828 284.395233,74.801315 284.841736,75.998795 
	C284.976196,77.381943 285.110657,78.765091 284.867920,80.809120 
	C284.672852,83.651176 284.854980,85.832344 285.037109,88.013512 
	C285.041687,89.086945 285.046234,90.160385 284.610413,91.678024 
	C284.142853,93.092468 284.115723,94.062698 284.088562,95.032928 
	C284.062775,95.788567 284.036987,96.544212 283.591858,97.697571 
	C283.122589,98.732933 283.072632,99.370583 283.022705,100.008224 
	C282.749603,101.131660 282.476501,102.255096 281.749451,103.727615 
	C281.205414,104.720848 281.115326,105.364998 281.025269,106.009140 
	C280.462982,107.491440 279.900726,108.973740 278.767273,110.802734 
	C277.837555,112.206802 277.479065,113.264183 277.120575,114.321564 
M204.158035,89.704552 
	C200.562866,85.558952 196.624405,81.656685 193.466293,77.201286 
	C190.116318,72.475243 185.954269,72.358330 180.513138,73.308372 
	C185.058289,78.470703 189.211487,83.176430 193.351776,87.893501 
	C197.631577,92.769524 201.771255,97.778908 206.257614,102.456200 
	C207.437592,103.686394 209.784882,104.616829 211.390137,104.366104 
	C212.733459,104.156281 214.752960,102.053383 214.795151,100.735046 
	C215.091293,91.484833 214.952087,82.220695 214.952087,73.033714 
	C212.402573,73.033714 210.441284,73.033714 207.853333,73.033714 
	C207.853333,78.784454 207.853333,84.395828 207.076645,89.998802 
	C206.299500,89.990669 205.522339,89.982536 204.158035,89.704552 
M226.984451,72.734657 
	C225.067505,72.734657 223.150574,72.734657 221.019516,72.734657 
	C221.019516,79.546837 220.818268,85.856850 221.078003,92.147820 
	C221.321381,98.042389 226.232880,103.477798 232.072403,103.888824 
	C238.466583,104.338890 244.916916,103.991241 251.496170,103.991241 
	C251.672394,101.652382 251.818085,99.718910 251.975586,97.628448 
	C254.101151,97.484589 256.029755,97.354057 258.231903,97.205017 
	C258.231903,90.327675 258.519958,83.706398 258.143005,77.123192 
	C257.827606,71.615379 253.006805,66.580925 247.527374,66.191734 
	C241.123672,65.736900 234.662918,66.085442 228.053391,66.085442 
	C227.923874,68.608566 227.806519,70.894554 227.767975,73.101799 
	C227.767975,73.101799 227.851730,73.028328 226.984451,72.734657 
M97.947998,86.493835 
	C93.257462,78.296211 88.566933,70.098587 83.609703,61.434872 
	C75.073746,76.365578 66.824570,90.794640 58.493492,105.366974 
	C75.624161,105.366974 91.949280,105.366974 108.795723,105.366974 
	C105.082748,98.913582 101.694885,93.025253 97.947998,86.493835 
z"/>
<path fill="#0A0A0B" opacity="1.000000" stroke="none" 
	d="
M75.588684,21.092312 
	C75.043541,21.758997 74.162872,22.682772 73.116455,22.944897 
	C69.250862,23.913221 65.330490,24.662855 61.211258,25.237139 
	C65.720230,23.668289 70.448647,22.357000 75.588684,21.092312 
z"/>
<path fill="#0A0A0B" opacity="1.000000" stroke="none" 
	d="
M105.735138,24.741758 
	C101.395416,23.951405 96.786133,22.916332 92.088257,21.521992 
	C96.488312,22.274162 100.976936,23.385601 105.735138,24.741758 
z"/>
<path fill="#0A0A0B" opacity="1.000000" stroke="none" 
	d="
M86.679489,20.839359 
	C84.845284,21.161390 82.678284,21.357269 80.253647,21.271629 
	C82.112900,20.897808 84.229805,20.805510 86.679489,20.839359 
z"/>
<path fill="#080809" opacity="1.000000" stroke="none" 
	d="
M285.179596,87.685745 
	C284.854980,85.832344 284.672852,83.651176 284.783630,81.218979 
	C285.158386,83.097961 285.240234,85.227974 285.179596,87.685745 
z"/>
<path fill="#080809" opacity="1.000000" stroke="none" 
	d="
M224.727158,20.809357 
	C223.490051,21.125492 221.958298,21.310453 220.199524,21.214550 
	C221.459167,20.848520 222.945831,20.763351 224.727158,20.809357 
z"/>
<path fill="#0A0A0B" opacity="1.000000" stroke="none" 
	d="
M150.668503,45.853790 
	C149.387497,45.945587 147.771515,45.901104 146.077545,45.514694 
	C147.444214,45.354347 148.888855,45.535931 150.668503,45.853790 
z"/>
<path fill="#080809" opacity="1.000000" stroke="none" 
	d="
M201.639481,24.062286 
	C200.130859,25.027750 198.262558,25.976530 195.992523,26.892838 
	C197.487122,25.922112 199.383453,24.983856 201.639481,24.062286 
z"/>
<path fill="#0A0A0B" opacity="1.000000" stroke="none" 
	d="
M137.422119,42.531071 
	C135.813828,42.137249 133.977417,41.461929 132.070557,40.417488 
	C133.731400,40.782101 135.462708,41.515839 137.422119,42.531071 
z"/>
<path fill="#0A0A0B" opacity="1.000000" stroke="none" 
	d="
M143.742157,44.765255 
	C142.386246,44.589893 140.758789,44.218639 139.065262,43.526054 
	C140.489670,43.659599 141.980133,44.114483 143.742157,44.765255 
z"/>
<path fill="#080809" opacity="1.000000" stroke="none" 
	d="
M282.894989,65.655701 
	C282.080109,64.470016 281.288422,62.941158 280.741150,61.209038 
	C281.629761,62.441364 282.273956,63.876949 282.894989,65.655701 
z"/>
<path fill="#080809" opacity="1.000000" stroke="none" 
	d="
M244.752258,24.761887 
	C243.377457,24.596037 241.751160,24.202658 240.063080,23.485283 
	C241.501099,23.618977 243.000931,24.076666 244.752258,24.761887 
z"/>
<path fill="#080809" opacity="1.000000" stroke="none" 
	d="
M284.892700,75.651955 
	C284.395233,74.801315 283.948700,73.603828 283.769531,72.195473 
	C284.339142,73.091438 284.641388,74.198280 284.892700,75.651955 
z"/>
<path fill="#080809" opacity="1.000000" stroke="none" 
	d="
M233.708252,21.792934 
	C232.722305,21.906620 231.428574,21.857286 230.068085,21.475054 
	C231.134369,21.304741 232.267441,21.467329 233.708252,21.792934 
z"/>
<path fill="#0A0A0B" opacity="1.000000" stroke="none" 
	d="
M158.689575,45.328163 
	C158.118332,45.704708 157.233780,46.089470 156.169312,46.224033 
	C156.785019,45.761353 157.580643,45.548866 158.689575,45.328163 
z"/>
<path fill="#080809" opacity="1.000000" stroke="none" 
	d="
M284.287842,94.779282 
	C284.115723,94.062698 284.142853,93.092468 284.483704,92.061783 
	C284.694000,92.842766 284.590576,93.684204 284.287842,94.779282 
z"/>
<path fill="#080809" opacity="1.000000" stroke="none" 
	d="
M208.679886,22.064091 
	C208.125748,22.573839 207.252518,23.035389 206.187363,23.242928 
	C206.783890,22.664577 207.572342,22.340235 208.679886,22.064091 
z"/>
<path fill="#080809" opacity="1.000000" stroke="none" 
	d="
M213.678650,21.118916 
	C213.107941,21.588095 212.216995,22.010361 211.143188,22.168766 
	C211.759689,21.627272 212.559052,21.349638 213.678650,21.118916 
z"/>
<path fill="#0A0A0B" opacity="1.000000" stroke="none" 
	d="
M55.672592,27.124454 
	C55.141197,27.722692 54.282188,28.329727 53.053970,28.909302 
	C53.571503,28.298979 54.458244,27.716112 55.672592,27.124454 
z"/>
<path fill="#080809" opacity="1.000000" stroke="none" 
	d="
M277.410461,114.162979 
	C277.479065,113.264183 277.837555,112.206802 278.553223,111.075287 
	C278.507019,112.002220 278.103699,113.003311 277.410461,114.162979 
z"/>
<path fill="#0A0A0B" opacity="1.000000" stroke="none" 
	d="
M114.124603,28.612358 
	C113.249344,28.527534 112.198769,28.167570 111.074142,27.452789 
	C111.983154,27.511055 112.966225,27.924137 114.124603,28.612358 
z"/>
<path fill="#080809" opacity="1.000000" stroke="none" 
	d="
M237.865112,22.634922 
	C237.400436,22.812248 236.743835,22.773584 236.044266,22.446100 
	C236.558594,22.244497 237.115906,22.331715 237.865112,22.634922 
z"/>
<path fill="#080809" opacity="1.000000" stroke="none" 
	d="
M283.883728,69.712662 
	C283.448547,69.409576 283.058319,68.820312 282.914124,68.081490 
	C283.416290,68.430107 283.672455,68.928291 283.883728,69.712662 
z"/>
<path fill="#080809" opacity="1.000000" stroke="none" 
	d="
M283.196228,99.796501 
	C283.072632,99.370583 283.122589,98.732933 283.445007,98.048027 
	C283.601562,98.528770 283.485687,99.056778 283.196228,99.796501 
z"/>
<path fill="#080809" opacity="1.000000" stroke="none" 
	d="
M281.230316,105.808319 
	C281.115326,105.364998 281.205414,104.720848 281.579468,104.039009 
	C281.720764,104.536705 281.578094,105.072098 281.230316,105.808319 
z"/>
<path fill="#0A0A0B" opacity="1.000000" stroke="none" 
	d="
M110.236282,26.599491 
	C110.027618,26.745382 109.687172,26.629129 109.178406,26.295914 
	C109.374893,26.165081 109.739700,26.251213 110.236282,26.599491 
z"/>
<path fill="#FAFAFA" opacity="1.000000" stroke="none" 
	d="
M98.127502,86.815384 
	C101.694885,93.025253 105.082748,98.913582 108.795723,105.366974 
	C91.949280,105.366974 75.624161,105.366974 58.493492,105.366974 
	C66.824570,90.794640 75.073746,76.365578 83.609703,61.434872 
	C88.566933,70.098587 93.257462,78.296211 98.127502,86.815384 
z"/>
<path fill="#F7F7F7" opacity="1.000000" stroke="none" 
	d="
M227.689163,73.180550 
	C227.806519,70.894554 227.923874,68.608566 228.053391,66.085442 
	C234.662918,66.085442 241.123672,65.736900 247.527374,66.191734 
	C253.006805,66.580925 257.827606,71.615379 258.143005,77.123192 
	C258.519958,83.706398 258.231903,90.327675 258.231903,97.205017 
	C256.029755,97.354057 254.101151,97.484589 251.975586,97.628448 
	C251.818085,99.718910 251.672394,101.652382 251.496170,103.991241 
	C244.916916,103.991241 238.466583,104.338890 232.072403,103.888824 
	C226.232880,103.477798 221.321381,98.042389 221.078003,92.147820 
	C220.818268,85.856850 221.019516,79.546837 221.019516,72.734657 
	C223.150574,72.734657 225.067505,72.734657 227.484055,73.335495 
	C227.983658,79.457687 227.983658,84.979027 227.983658,89.954063 
	C233.763626,84.402214 239.511765,78.880936 245.446365,73.180550 
	C239.412888,73.180550 233.551025,73.180550 227.689163,73.180550 
M251.334564,95.086357 
	C251.249329,90.392433 251.164093,85.698517 251.298950,80.277351 
	C250.420486,80.479965 249.542038,80.682579 248.063354,81.135948 
	C243.467209,85.850258 238.871048,90.564575 234.274887,95.278885 
	C234.630615,95.815208 234.986359,96.351524 235.342087,96.887848 
	C240.232269,96.887848 245.122452,96.887848 250.643311,96.977219 
	C250.788834,96.647141 250.934372,96.317055 251.334564,95.086357 
M233.148575,96.287720 
	C233.671814,96.464775 234.191666,96.656036 234.726654,96.784004 
	C234.759216,96.791794 234.911926,96.297333 235.008743,96.036568 
	C234.610016,95.921318 234.211273,95.806068 233.148575,96.287720 
z"/>
<path fill="#F9F9F9" opacity="1.000000" stroke="none" 
	d="
M207.853333,90.007195 
	C207.853333,84.395828 207.853333,78.784454 207.853333,73.033714 
	C210.441284,73.033714 212.402573,73.033714 214.952087,73.033714 
	C214.952087,82.220695 215.091293,91.484833 214.795151,100.735046 
	C214.752960,102.053383 212.733459,104.156281 211.390137,104.366104 
	C209.784882,104.616829 207.437592,103.686394 206.257614,102.456200 
	C201.771255,97.778908 197.631577,92.769524 193.351776,87.893501 
	C189.211487,83.176430 185.058289,78.470703 180.513138,73.308372 
	C185.954269,72.358330 190.116318,72.475243 193.466293,77.201286 
	C196.624405,81.656685 200.562866,85.558952 204.600159,90.172989 
	C205.886124,91.444145 206.729935,92.246857 207.853333,93.315521 
	C207.853333,91.874138 207.853333,90.940666 207.853333,90.007195 
z"/>
<path fill="#000000" opacity="1.000000" stroke="none" 
	d="
M207.464996,90.002998 
	C207.853333,90.940666 207.853333,91.874138 207.853333,93.315521 
	C206.729935,92.246857 205.886124,91.444145 204.893738,90.307922 
	C205.522339,89.982536 206.299500,89.990669 207.464996,90.002998 
z"/>
<path fill="#060606" opacity="1.000000" stroke="none" 
	d="
M227.728577,73.141174 
	C233.551025,73.180550 239.412888,73.180550 245.446365,73.180550 
	C239.511765,78.880936 233.763626,84.402214 227.983658,89.954063 
	C227.983658,84.979027 227.983658,79.457687 227.917694,73.482330 
	C227.851730,73.028328 227.767975,73.101799 227.728577,73.141174 
z"/>
<path fill="#08080A" opacity="1.000000" stroke="none" 
	d="
M251.078857,81.004593 
	C251.164093,85.698517 251.249329,90.392433 250.985443,95.630264 
	C250.345230,96.339363 250.137344,96.577255 250.012634,96.887848 
	C245.122452,96.887848 240.232269,96.887848 235.342087,96.887848 
	C234.986359,96.351524 234.630615,95.815208 234.274887,95.278885 
	C238.871048,90.564575 243.467209,85.850258 248.765427,81.041389 
	C250.004623,80.966080 250.541748,80.985336 251.078857,81.004593 
z"/>
<path fill="#000000" opacity="1.000000" stroke="none" 
	d="
M251.188904,80.640976 
	C250.541748,80.985336 250.004623,80.966080 249.065536,80.916016 
	C249.542038,80.682579 250.420486,80.479965 251.188904,80.640976 
z"/>
<path fill="#000000" opacity="1.000000" stroke="none" 
	d="
M233.480560,95.989265 
	C234.211273,95.806068 234.610016,95.921318 235.008743,96.036568 
	C234.911926,96.297333 234.759216,96.791794 234.726654,96.784004 
	C234.191666,96.656036 233.671814,96.464775 233.480560,95.989265 
z"/>
<path fill="#000000" opacity="1.000000" stroke="none" 
	d="
M250.327972,96.932533 
	C250.137344,96.577255 250.345230,96.339363 250.858109,96.080582 
	C250.934372,96.317055 250.788834,96.647141 250.327972,96.932533 
z"/>
</svg>