<svg version="1.1" id="Layer_1" xmlns="http://www.w3.org/2000/svg" xmlns:xlink="http://www.w3.org/1999/xlink" x="0px" y="0px"
	 width="100%" viewBox="0 0 2093 539" enable-background="new 0 0 2093 539" xml:space="preserve">
<path fill="#000000" opacity="1.000000" stroke="none" 
	d="
M2094.000000,353.000000 
	C2094.000000,415.285797 2094.000000,477.571625 2094.000000,540.000000 
	C1974.638672,540.000000 1855.277222,540.000000 1735.155518,539.626953 
	C1735.070923,538.841736 1735.708130,538.163025 1736.428467,538.058594 
	C1743.824463,536.986694 1751.268677,536.211548 1758.633423,534.964783 
	C1781.105103,531.160889 1802.032104,523.694092 1820.731201,510.116394 
	C1843.563232,493.537720 1854.366089,470.846527 1855.830811,443.375885 
	C1856.262573,435.276123 1855.399170,426.926422 1853.855713,418.937317 
	C1849.820923,398.051819 1837.802368,382.668610 1818.750732,373.467468 
	C1802.765015,365.746979 1785.473877,362.975037 1767.744995,362.995117 
	C1748.749634,363.016663 1729.743652,363.364044 1710.764038,362.819092 
	C1703.272949,362.604034 1695.663086,360.980621 1688.421021,358.904449 
	C1676.686768,355.540466 1673.774048,347.957703 1680.054688,337.504517 
	C1682.987793,332.622742 1686.183838,327.042725 1693.855713,328.927429 
	C1696.997925,329.699310 1700.343506,329.993042 1703.587036,329.938538 
	C1713.171753,329.777435 1722.758423,329.464447 1732.332153,328.973572 
	C1751.325439,327.999664 1769.249756,322.947937 1785.770020,313.577271 
	C1799.483521,305.798615 1810.574341,295.145508 1817.989380,281.015869 
	C1823.058716,271.356384 1825.948608,261.135956 1827.175781,250.216492 
	C1828.361328,239.666321 1828.761841,229.243835 1825.923706,219.028900 
	C1823.756592,211.229019 1820.640381,203.692780 1817.916870,195.955246 
	C1831.170410,192.558533 1844.980591,189.019241 1858.712646,185.499924 
	C1858.712646,172.703323 1858.712646,159.958313 1858.712646,147.000000 
	C1828.455078,147.000000 1798.484375,147.000366 1768.513672,146.998901 
	C1767.014160,146.998840 1765.489746,147.156952 1764.019043,146.946762 
	C1752.770386,145.339111 1741.572021,142.694397 1730.281372,142.228073 
	C1713.697876,141.543137 1697.091431,141.554962 1680.542603,144.827881 
	C1658.163208,149.253952 1638.724854,158.480942 1623.688721,175.891190 
	C1616.672485,184.015030 1611.910278,193.455917 1608.947754,203.833649 
	C1605.259399,216.754318 1603.789673,229.736130 1604.800049,243.259521 
	C1605.707153,255.398315 1608.116577,266.997314 1613.457886,277.773163 
	C1621.380859,293.757507 1633.350098,305.959045 1649.716675,313.279968 
	C1645.487427,316.335144 1641.156616,319.173737 1637.164673,322.428131 
	C1633.085205,325.754059 1629.249146,329.395966 1625.462769,333.060883 
	C1614.762573,343.417908 1612.654541,365.761627 1621.106934,378.671631 
	C1626.513306,386.929016 1633.249146,393.676086 1642.479004,398.917694 
	C1637.846802,400.442322 1633.828735,401.488312 1630.031250,403.065460 
	C1617.585205,408.234467 1605.873657,414.222656 1597.067749,425.215759 
	C1583.840942,441.727753 1581.608398,460.354736 1585.624023,480.003082 
	C1590.786011,505.260864 1608.545288,519.667358 1631.123657,528.875000 
	C1643.528931,533.933899 1656.545898,537.165527 1670.033936,538.082153 
	C1670.729492,538.129395 1671.346436,539.334229 1672.000000,540.000000 
	C1115.120117,540.000000 558.240234,540.000000 1.000000,540.000000 
	C1.000000,453.972290 1.000000,367.944092 1.389350,281.223328 
	C3.176762,287.145874 4.694506,293.738342 5.952504,300.380005 
	C11.930792,331.942749 24.376858,360.876373 42.117981,387.477936 
	C55.566177,407.642548 71.487129,425.660248 90.391464,441.088379 
	C105.117958,453.106842 120.724808,463.662659 137.670822,472.104797 
	C155.713623,481.093292 174.550171,487.954620 194.366486,492.278595 
	C215.291031,496.844330 236.250092,499.000244 257.695831,498.164886 
	C275.147308,497.485107 292.159698,495.110291 309.188171,491.226227 
	C332.878937,485.822571 354.966003,476.557892 375.678650,464.411591 
	C400.737946,449.716339 422.812347,431.222870 441.297180,408.451233 
	C453.085846,393.928711 463.897034,378.765747 471.732574,361.944000 
	C479.235840,345.835510 485.609497,329.031708 490.625031,311.987793 
	C494.551697,298.644104 496.278229,284.534912 497.782227,270.635986 
	C498.872406,260.560974 498.615234,250.227112 497.853058,240.091843 
	C496.762115,225.584290 495.097198,211.083984 492.829865,196.714325 
	C491.468231,188.084702 488.494324,179.709488 485.820892,169.619217 
	C483.646454,172.308914 482.615845,173.849228 481.330750,175.135269 
	C411.238525,245.279816 341.040375,315.319000 271.129333,385.643585 
	C263.140778,393.679352 246.700943,393.575134 238.799927,385.575043 
	C195.235947,341.464783 151.270050,297.751190 107.404861,253.938766 
	C97.700363,244.245941 97.708382,230.231506 106.961868,220.645966 
	C118.303482,208.897354 130.123978,197.612076 141.520401,185.915009 
	C149.184296,178.048935 165.949051,177.975677 174.018158,186.263351 
	C199.360809,212.292496 225.269531,237.770523 250.966217,263.454834 
	C252.231873,264.719879 253.565186,265.917267 254.867004,267.146149 
	C254.375610,266.504883 253.884201,265.863617 253.392792,265.222382 
	C314.504120,205.311630 375.615448,145.400879 436.654266,85.561188 
	C433.696899,82.043198 431.656555,79.223015 429.227386,76.791222 
	C415.159180,62.707848 399.933929,50.102879 383.045441,39.426090 
	C352.332916,20.009842 319.190674,7.539938 283.113556,2.922631 
	C282.339661,2.823588 281.701477,1.664560 281.000000,1.000004 
	C885.215576,1.000000 1489.431152,1.000000 2094.000000,1.000000 
	C2094.000000,108.361107 2094.000000,215.722610 2093.649658,323.841125 
	C2092.866455,323.605377 2092.188965,322.648529 2092.036865,321.614410 
	C2089.427979,303.885498 2080.081543,289.971710 2066.382812,279.252991 
	C2049.910889,266.364105 2030.352295,259.092316 2011.323608,250.846954 
	C1996.797363,244.552505 1982.588135,237.405136 1968.728516,229.748886 
	C1962.564697,226.343887 1960.090210,219.485153 1961.111816,212.326172 
	C1962.084351,205.510254 1967.178223,201.665710 1973.309814,200.127579 
	C1988.514893,196.313370 2004.018188,196.560959 2018.989868,200.697754 
	C2035.543091,205.271576 2051.688477,211.321686 2068.375000,216.849228 
	C2074.356201,202.443008 2080.553955,187.160309 2087.051270,172.006104 
	C2090.658691,163.592590 2090.937988,163.568863 2082.997314,160.022369 
	C2060.093994,149.793106 2035.971069,143.722397 2011.067017,142.295471 
	C1995.163574,141.384262 1979.058838,142.863937 1963.112915,144.132553 
	C1947.892578,145.343430 1933.638306,150.221695 1920.330078,157.922607 
	C1905.415894,166.552826 1894.483154,178.547928 1889.561157,195.106400 
	C1886.261597,206.206894 1885.263794,217.653564 1886.810913,229.441254 
	C1888.303223,240.810974 1890.772461,251.618896 1896.907837,261.372894 
	C1905.901245,275.670319 1919.449829,284.694519 1934.119141,291.884247 
	C1954.137329,301.695587 1974.705566,310.382294 1994.754639,320.133789 
	C2001.789062,323.555115 2009.489014,327.472198 2014.250122,333.311401 
	C2023.921631,345.172943 2020.599487,361.664093 2002.498901,366.969879 
	C1989.377197,370.816193 1975.815552,371.164337 1962.619385,368.759277 
	C1946.048462,365.739197 1929.687866,361.382812 1913.429932,356.900818 
	C1904.546143,354.451691 1896.061890,350.553406 1887.307007,347.274719 
	C1887.217773,347.657837 1887.022217,348.106293 1887.021729,348.554962 
	C1887.003540,367.716614 1886.926025,386.879120 1887.143066,406.038300 
	C1887.160889,407.605438 1888.865601,409.977295 1890.352539,410.580566 
	C1913.420898,419.939270 1937.646606,423.932587 1962.356689,424.872498 
	C1973.410522,425.292908 1984.547485,424.732819 1995.590210,423.883392 
	C2005.780762,423.099548 2016.026855,421.957672 2026.014038,419.858246 
	C2042.282349,416.438507 2057.433350,409.907013 2069.786133,398.542450 
	C2082.450439,386.891174 2089.957275,372.228699 2092.076172,354.969666 
	C2092.165039,354.245300 2093.333984,353.653564 2094.000000,353.000000 
M828.523926,170.015381 
	C821.804565,164.611420 815.608215,158.327377 808.269226,153.966095 
	C784.871643,140.061722 759.209412,138.934204 733.501099,144.459885 
	C706.032776,150.363861 686.702698,167.950729 673.405029,192.214081 
	C659.963623,216.739517 655.259094,243.587738 654.133972,271.117462 
	C653.661865,282.668945 654.382263,294.298157 655.090637,305.859558 
	C655.648438,314.963562 656.195496,324.204041 658.197327,333.055908 
	C662.570007,352.391174 668.799072,371.157654 681.051208,387.208008 
	C692.639709,402.388947 706.619202,414.402466 725.374939,420.091125 
	C740.110352,424.560425 754.904602,425.889435 770.295532,424.158691 
	C790.535583,421.882629 808.132874,414.580383 822.398315,399.975525 
	C826.349548,395.930298 829.535522,391.132874 833.025391,386.643860 
	C834.812378,384.345367 836.731262,384.070557 837.910889,386.851227 
	C841.098694,394.365601 844.151733,401.946289 846.964600,409.608429 
	C850.763611,419.956787 850.645935,420.000000 861.818542,420.000000 
	C877.431763,420.000000 893.044983,420.000000 908.780640,420.000000 
	C908.780640,293.153168 908.780640,166.753922 908.780640,40.222061 
	C883.823547,40.222061 859.086243,40.222061 834.001587,40.222061 
	C834.001587,41.066673 834.001587,41.694881 834.001587,42.323093 
	C834.001099,76.320869 833.841553,110.320000 834.129395,144.315323 
	C834.189575,151.414597 835.913879,158.498291 836.848938,165.592102 
	C837.549316,170.905167 838.214111,176.222931 839.068420,182.894547 
	C835.134216,178.054138 832.076599,174.292221 828.523926,170.015381 
M1219.970093,355.309967 
	C1221.657227,350.817078 1223.567139,346.393677 1224.994019,341.819611 
	C1232.144409,318.898315 1235.454956,295.480011 1232.929199,271.498657 
	C1231.672241,259.563232 1230.589966,247.486176 1227.813843,235.858749 
	C1221.264038,208.426880 1207.515991,184.992615 1184.958130,167.607071 
	C1164.910034,152.155823 1141.644165,143.980057 1116.589966,142.223358 
	C1098.244385,140.937027 1079.764038,141.456512 1061.645874,145.969421 
	C1027.386719,154.502777 1001.580811,173.883881 985.294006,205.357300 
	C974.310608,226.582047 970.273560,249.645050 969.107422,273.199371 
	C968.213135,291.260834 969.735901,309.230530 973.990845,326.896027 
	C980.342590,353.267181 992.204468,376.343079 1012.940125,394.529236 
	C1035.736694,414.522797 1062.771362,423.210876 1092.366943,424.881073 
	C1107.450073,425.732269 1122.428101,424.233063 1137.356934,421.167542 
	C1159.869263,416.544830 1179.379517,406.415405 1195.652100,390.567108 
	C1205.752197,380.730347 1213.811646,369.043243 1219.970093,355.309967 
M1445.406006,355.060730 
	C1433.782349,363.539459 1420.410889,365.700958 1406.578247,364.850983 
	C1397.677856,364.304138 1389.220947,361.711060 1382.464233,355.035553 
	C1371.486450,344.189880 1368.318970,330.214966 1368.193237,315.901245 
	C1367.714111,261.407135 1368.000000,206.906296 1368.000000,152.407974 
	C1368.000000,150.652145 1368.000000,148.896332 1368.000000,147.325058 
	C1342.617065,147.325058 1317.878052,147.325058 1293.000000,147.325058 
	C1293.000000,149.470016 1293.000000,151.292191 1293.000000,153.114365 
	C1293.000000,212.112549 1292.976318,271.110748 1293.043213,330.108856 
	C1293.048706,335.024506 1293.574829,339.947510 1294.014648,344.853149 
	C1295.296021,359.144257 1299.182617,372.606079 1306.499268,385.069397 
	C1313.664185,397.274780 1323.180054,406.907990 1335.831543,413.378937 
	C1361.199463,426.354004 1388.203979,427.622437 1415.374023,422.581726 
	C1438.925537,418.212341 1459.236328,407.202972 1472.956299,386.400635 
	C1473.557373,385.489166 1475.111694,385.206238 1476.673706,384.396271 
	C1479.584961,395.131470 1482.352173,405.174530 1485.015625,415.245056 
	C1485.918823,418.660065 1487.503296,420.254517 1491.470459,420.115692 
	C1501.458008,419.766205 1511.465820,420.000000 1521.465576,420.000000 
	C1528.901245,420.000000 1536.336792,420.000000 1543.721924,420.000000 
	C1543.721924,328.710052 1543.721924,237.973480 1543.721924,147.281601 
	C1518.704590,147.281601 1493.966187,147.281601 1469.000000,147.281601 
	C1469.000000,149.371307 1469.000000,151.181381 1469.000000,152.991440 
	C1469.000000,193.323532 1469.146362,233.656509 1468.908325,273.987183 
	C1468.839478,285.656372 1467.995728,297.349243 1466.925415,308.977661 
	C1465.307129,326.559784 1460.016602,342.635010 1445.406006,355.060730 
z"/>
<path fill="#11ABEC" opacity="1.000000" stroke="none" 
	d="
M280.531342,1.000004 
	C281.701477,1.664560 282.339661,2.823588 283.113556,2.922631 
	C319.190674,7.539938 352.332916,20.009842 383.045441,39.426090 
	C399.933929,50.102879 415.159180,62.707848 429.227386,76.791222 
	C431.656555,79.223015 433.696899,82.043198 436.654266,85.561188 
	C375.615448,145.400879 314.504120,205.311630 253.392792,265.222382 
	C253.884201,265.863617 254.375610,266.504883 254.867004,267.146149 
	C253.565186,265.917267 252.231873,264.719879 250.966217,263.454834 
	C225.269531,237.770523 199.360809,212.292496 174.018158,186.263351 
	C165.949051,177.975677 149.184296,178.048935 141.520401,185.915009 
	C130.123978,197.612076 118.303482,208.897354 106.961868,220.645966 
	C97.708382,230.231506 97.700363,244.245941 107.404861,253.938766 
	C151.270050,297.751190 195.235947,341.464783 238.799927,385.575043 
	C246.700943,393.575134 263.140778,393.679352 271.129333,385.643585 
	C341.040375,315.319000 411.238525,245.279816 481.330750,175.135269 
	C482.615845,173.849228 483.646454,172.308914 485.820892,169.619217 
	C488.494324,179.709488 491.468231,188.084702 492.829865,196.714325 
	C495.097198,211.083984 496.762115,225.584290 497.853058,240.091843 
	C498.615234,250.227112 498.872406,260.560974 497.782227,270.635986 
	C496.278229,284.534912 494.551697,298.644104 490.625031,311.987793 
	C485.609497,329.031708 479.235840,345.835510 471.732574,361.944000 
	C463.897034,378.765747 453.085846,393.928711 441.297180,408.451233 
	C422.812347,431.222870 400.737946,449.716339 375.678650,464.411591 
	C354.966003,476.557892 332.878937,485.822571 309.188171,491.226227 
	C292.159698,495.110291 275.147308,497.485107 257.695831,498.164886 
	C236.250092,499.000244 215.291031,496.844330 194.366486,492.278595 
	C174.550171,487.954620 155.713623,481.093292 137.670822,472.104797 
	C120.724808,463.662659 105.117958,453.106842 90.391464,441.088379 
	C71.487129,425.660248 55.566177,407.642548 42.117981,387.477936 
	C24.376858,360.876373 11.930792,331.942749 5.952504,300.380005 
	C4.694506,293.738342 3.176762,287.145874 1.389350,280.765381 
	C1.000000,260.312439 1.000000,239.624878 1.389535,218.702606 
	C2.183724,217.626373 2.811791,216.821686 2.957495,215.937500 
	C4.069162,209.191528 4.649053,202.326996 6.211511,195.691757 
	C12.077641,170.780228 20.917641,146.990204 34.016029,124.897835 
	C46.841774,103.265305 61.966030,83.563774 80.721146,66.584488 
	C94.609642,54.011017 109.448631,43.005150 125.659912,33.645828 
	C153.743164,17.432425 183.708893,7.003422 215.891266,2.922368 
	C216.663025,2.824502 217.300110,1.664566 218.000000,1.000000 
	C238.687561,1.000000 259.375122,1.000000 280.531342,1.000004 
z"/>
<path fill="#FFFFFF" opacity="1.000000" stroke="none" 
	d="
M1672.468506,540.000000 
	C1671.346436,539.334229 1670.729492,538.129395 1670.033936,538.082153 
	C1656.545898,537.165527 1643.528931,533.933899 1631.123657,528.875000 
	C1608.545288,519.667358 1590.786011,505.260864 1585.624023,480.003082 
	C1581.608398,460.354736 1583.840942,441.727753 1597.067749,425.215759 
	C1605.873657,414.222656 1617.585205,408.234467 1630.031250,403.065460 
	C1633.828735,401.488312 1637.846802,400.442322 1642.479004,398.917694 
	C1633.249146,393.676086 1626.513306,386.929016 1621.106934,378.671631 
	C1612.654541,365.761627 1614.762573,343.417908 1625.462769,333.060883 
	C1629.249146,329.395966 1633.085205,325.754059 1637.164673,322.428131 
	C1641.156616,319.173737 1645.487427,316.335144 1649.716675,313.279968 
	C1633.350098,305.959045 1621.380859,293.757507 1613.457886,277.773163 
	C1608.116577,266.997314 1605.707153,255.398315 1604.800049,243.259521 
	C1603.789673,229.736130 1605.259399,216.754318 1608.947754,203.833649 
	C1611.910278,193.455917 1616.672485,184.015030 1623.688721,175.891190 
	C1638.724854,158.480942 1658.163208,149.253952 1680.542603,144.827881 
	C1697.091431,141.554962 1713.697876,141.543137 1730.281372,142.228073 
	C1741.572021,142.694397 1752.770386,145.339111 1764.019043,146.946762 
	C1765.489746,147.156952 1767.014160,146.998840 1768.513672,146.998901 
	C1798.484375,147.000366 1828.455078,147.000000 1858.712646,147.000000 
	C1858.712646,159.958313 1858.712646,172.703323 1858.712646,185.499924 
	C1844.980591,189.019241 1831.170410,192.558533 1817.916870,195.955246 
	C1820.640381,203.692780 1823.756592,211.229019 1825.923706,219.028900 
	C1828.761841,229.243835 1828.361328,239.666321 1827.175781,250.216492 
	C1825.948608,261.135956 1823.058716,271.356384 1817.989380,281.015869 
	C1810.574341,295.145508 1799.483521,305.798615 1785.770020,313.577271 
	C1769.249756,322.947937 1751.325439,327.999664 1732.332153,328.973572 
	C1722.758423,329.464447 1713.171753,329.777435 1703.587036,329.938538 
	C1700.343506,329.993042 1696.997925,329.699310 1693.855713,328.927429 
	C1686.183838,327.042725 1682.987793,332.622742 1680.054688,337.504517 
	C1673.774048,347.957703 1676.686768,355.540466 1688.421021,358.904449 
	C1695.663086,360.980621 1703.272949,362.604034 1710.764038,362.819092 
	C1729.743652,363.364044 1748.749634,363.016663 1767.744995,362.995117 
	C1785.473877,362.975037 1802.765015,365.746979 1818.750732,373.467468 
	C1837.802368,382.668610 1849.820923,398.051819 1853.855713,418.937317 
	C1855.399170,426.926422 1856.262573,435.276123 1855.830811,443.375885 
	C1854.366089,470.846527 1843.563232,493.537720 1820.731201,510.116394 
	C1802.032104,523.694092 1781.105103,531.160889 1758.633423,534.964783 
	C1751.268677,536.211548 1743.824463,536.986694 1736.428467,538.058594 
	C1735.708130,538.163025 1735.070923,538.841736 1734.697510,539.626953 
	C1714.312378,540.000000 1693.624878,540.000000 1672.468506,540.000000 
M1651.912842,445.577454 
	C1645.447144,459.593079 1650.119995,472.676727 1662.087158,480.710175 
	C1674.725098,489.193939 1689.135254,490.134949 1703.450317,490.798920 
	C1712.393066,491.213715 1721.426025,489.658203 1730.419556,489.002808 
	C1744.742310,487.959015 1758.473145,484.524597 1770.962036,477.413269 
	C1782.530151,470.826355 1790.625732,461.590210 1788.930542,447.041901 
	C1788.258789,441.276306 1786.431152,436.143921 1781.079468,432.360291 
	C1772.599243,426.364532 1762.841309,425.122284 1753.196167,424.188690 
	C1741.532715,423.059753 1729.727783,422.937958 1717.994629,423.109314 
	C1705.843628,423.286713 1693.562744,423.412781 1681.601196,425.260864 
	C1669.207642,427.175659 1658.663452,433.419891 1651.912842,445.577454 
M1689.633667,196.032364 
	C1686.416138,200.994507 1682.315674,205.603180 1680.159302,210.990112 
	C1675.203979,223.369797 1674.900024,236.459229 1677.074585,249.508194 
	C1678.572510,258.497772 1681.738281,266.980438 1688.236938,273.649902 
	C1696.684814,282.319763 1707.592407,284.661804 1719.110107,283.913483 
	C1737.260498,282.734253 1747.075317,276.223114 1752.888672,259.281097 
	C1757.948608,244.534958 1757.347290,229.292709 1753.612061,214.335739 
	C1750.710083,202.715805 1743.925781,193.364853 1732.003662,190.280930 
	C1724.107788,188.238510 1715.395874,187.776031 1707.281250,188.682770 
	C1701.447388,189.334656 1695.996582,193.414963 1689.633667,196.032364 
z"/>
<path fill="#FFFFFF" opacity="1.000000" stroke="none" 
	d="
M2094.000000,352.531372 
	C2093.333984,353.653564 2092.165039,354.245300 2092.076172,354.969666 
	C2089.957275,372.228699 2082.450439,386.891174 2069.786133,398.542450 
	C2057.433350,409.907013 2042.282349,416.438507 2026.014038,419.858246 
	C2016.026855,421.957672 2005.780762,423.099548 1995.590210,423.883392 
	C1984.547485,424.732819 1973.410522,425.292908 1962.356689,424.872498 
	C1937.646606,423.932587 1913.420898,419.939270 1890.352539,410.580566 
	C1888.865601,409.977295 1887.160889,407.605438 1887.143066,406.038300 
	C1886.926025,386.879120 1887.003540,367.716614 1887.021729,348.554962 
	C1887.022217,348.106293 1887.217773,347.657837 1887.307007,347.274719 
	C1896.061890,350.553406 1904.546143,354.451691 1913.429932,356.900818 
	C1929.687866,361.382812 1946.048462,365.739197 1962.619385,368.759277 
	C1975.815552,371.164337 1989.377197,370.816193 2002.498901,366.969879 
	C2020.599487,361.664093 2023.921631,345.172943 2014.250122,333.311401 
	C2009.489014,327.472198 2001.789062,323.555115 1994.754639,320.133789 
	C1974.705566,310.382294 1954.137329,301.695587 1934.119141,291.884247 
	C1919.449829,284.694519 1905.901245,275.670319 1896.907837,261.372894 
	C1890.772461,251.618896 1888.303223,240.810974 1886.810913,229.441254 
	C1885.263794,217.653564 1886.261597,206.206894 1889.561157,195.106400 
	C1894.483154,178.547928 1905.415894,166.552826 1920.330078,157.922607 
	C1933.638306,150.221695 1947.892578,145.343430 1963.112915,144.132553 
	C1979.058838,142.863937 1995.163574,141.384262 2011.067017,142.295471 
	C2035.971069,143.722397 2060.093994,149.793106 2082.997314,160.022369 
	C2090.937988,163.568863 2090.658691,163.592590 2087.051270,172.006104 
	C2080.553955,187.160309 2074.356201,202.443008 2068.375000,216.849228 
	C2051.688477,211.321686 2035.543091,205.271576 2018.989868,200.697754 
	C2004.018188,196.560959 1988.514893,196.313370 1973.309814,200.127579 
	C1967.178223,201.665710 1962.084351,205.510254 1961.111816,212.326172 
	C1960.090210,219.485153 1962.564697,226.343887 1968.728516,229.748886 
	C1982.588135,237.405136 1996.797363,244.552505 2011.323608,250.846954 
	C2030.352295,259.092316 2049.910889,266.364105 2066.382812,279.252991 
	C2080.081543,289.971710 2089.427979,303.885498 2092.036865,321.614410 
	C2092.188965,322.648529 2092.866455,323.605377 2093.649658,324.299072 
	C2094.000000,333.354218 2094.000000,342.708466 2094.000000,352.531372 
z"/>
<path fill="#000000" opacity="1.000000" stroke="none" 
	d="
M217.531342,1.000000 
	C217.300110,1.664566 216.663025,2.824502 215.891266,2.922368 
	C183.708893,7.003422 153.743164,17.432425 125.659912,33.645828 
	C109.448631,43.005150 94.609642,54.011017 80.721146,66.584488 
	C61.966030,83.563774 46.841774,103.265305 34.016029,124.897835 
	C20.917641,146.990204 12.077641,170.780228 6.211511,195.691757 
	C4.649053,202.326996 4.069162,209.191528 2.957495,215.937500 
	C2.811791,216.821686 2.183724,217.626373 1.389535,218.233948 
	C1.000000,145.739624 1.000000,73.479256 1.000000,1.000000 
	C73.020744,1.000000 145.041718,1.000000 217.531342,1.000000 
z"/>
<path fill="#FFFFFF" opacity="1.000000" stroke="none" 
	d="
M828.771484,170.272842 
	C832.076599,174.292221 835.134216,178.054138 839.068420,182.894547 
	C838.214111,176.222931 837.549316,170.905167 836.848938,165.592102 
	C835.913879,158.498291 834.189575,151.414597 834.129395,144.315323 
	C833.841553,110.320000 834.001099,76.320869 834.001587,42.323093 
	C834.001587,41.694881 834.001587,41.066673 834.001587,40.222061 
	C859.086243,40.222061 883.823547,40.222061 908.780640,40.222061 
	C908.780640,166.753922 908.780640,293.153168 908.780640,420.000000 
	C893.044983,420.000000 877.431763,420.000000 861.818542,420.000000 
	C850.645935,420.000000 850.763611,419.956787 846.964600,409.608429 
	C844.151733,401.946289 841.098694,394.365601 837.910889,386.851227 
	C836.731262,384.070557 834.812378,384.345367 833.025391,386.643860 
	C829.535522,391.132874 826.349548,395.930298 822.398315,399.975525 
	C808.132874,414.580383 790.535583,421.882629 770.295532,424.158691 
	C754.904602,425.889435 740.110352,424.560425 725.374939,420.091125 
	C706.619202,414.402466 692.639709,402.388947 681.051208,387.208008 
	C668.799072,371.157654 662.570007,352.391174 658.197327,333.055908 
	C656.195496,324.204041 655.648438,314.963562 655.090637,305.859558 
	C654.382263,294.298157 653.661865,282.668945 654.133972,271.117462 
	C655.259094,243.587738 659.963623,216.739517 673.405029,192.214081 
	C686.702698,167.950729 706.032776,150.363861 733.501099,144.459885 
	C759.209412,138.934204 784.871643,140.061722 808.269226,153.966095 
	C815.608215,158.327377 821.804565,164.611420 828.771484,170.272842 
M792.621338,364.003448 
	C808.644043,362.645233 821.287292,355.746857 828.941589,341.212036 
	C836.773193,326.340454 837.802490,309.894440 838.857422,293.611145 
	C839.355713,285.919525 838.069031,278.129700 838.059509,270.383789 
	C838.043335,257.243378 835.504883,244.602570 830.926941,232.388123 
	C828.238708,225.215485 824.099915,218.897781 817.989502,213.972809 
	C807.177368,205.258347 794.561462,202.826019 781.142029,203.002289 
	C760.210266,203.277252 747.304749,214.834793 739.295654,231.534485 
	C733.156921,244.334320 730.928467,258.361572 730.137085,272.394714 
	C729.183594,289.301270 729.541931,306.336731 734.152466,322.755554 
	C738.645447,338.755920 745.690369,353.491241 762.268250,360.610138 
	C771.638184,364.633789 781.463196,366.602936 792.621338,364.003448 
z"/>
<path fill="#FFFFFF" opacity="1.000000" stroke="none" 
	d="
M1219.756470,355.639038 
	C1213.811646,369.043243 1205.752197,380.730347 1195.652100,390.567108 
	C1179.379517,406.415405 1159.869263,416.544830 1137.356934,421.167542 
	C1122.428101,424.233063 1107.450073,425.732269 1092.366943,424.881073 
	C1062.771362,423.210876 1035.736694,414.522797 1012.940125,394.529236 
	C992.204468,376.343079 980.342590,353.267181 973.990845,326.896027 
	C969.735901,309.230530 968.213135,291.260834 969.107422,273.199371 
	C970.273560,249.645050 974.310608,226.582047 985.294006,205.357300 
	C1001.580811,173.883881 1027.386719,154.502777 1061.645874,145.969421 
	C1079.764038,141.456512 1098.244385,140.937027 1116.589966,142.223358 
	C1141.644165,143.980057 1164.910034,152.155823 1184.958130,167.607071 
	C1207.515991,184.992615 1221.264038,208.426880 1227.813843,235.858749 
	C1230.589966,247.486176 1231.672241,259.563232 1232.929199,271.498657 
	C1235.454956,295.480011 1232.144409,318.898315 1224.994019,341.819611 
	C1223.567139,346.393677 1221.657227,350.817078 1219.756470,355.639038 
M1061.963623,347.595673 
	C1065.805176,351.011810 1069.218506,355.158417 1073.567749,357.708801 
	C1087.275024,365.746490 1102.479004,365.807861 1117.262573,362.609009 
	C1130.083496,359.834778 1139.893188,352.178162 1146.228516,339.736267 
	C1154.066772,324.343170 1155.640747,307.878754 1156.845093,291.288940 
	C1157.414917,283.437653 1156.130615,275.468597 1156.049438,267.549194 
	C1155.934814,256.385590 1153.599243,245.679886 1149.965332,235.222565 
	C1145.358887,221.966980 1137.430542,211.657684 1123.899170,206.400528 
	C1114.357056,202.693253 1104.525269,202.191208 1094.429810,202.943344 
	C1079.578979,204.049789 1067.437012,209.724274 1058.951660,222.368347 
	C1049.686646,236.174072 1047.012451,251.990768 1046.207520,267.953766 
	C1045.354980,284.866333 1045.015137,301.937775 1049.020020,318.651154 
	C1051.462891,328.845825 1054.447754,338.840118 1061.963623,347.595673 
z"/>
<path fill="#FFFFFF" opacity="1.000000" stroke="none" 
	d="
M1445.677734,354.819031 
	C1460.016602,342.635010 1465.307129,326.559784 1466.925415,308.977661 
	C1467.995728,297.349243 1468.839478,285.656372 1468.908325,273.987183 
	C1469.146362,233.656509 1469.000000,193.323532 1469.000000,152.991440 
	C1469.000000,151.181381 1469.000000,149.371307 1469.000000,147.281601 
	C1493.966187,147.281601 1518.704590,147.281601 1543.721924,147.281601 
	C1543.721924,237.973480 1543.721924,328.710052 1543.721924,420.000000 
	C1536.336792,420.000000 1528.901245,420.000000 1521.465576,420.000000 
	C1511.465820,420.000000 1501.458008,419.766205 1491.470459,420.115692 
	C1487.503296,420.254517 1485.918823,418.660065 1485.015625,415.245056 
	C1482.352173,405.174530 1479.584961,395.131470 1476.673706,384.396271 
	C1475.111694,385.206238 1473.557373,385.489166 1472.956299,386.400635 
	C1459.236328,407.202972 1438.925537,418.212341 1415.374023,422.581726 
	C1388.203979,427.622437 1361.199463,426.354004 1335.831543,413.378937 
	C1323.180054,406.907990 1313.664185,397.274780 1306.499268,385.069397 
	C1299.182617,372.606079 1295.296021,359.144257 1294.014648,344.853149 
	C1293.574829,339.947510 1293.048706,335.024506 1293.043213,330.108856 
	C1292.976318,271.110748 1293.000000,212.112549 1293.000000,153.114365 
	C1293.000000,151.292191 1293.000000,149.470016 1293.000000,147.325058 
	C1317.878052,147.325058 1342.617065,147.325058 1368.000000,147.325058 
	C1368.000000,148.896332 1368.000000,150.652145 1368.000000,152.407974 
	C1368.000000,206.906296 1367.714111,261.407135 1368.193237,315.901245 
	C1368.318970,330.214966 1371.486450,344.189880 1382.464233,355.035553 
	C1389.220947,361.711060 1397.677856,364.304138 1406.578247,364.850983 
	C1420.410889,365.700958 1433.782349,363.539459 1445.677734,354.819031 
z"/>
<path fill="#000000" opacity="1.000000" stroke="none" 
	d="
M1651.965576,445.187683 
	C1658.663452,433.419891 1669.207642,427.175659 1681.601196,425.260864 
	C1693.562744,423.412781 1705.843628,423.286713 1717.994629,423.109314 
	C1729.727783,422.937958 1741.532715,423.059753 1753.196167,424.188690 
	C1762.841309,425.122284 1772.599243,426.364532 1781.079468,432.360291 
	C1786.431152,436.143921 1788.258789,441.276306 1788.930542,447.041901 
	C1790.625732,461.590210 1782.530151,470.826355 1770.962036,477.413269 
	C1758.473145,484.524597 1744.742310,487.959015 1730.419556,489.002808 
	C1721.426025,489.658203 1712.393066,491.213715 1703.450317,490.798920 
	C1689.135254,490.134949 1674.725098,489.193939 1662.087158,480.710175 
	C1650.119995,472.676727 1645.447144,459.593079 1651.965576,445.187683 
z"/>
<path fill="#000000" opacity="1.000000" stroke="none" 
	d="
M1690.004272,195.999146 
	C1695.996582,193.414963 1701.447388,189.334656 1707.281250,188.682770 
	C1715.395874,187.776031 1724.107788,188.238510 1732.003662,190.280930 
	C1743.925781,193.364853 1750.710083,202.715805 1753.612061,214.335739 
	C1757.347290,229.292709 1757.948608,244.534958 1752.888672,259.281097 
	C1747.075317,276.223114 1737.260498,282.734253 1719.110107,283.913483 
	C1707.592407,284.661804 1696.684814,282.319763 1688.236938,273.649902 
	C1681.738281,266.980438 1678.572510,258.497772 1677.074585,249.508194 
	C1674.900024,236.459229 1675.203979,223.369797 1680.159302,210.990112 
	C1682.315674,205.603180 1686.416138,200.994507 1690.004272,195.999146 
z"/>
<path fill="#000000" opacity="1.000000" stroke="none" 
	d="
M792.163696,364.024414 
	C781.463196,366.602936 771.638184,364.633789 762.268250,360.610138 
	C745.690369,353.491241 738.645447,338.755920 734.152466,322.755554 
	C729.541931,306.336731 729.183594,289.301270 730.137085,272.394714 
	C730.928467,258.361572 733.156921,244.334320 739.295654,231.534485 
	C747.304749,214.834793 760.210266,203.277252 781.142029,203.002289 
	C794.561462,202.826019 807.177368,205.258347 817.989502,213.972809 
	C824.099915,218.897781 828.238708,225.215485 830.926941,232.388123 
	C835.504883,244.602570 838.043335,257.243378 838.059509,270.383789 
	C838.069031,278.129700 839.355713,285.919525 838.857422,293.611145 
	C837.802490,309.894440 836.773193,326.340454 828.941589,341.212036 
	C821.287292,355.746857 808.644043,362.645233 792.163696,364.024414 
z"/>
<path fill="#000000" opacity="1.000000" stroke="none" 
	d="
M1061.739746,347.305359 
	C1054.447754,338.840118 1051.462891,328.845825 1049.020020,318.651154 
	C1045.015137,301.937775 1045.354980,284.866333 1046.207520,267.953766 
	C1047.012451,251.990768 1049.686646,236.174072 1058.951660,222.368347 
	C1067.437012,209.724274 1079.578979,204.049789 1094.429810,202.943344 
	C1104.525269,202.191208 1114.357056,202.693253 1123.899170,206.400528 
	C1137.430542,211.657684 1145.358887,221.966980 1149.965332,235.222565 
	C1153.599243,245.679886 1155.934814,256.385590 1156.049438,267.549194 
	C1156.130615,275.468597 1157.414917,283.437653 1156.845093,291.288940 
	C1155.640747,307.878754 1154.066772,324.343170 1146.228516,339.736267 
	C1139.893188,352.178162 1130.083496,359.834778 1117.262573,362.609009 
	C1102.479004,365.807861 1087.275024,365.746490 1073.567749,357.708801 
	C1069.218506,355.158417 1065.805176,351.011810 1061.739746,347.305359 
z"/>
</svg>