<?xml version="1.0" encoding="UTF-8" standalone="no"?>
<!-- Created with Inkscape (http://www.inkscape.org/) -->

<svg
   version="1.1"
   id="svg2"
   width="355.40732"
   height="98.279999"
   viewBox="0 0 355.40732 98.279999"
   sodipodi:docname="Medef.svg"
   inkscape:version="1.2 (dc2aedaf03, 2022-05-15)"
   xmlns:inkscape="http://www.inkscape.org/namespaces/inkscape"
   xmlns:sodipodi="http://sodipodi.sourceforge.net/DTD/sodipodi-0.dtd"
   xmlns="http://www.w3.org/2000/svg"
   xmlns:svg="http://www.w3.org/2000/svg">
  <defs
     id="defs6">
    <clipPath
       clipPathUnits="userSpaceOnUse"
       id="clipPath22">
      <path
         d="m 469.724,768.298 v -61.425 0 h 37.323 v 12.285 h -25.039 v 12.285 h 24.57 v 12.285 h -24.57 v 12.285 h 36.855 l -12.285,12.285 z"
         id="path20" />
    </clipPath>
    <linearGradient
       x1="0"
       y1="0"
       x2="1"
       y2="0"
       gradientUnits="userSpaceOnUse"
       gradientTransform="matrix(-25.01325,-38.517025,-38.517025,25.01325,503.61121,761.03204)"
       spreadMethod="pad"
       id="linearGradient34">
      <stop
         style="stop-opacity:1;stop-color:#ed1639"
         offset="0"
         id="stop28" />
      <stop
         style="stop-opacity:1;stop-color:#5e2590"
         offset="0.53"
         id="stop30" />
      <stop
         style="stop-opacity:1;stop-color:#2e3192"
         offset="1"
         id="stop32" />
    </linearGradient>
    <clipPath
       clipPathUnits="userSpaceOnUse"
       id="clipPath44">
      <path
         d="m 518.863,694.588 13.414,13.414 v 34.597 l -13.414,13.414 z"
         id="path42" />
    </clipPath>
    <linearGradient
       x1="0"
       y1="0"
       x2="1"
       y2="0"
       gradientUnits="userSpaceOnUse"
       gradientTransform="matrix(-24.974649,-38.457588,-38.457588,24.974649,532.34064,742.43298)"
       spreadMethod="pad"
       id="linearGradient56">
      <stop
         style="stop-opacity:1;stop-color:#ed1639"
         offset="0"
         id="stop50" />
      <stop
         style="stop-opacity:1;stop-color:#5e2590"
         offset="0.53"
         id="stop52" />
      <stop
         style="stop-opacity:1;stop-color:#2e3192"
         offset="1"
         id="stop54" />
    </linearGradient>
    <clipPath
       clipPathUnits="userSpaceOnUse"
       id="clipPath70">
      <path
         d="M 0,0 H 595.275 V 841.89 H 0 Z"
         id="path68" />
    </clipPath>
  </defs>
  <sodipodi:namedview
     id="namedview4"
     pagecolor="#ffffff"
     bordercolor="#000000"
     borderopacity="0.25"
     inkscape:showpageshadow="2"
     inkscape:pageopacity="0.0"
     inkscape:pagecheckerboard="0"
     inkscape:deskcolor="#d1d1d1"
     showgrid="false"
     inkscape:zoom="2.0888412"
     inkscape:cx="191.015"
     inkscape:cy="-20.106842"
     inkscape:window-width="1920"
     inkscape:window-height="1009"
     inkscape:window-x="-8"
     inkscape:window-y="-8"
     inkscape:window-maximized="1"
     inkscape:current-layer="g8" />
  <g
     id="g8"
     inkscape:groupmode="layer"
     inkscape:label="14267-propositions-du-medef-election-presidentielle-2022-janvier-27"
     transform="matrix(1.3333333,0,0,-1.3333333,-389.72166,974.39731)">
    <g
       id="g390"
       transform="translate(26.569756,-37.500001)">
      <g
         id="g16">
        <g
           id="g18"
           clip-path="url(#clipPath22)">
          <g
             id="g24">
            <g
               id="g26">
              <path
                 d="m 469.724,768.298 v -61.425 0 h 37.323 v 12.285 h -25.039 v 12.285 h 24.57 v 12.285 h -24.57 v 12.285 h 36.855 l -12.285,12.285 z"
                 style="fill:url(#linearGradient34);stroke:none"
                 id="path36" />
            </g>
          </g>
        </g>
      </g>
      <g
         id="g38">
        <g
           id="g40"
           clip-path="url(#clipPath44)">
          <g
             id="g46">
            <g
               id="g48">
              <path
                 d="m 518.863,694.588 13.414,13.414 v 34.597 l -13.414,13.414 z"
                 style="fill:url(#linearGradient56);stroke:none"
                 id="path58" />
            </g>
          </g>
        </g>
      </g>
      <g
         id="g60"
         transform="translate(371.121,706.8733)">
        <path
           d="M 0,0 H 4.276 V 5.824 H 11.52 V 9.702 H 4.276 v 2.329 h 7.591 V 15.91 H 0 Z"
           style="fill:#2e3192;fill-opacity:1;fill-rule:nonzero;stroke:none"
           id="path62" />
      </g>
      <g
         id="g64">
        <g
           id="g66"
           clip-path="url(#clipPath70)">
          <g
             id="g72"
             transform="translate(389.1835,718.2114)">
            <path
               d="m 0,0 -0.081,-0.387 -0.687,3.273 h -3.473 v -14.224 h 4.45 v 6.294 c 0,1.888 0.361,2.786 1.289,3.201 0.523,0.236 1.219,0.355 2.068,0.355 H 5.171 V 3.085 H 4.434 C 1.778,3.085 0.452,2.162 0,0"
               style="fill:#2e3192;fill-opacity:1;fill-rule:nonzero;stroke:none"
               id="path74" />
          </g>
          <g
             id="g76"
             transform="translate(405.0615,712.5714)">
            <path
               d="m 0,0 c 0,-0.975 -0.552,-1.91 -1.477,-2.501 h -10e-4 c -0.462,-0.293 -0.996,-0.435 -1.631,-0.435 -1.126,0 -1.745,0.479 -1.745,1.348 0,0.495 0.205,0.89 0.628,1.208 0.503,0.318 0.988,0.443 2.193,0.66 0.873,0.174 1.496,0.345 1.9,0.654 L 0,1.036 Z M 1.619,8.137 C 0.694,8.6 -0.536,8.824 -2.142,8.824 -6.329,8.824 -8.779,6.91 -9.05,3.432 h 4.424 c 0.103,1.402 0.916,2.084 2.484,2.084 1.444,0 2.117,-0.468 2.117,-1.472 0,-1.011 -0.959,-1.247 -3.148,-1.546 C -4.829,2.262 -5.764,2.061 -6.504,1.783 -6.854,1.674 -7.181,1.488 -7.528,1.292 L -7.659,1.218 c -1.239,-0.765 -1.843,-1.911 -1.843,-3.5 0,-2.443 1.618,-3.788 4.557,-3.788 2.402,0 4.08,0.919 4.987,2.733 l 0.107,0.213 0.53,-2.574 H 4.251 V 3.399 C 4.251,5.77 3.39,7.32 1.619,8.137"
               style="fill:#2e3192;fill-opacity:1;fill-rule:nonzero;stroke:none"
               id="path78" />
          </g>
          <g
             id="g80"
             transform="translate(420.7139,721.3954)">
            <path
               d="m 0,0 c -2.061,0 -3.579,-0.927 -4.391,-2.681 l -0.111,-0.241 -0.455,2.624 H -8.65 v -14.224 h 4.424 v 7.435 c 0,2.259 0.798,3.357 2.44,3.357 1.931,0 2.191,-1.521 2.191,-3.01 v -7.782 h 4.4 V -5.45 C 4.805,-1.935 3.098,0 0,0"
               style="fill:#2e3192;fill-opacity:1;fill-rule:nonzero;stroke:none"
               id="path82" />
          </g>
          <g
             id="g84"
             transform="translate(437.4622,712.9106)">
            <path
               d="m 0,0 c -0.13,-1.78 -1.008,-2.679 -2.611,-2.679 -1.756,0 -2.762,1.26 -2.762,3.456 v 0.397 c 0,2.358 0.99,3.656 2.787,3.656 1.579,0 2.441,-0.878 2.563,-2.608 V 2.2 H 4.501 C 4.406,4.953 3.237,6.846 1.027,7.822 -0.084,8.261 -1.309,8.485 -2.611,8.485 -5.468,8.485 -7.631,7.358 -8.866,5.227 -9.484,4.139 -9.798,2.775 -9.798,1.174 V 0.728 c 0,-4.67 2.477,-7.137 7.162,-7.137 2.92,0 4.992,0.922 6.158,2.74 0.591,0.899 0.929,2.12 1.004,3.632 V 0 Z"
               style="fill:#2e3192;fill-opacity:1;fill-rule:nonzero;stroke:none"
               id="path86" />
          </g>
          <g
             id="g88"
             transform="translate(447.8756,715.4164)">
            <path
               d="m 0,0 0.016,0.097 c 0.299,1.741 1.32,2.624 3.034,2.624 1.654,0 2.6,-0.884 2.812,-2.628 L 5.873,0 Z M 7.1,4.999 C 6.065,5.65 4.686,5.979 3.001,5.979 0.05,5.979 -2.164,4.802 -3.402,2.573 -4.013,1.498 -4.31,0.213 -4.31,-1.356 v -0.422 c 0,-4.669 2.502,-7.137 7.236,-7.137 3.848,0 6.24,1.605 7.112,4.772 H 5.413 C 5.038,-5.036 4.222,-5.508 3.05,-5.508 c -1.785,0 -2.806,0.926 -3.034,2.752 l -0.012,0.093 h 10.159 v 1.53 c 0,2.754 -1.059,4.875 -3.063,6.132"
               style="fill:#2e3192;fill-opacity:1;fill-rule:nonzero;stroke:none"
               id="path90" />
          </g>
          <g
             id="g92"
             transform="translate(347.7614,709.6218)">
            <path
               d="m 0,0 c -0.738,-0.831 -1.74,-1.253 -2.98,-1.253 -1.252,0 -2.254,0.422 -2.993,1.253 -0.739,0.831 -1.114,2.014 -1.114,3.548 0,1.533 0.375,2.716 1.114,3.547 0.739,0.831 1.741,1.241 2.993,1.241 1.24,0 2.242,-0.41 2.98,-1.241 C 0.739,6.264 1.115,5.081 1.115,3.548 1.115,2.014 0.739,0.831 0,0 M 1.115,8.219 H 0.989 C 0,9.413 -1.415,10.01 -3.243,10.01 c -1.715,0 -3.106,-0.562 -4.17,-1.697 -1.064,-1.136 -1.603,-2.717 -1.603,-4.765 0,-2.049 0.539,-3.641 1.603,-4.777 1.064,-1.136 2.455,-1.698 4.17,-1.698 1.941,0 3.394,0.632 4.358,1.908 H 1.24 l 0.263,-1.674 h 1.54 V 14.096 H 1.115 Z"
               style="fill:#2e3192;fill-opacity:1;fill-rule:nonzero;stroke:none"
               id="path94" />
          </g>
          <g
             id="g96"
             transform="translate(355.0179,714.2466)">
            <path
               d="M 0,0 C 0.113,1.171 0.551,2.084 1.302,2.74 2.053,3.384 2.993,3.711 4.107,3.711 5.222,3.711 6.148,3.384 6.9,2.74 7.651,2.084 8.089,1.171 8.202,0 Z m 4.095,5.386 c -1.778,0 -3.231,-0.562 -4.346,-1.698 -1.114,-1.136 -1.678,-2.716 -1.678,-4.765 0,-2.049 0.564,-3.641 1.704,-4.777 1.127,-1.136 2.617,-1.698 4.457,-1.698 2.605,0 4.621,1.23 5.51,3.466 H 7.688 C 6.925,-5.28 5.773,-5.877 4.232,-5.877 3.03,-5.877 2.041,-5.503 1.265,-4.754 0.488,-4.016 0.063,-2.95 0,-1.557 h 10.13 v 1.194 c 0,1.189 -0.513,2.669 -1.465,3.817 -0.951,1.147 -2.617,1.932 -4.57,1.932"
               style="fill:#2e3192;fill-opacity:1;fill-rule:nonzero;stroke:none"
               id="path98" />
          </g>
          <g
             id="g100"
             transform="translate(313.9205,736.2184)">
            <path
               d="M 0,0 H 7.269 V 3.73 H 0 V 6.015 H 8.063 V 9.72 H -4.276 V -6.189 H 8.311 V -2.31 H 0 Z"
               style="fill:#2e3192;fill-opacity:1;fill-rule:nonzero;stroke:none"
               id="path102" />
          </g>
          <g
             id="g104"
             transform="translate(333.2067,744.5516)">
            <path
               d="m 0,0 c -2.061,0 -3.579,-0.927 -4.391,-2.681 l -0.111,-0.241 -0.455,2.624 H -8.65 v -14.224 h 4.424 v 7.434 c 0,2.26 0.798,3.358 2.44,3.358 1.931,0 2.191,-1.522 2.191,-3.01 v -7.782 h 4.4 V -5.45 C 4.805,-1.935 3.099,0 0,0"
               style="fill:#2e3192;fill-opacity:1;fill-rule:nonzero;stroke:none"
               id="path106" />
          </g>
          <g
             id="g108"
             transform="translate(339.6287,744.006)">
            <path
               d="m 0,0 v -3.581 h 2.431 v -4.425 c 0,-3.156 0.565,-4.673 2.015,-5.409 0.805,-0.377 1.889,-0.562 3.311,-0.562 h 2.2 v 4.028 H 9.122 c -1.428,0 -2.115,0.14 -2.41,0.973 -0.116,0.461 -0.179,1.12 -0.179,1.863 v 3.532 H 9.957 V 0.248 H 6.533 V 3.845 H 2.974 C 2.957,3.455 2.913,2.639 2.828,1.957 2.703,0.705 2.355,0.282 1.342,0.149 0.872,0.055 0.525,0.005 0,0"
               style="fill:#2e3192;fill-opacity:1;fill-rule:nonzero;stroke:none"
               id="path110" />
          </g>
          <g
             id="g112"
             transform="translate(356.4387,736.3226)">
            <path
               d="M 0,0 C 0,1.889 0.361,2.786 1.289,3.202 1.812,3.437 2.508,3.556 3.358,3.556 H 4.962 V 8.13 H 4.226 C 1.569,8.13 0.243,7.207 -0.209,5.045 L -0.289,4.658 -0.977,7.931 H -4.449 V -6.293 H 0 Z"
               style="fill:#2e3192;fill-opacity:1;fill-rule:nonzero;stroke:none"
               id="path114" />
          </g>
          <g
             id="g116"
             transform="translate(367.1381,738.6686)">
            <path
               d="m 0,0 c 0.299,1.742 1.319,2.625 3.034,2.625 1.654,0 2.6,-0.885 2.811,-2.629 L 5.856,-0.097 H -0.016 Z M 10.022,-4.24 H 5.397 C 5.022,-5.133 4.206,-5.604 3.034,-5.604 1.249,-5.604 0.228,-4.679 0,-2.853 l -0.012,0.093 h 10.158 v 1.53 c 0,2.754 -1.059,4.875 -3.062,6.133 -1.036,0.65 -2.415,0.98 -4.1,0.98 -2.951,0 -5.165,-1.178 -6.403,-3.406 -0.611,-1.075 -0.907,-2.36 -0.907,-3.93 v -0.421 c 0,-4.67 2.502,-7.137 7.236,-7.137 3.847,0 6.239,1.605 7.112,4.771"
               style="fill:#2e3192;fill-opacity:1;fill-rule:nonzero;stroke:none"
               id="path118" />
          </g>
          <g
             id="g120"
             transform="translate(383.7751,736.8686)">
            <path
               d="m 0,0 v 0.322 c 0,2.355 1.025,3.705 2.812,3.705 1.771,0 2.787,-1.359 2.787,-3.729 V -0.05 C 5.599,-2.247 4.574,-3.506 2.787,-3.506 1.042,-3.506 0,-2.196 0,0 m 9.163,-4.083 c 0.495,1.065 0.736,2.36 0.736,3.959 V 0.298 C 9.899,5.06 7.911,7.683 4.3,7.683 2.271,7.683 0.796,6.739 0.035,4.954 l -0.111,-0.259 -0.457,2.69 h -3.693 v -18.28 H 0.05 v 6.418 l 0.157,-0.325 c 0.741,-1.533 2.126,-2.31 4.118,-2.31 2.245,0 3.918,1.047 4.838,3.029"
               style="fill:#2e3192;fill-opacity:1;fill-rule:nonzero;stroke:none"
               id="path122" />
          </g>
          <g
             id="g124"
             transform="translate(395.9914,730.0295)">
            <path
               d="m 0,0 h 4.449 v 6.293 c 0,1.889 0.362,2.787 1.29,3.202 0.522,0.235 1.218,0.354 2.068,0.354 h 1.604 v 4.574 H 8.675 C 6.018,14.423 4.692,13.5 4.241,11.338 L 4.16,10.951 3.472,14.224 H 0 Z"
               style="fill:#2e3192;fill-opacity:1;fill-rule:nonzero;stroke:none"
               id="path126" />
          </g>
          <g
             id="g128"
             transform="translate(409.4527,749.563)">
            <path
               d="m 0,0 c -1.887,0 -2.622,-0.61 -2.622,-2.175 0,-1.607 0.662,-2.15 2.622,-2.15 1.887,0 2.622,0.603 2.622,2.15 C 2.622,-0.63 1.862,0 0,0"
               style="fill:#2e3192;fill-opacity:1;fill-rule:nonzero;stroke:none"
               id="path130" />
          </g>
          <g
             id="g132"
             transform="translate(410.2154,743.9225)">
            <path
               d="m 0,0 c -0.278,-0.022 -0.519,-0.041 -0.763,-0.041 -0.508,0 -1.256,0.051 -1.82,0.124 C -2.781,0.1 -2.926,0.128 -3.037,0.174 V -13.893 H 1.487 V 0.215 C 1.221,0.124 0.688,0.03 0.109,0.009 Z"
               style="fill:#2e3192;fill-opacity:1;fill-rule:nonzero;stroke:none"
               id="path134" />
          </g>
          <g
             id="g136"
             transform="translate(425.3505,737.7638)">
            <path
               d="m 0,0 c -1.092,0.596 -2.396,0.836 -3.643,1.008 l -0.045,0.005 c -2.177,0.279 -3.376,0.432 -3.376,1.392 0,0.592 0.342,1.298 1.969,1.298 1.372,0 2.149,-0.503 2.374,-1.538 h 4.278 c -0.488,3.084 -2.709,4.647 -6.603,4.647 -3.878,0 -6.194,-1.749 -6.194,-4.68 0,-1.559 0.57,-2.614 1.742,-3.227 1.06,-0.591 2.357,-0.81 3.595,-0.984 1.071,-0.111 2.269,-0.259 2.906,-0.604 0.342,-0.184 0.515,-0.459 0.515,-0.817 0,-0.895 -0.712,-1.348 -2.117,-1.348 -1.48,0 -2.394,0.592 -2.718,1.761 h -4.505 c 0.513,-3.347 2.868,-5.045 6.999,-5.045 2.79,0 4.817,0.828 5.861,2.395 0.475,0.774 0.706,1.604 0.706,2.535 C 1.744,-1.703 1.173,-0.655 0,0"
               style="fill:#2e3192;fill-opacity:1;fill-rule:nonzero;stroke:none"
               id="path138" />
          </g>
          <g
             id="g140"
             transform="translate(432.9072,738.5721)">
            <path
               d="m 0,0 0.016,0.097 c 0.299,1.741 1.32,2.624 3.035,2.624 1.653,0 2.599,-0.884 2.811,-2.628 L 5.873,0 Z M 7.1,5 C 6.064,5.65 4.685,5.979 3.001,5.979 0.05,5.979 -2.164,4.802 -3.402,2.573 -4.013,1.498 -4.31,0.213 -4.31,-1.356 v -0.422 c 0,-4.669 2.502,-7.137 7.236,-7.137 3.848,0 6.24,1.605 7.112,4.772 H 5.413 C 5.038,-5.036 4.222,-5.508 3.051,-5.508 c -1.786,0 -2.807,0.926 -3.035,2.752 l -0.012,0.093 h 10.159 v 1.53 C 10.163,1.621 9.104,3.741 7.1,5"
               style="fill:#2e3192;fill-opacity:1;fill-rule:nonzero;stroke:none"
               id="path142" />
          </g>
          <g
             id="g144"
             transform="translate(456.2943,737.7638)">
            <path
               d="m 0,0 c -1.092,0.596 -2.396,0.836 -3.643,1.008 l -0.044,0.005 c -2.177,0.279 -3.377,0.432 -3.377,1.392 0,0.592 0.342,1.298 1.969,1.298 1.372,0 2.149,-0.503 2.374,-1.538 h 4.278 c -0.488,3.084 -2.709,4.647 -6.603,4.647 -3.878,0 -6.194,-1.749 -6.194,-4.68 0,-1.559 0.57,-2.614 1.742,-3.227 1.06,-0.591 2.357,-0.81 3.595,-0.984 1.071,-0.111 2.269,-0.259 2.906,-0.604 0.342,-0.184 0.515,-0.459 0.515,-0.817 0,-0.895 -0.712,-1.348 -2.117,-1.348 -1.48,0 -2.394,0.592 -2.718,1.761 h -4.505 c 0.513,-3.347 2.868,-5.045 6.999,-5.045 2.79,0 4.817,0.828 5.861,2.395 0.475,0.774 0.706,1.604 0.706,2.535 C 1.744,-1.703 1.173,-0.655 0,0"
               style="fill:#2e3192;fill-opacity:1;fill-rule:nonzero;stroke:none"
               id="path146" />
          </g>
          <g
             id="g148"
             transform="translate(274.7375,732.8782)">
            <path
               d="m 0,0 c -0.738,-0.831 -1.74,-1.253 -2.98,-1.253 -1.252,0 -2.254,0.422 -2.993,1.253 -0.739,0.831 -1.114,2.014 -1.114,3.547 0,1.534 0.375,2.717 1.114,3.548 0.739,0.831 1.741,1.241 2.993,1.241 1.24,0 2.242,-0.41 2.98,-1.241 C 0.739,6.264 1.115,5.081 1.115,3.547 1.115,2.014 0.739,0.831 0,0 M 1.115,8.219 H 0.989 C 0,9.413 -1.415,10.01 -3.243,10.01 c -1.715,0 -3.106,-0.562 -4.17,-1.697 -1.064,-1.136 -1.603,-2.717 -1.603,-4.766 0,-2.048 0.539,-3.64 1.603,-4.776 1.064,-1.136 2.455,-1.698 4.17,-1.698 1.941,0 3.394,0.632 4.358,1.908 H 1.24 l 0.263,-1.674 h 1.54 V 14.096 H 1.115 Z"
               style="fill:#2e3192;fill-opacity:1;fill-rule:nonzero;stroke:none"
               id="path150" />
          </g>
          <g
             id="g152"
             transform="translate(281.994,737.503)">
            <path
               d="M 0,0 C 0.113,1.171 0.551,2.084 1.302,2.74 2.053,3.384 2.993,3.711 4.107,3.711 5.222,3.711 6.148,3.384 6.9,2.74 7.651,2.084 8.089,1.171 8.202,0 Z m 4.095,5.386 c -1.778,0 -3.231,-0.562 -4.346,-1.698 -1.114,-1.136 -1.678,-2.716 -1.678,-4.765 0,-2.049 0.564,-3.641 1.704,-4.777 1.127,-1.136 2.617,-1.698 4.457,-1.698 2.605,0 4.621,1.23 5.51,3.466 H 7.688 C 6.925,-5.28 5.773,-5.877 4.232,-5.877 3.03,-5.877 2.041,-5.503 1.265,-4.754 0.488,-4.016 0.063,-2.95 0,-1.557 h 10.13 v 1.194 c 0,1.189 -0.513,2.669 -1.465,3.817 -0.951,1.147 -2.617,1.932 -4.57,1.932"
               style="fill:#2e3192;fill-opacity:1;fill-rule:nonzero;stroke:none"
               id="path154" />
          </g>
          <g
             id="g156"
             transform="translate(300.8327,736.777)">
            <path
               d="m 0,0 c -0.789,0.199 -1.565,0.375 -2.342,0.539 -0.776,0.152 -1.44,0.397 -1.978,0.725 -0.551,0.316 -0.827,0.773 -0.827,1.37 0,1.124 0.927,1.803 2.818,1.803 1.44,0 2.392,-0.48 2.83,-1.44 H 2.542 C 2.292,3.992 1.716,4.753 0.814,5.304 -0.088,5.842 -1.139,6.112 -2.329,6.112 -3.744,6.112 -4.896,5.772 -5.76,5.081 -6.637,4.39 -7.075,3.583 -7.075,2.634 c 0,-0.784 0.2,-1.428 0.601,-1.955 0.388,-0.527 0.889,-0.902 1.478,-1.101 0.588,-0.21 1.214,-0.398 1.903,-0.573 0.689,-0.176 1.327,-0.328 1.916,-0.445 1.177,-0.246 2.054,-0.843 2.054,-1.791 0,-1.16 -1.115,-1.92 -3.206,-1.92 -1.465,0 -2.68,0.632 -3.068,1.791 h -2.054 c 0.251,-1.042 0.839,-1.874 1.766,-2.506 0.914,-0.644 2.041,-0.96 3.356,-0.96 1.553,0 2.793,0.352 3.732,1.054 0.939,0.702 1.402,1.545 1.402,2.541 0,0.878 -0.275,1.58 -0.814,2.119 C 1.44,-0.574 0.776,-0.199 0,0"
               style="fill:#2e3192;fill-opacity:1;fill-rule:nonzero;stroke:none"
               id="path158" />
          </g>
          <g
             id="g160"
             transform="translate(333.5775,757.2599)">
            <path
               d="M 0,0 6.198,8.789 H 6.309 L 6.31,-5.109 H 8.195 V 11.038 H 5.494 L 0,3.248 -5.494,11.038 H -8.195 V -5.109 h 1.886 V 8.789 h 0.111 z"
               style="fill:#2e3192;fill-opacity:1;fill-rule:nonzero;stroke:none"
               id="path162" />
          </g>
          <g
             id="g164"
             transform="translate(347.557,762.1646)">
            <path
               d="M 0,0 C 0.797,0.854 1.852,1.287 3.151,1.287 4.451,1.287 5.493,0.854 6.303,0 7.1,-0.866 7.499,-2.081 7.499,-3.633 7.499,-5.196 7.1,-6.411 6.303,-7.265 5.493,-8.131 4.451,-8.564 3.151,-8.564 c -1.299,0 -2.354,0.433 -3.151,1.299 -0.797,0.854 -1.196,2.069 -1.196,3.632 0,1.552 0.399,2.767 1.196,3.633 m 3.151,-10.284 c 1.891,0 3.422,0.577 4.58,1.744 1.157,1.166 1.736,2.802 1.736,4.907 0,2.105 -0.579,3.729 -1.736,4.896 -1.158,1.167 -2.689,1.744 -4.58,1.744 -1.903,0 -3.434,-0.577 -4.592,-1.744 -1.157,-1.167 -1.736,-2.791 -1.736,-4.896 0,-2.105 0.579,-3.741 1.736,-4.907 1.158,-1.167 2.689,-1.744 4.592,-1.744"
               style="fill:#2e3192;fill-opacity:1;fill-rule:nonzero;stroke:none"
               id="path166" />
          </g>
          <g
             id="g168"
             transform="translate(364.6653,751.8802)">
            <path
               d="m 0,0 c 1.814,0 3.126,0.65 3.949,1.961 h 0.129 l 0.27,-1.72 H 5.93 v 12.81 H 3.949 V 5.172 C 3.949,4.234 3.589,3.428 2.881,2.742 2.174,2.057 1.299,1.72 0.257,1.72 c -1.016,0 -1.839,0.301 -2.47,0.914 -0.63,0.614 -0.952,1.456 -0.952,2.538 v 7.879 h -1.98 V 5.172 c 0,-1.563 0.488,-2.814 1.466,-3.753 C -2.701,0.469 -1.479,0 0,0"
               style="fill:#2e3192;fill-opacity:1;fill-rule:nonzero;stroke:none"
               id="path170" />
          </g>
          <g
             id="g172"
             transform="translate(379.664,752.1208)">
            <path
               d="M 0,0 5.403,12.81 H 3.293 L -1.055,2.346 H -1.183 L -5.531,12.81 h -2.11 L -2.238,0 Z"
               style="fill:#2e3192;fill-opacity:1;fill-rule:nonzero;stroke:none"
               id="path174" />
          </g>
          <g
             id="g176"
             transform="translate(387.5748,759.6387)">
            <path
               d="M 0,0 C 0.116,1.203 0.566,2.141 1.338,2.815 2.11,3.476 3.075,3.813 4.22,3.813 5.365,3.813 6.316,3.476 7.089,2.815 7.86,2.141 8.311,1.203 8.427,0 Z m 4.207,5.533 c -1.827,0 -3.32,-0.577 -4.464,-1.744 -1.145,-1.167 -1.724,-2.791 -1.724,-4.896 0,-2.105 0.579,-3.74 1.75,-4.907 1.157,-1.167 2.688,-1.745 4.579,-1.745 2.676,0 4.748,1.264 5.661,3.561 h -2.11 c -0.785,-1.227 -1.968,-1.84 -3.551,-1.84 -1.235,0 -2.251,0.384 -3.049,1.154 C 0.502,-4.126 0.064,-3.031 0,-1.6 h 10.408 v 1.227 C 10.408,0.848 9.88,2.369 8.903,3.548 7.925,4.727 6.214,5.533 4.207,5.533"
               style="fill:#2e3192;fill-opacity:1;fill-rule:nonzero;stroke:none"
               id="path178" />
          </g>
          <g
             id="g180"
             transform="translate(402.4451,760.0297)">
            <path
               d="M 0,0 C 0,0.974 0.335,1.792 0.991,2.454 1.647,3.115 2.418,3.452 3.293,3.452 4.245,3.452 5.017,3.151 5.596,2.538 6.174,1.924 6.458,1.083 6.458,0 V -7.879 H 8.426 V 0 c 0,0.986 0.321,1.804 0.951,2.466 0.631,0.661 1.403,0.986 2.342,0.986 0.951,0 1.723,-0.301 2.302,-0.914 C 14.6,1.924 14.883,1.083 14.883,0 v -7.879 h 1.981 V 0 c 0,1.564 -0.45,2.815 -1.351,3.765 C 14.6,4.703 13.468,5.172 12.117,5.172 10.111,5.184 8.657,4.402 7.77,2.839 H 7.641 C 6.831,4.318 5.403,5.172 3.692,5.172 2.058,5.184 0.823,4.523 0,3.211 H -0.128 L -0.399,4.932 H -1.981 V -7.879 H 0 Z"
               style="fill:#2e3192;fill-opacity:1;fill-rule:nonzero;stroke:none"
               id="path182" />
          </g>
          <g
             id="g184"
             transform="translate(423.6432,759.6387)">
            <path
               d="M 0,0 C 0.116,1.203 0.566,2.141 1.338,2.815 2.11,3.476 3.075,3.813 4.22,3.813 5.365,3.813 6.316,3.476 7.089,2.815 7.86,2.141 8.311,1.203 8.427,0 Z m 4.207,5.533 c -1.827,0 -3.32,-0.577 -4.464,-1.744 -1.145,-1.167 -1.724,-2.791 -1.724,-4.896 0,-2.105 0.579,-3.74 1.75,-4.907 1.157,-1.167 2.688,-1.745 4.579,-1.745 2.676,0 4.748,1.264 5.661,3.561 h -2.11 c -0.785,-1.227 -1.968,-1.84 -3.551,-1.84 -1.235,0 -2.251,0.384 -3.049,1.154 C 0.502,-4.126 0.064,-3.031 0,-1.6 h 10.408 v 1.227 C 10.408,0.848 9.88,2.369 8.903,3.548 7.925,4.727 6.214,5.533 4.207,5.533"
               style="fill:#2e3192;fill-opacity:1;fill-rule:nonzero;stroke:none"
               id="path186" />
          </g>
          <g
             id="g188"
             transform="translate(438.5142,760.0297)">
            <path
               d="M 0,0 C 0,0.938 0.36,1.744 1.067,2.43 1.775,3.115 2.65,3.452 3.692,3.452 4.708,3.452 5.531,3.151 6.162,2.538 6.792,1.924 7.113,1.083 7.113,0 V -7.879 H 9.094 V 0 C 9.094,1.564 8.605,2.815 7.628,3.765 6.65,4.703 5.428,5.172 3.949,5.172 2.135,5.184 0.823,4.523 0,3.211 h -0.129 l -0.27,1.721 H -1.981 V -7.879 H 0 Z"
               style="fill:#2e3192;fill-opacity:1;fill-rule:nonzero;stroke:none"
               id="path190" />
          </g>
          <g
             id="g192"
             transform="translate(453.5027,755.3326)">
            <path
               d="M 0,0 V 7.846 H 3.573 L 1.859,9.557 H 0 v 1.859 l -1.543,1.546 H -1.97 V 9.557 H -4.068 V 7.846 H -1.97 V 0 c 0,-0.909 0.32,-1.663 0.972,-2.273 0.64,-0.61 1.446,-0.909 2.431,-0.909 H 3.53 v 1.711 H 1.573 C 0.652,-1.471 0,-0.849 0,0"
               style="fill:#2e3192;fill-opacity:1;fill-rule:nonzero;stroke:none"
               id="path194" />
          </g>
        </g>
      </g>
    </g>
  </g>
</svg>
