<svg width="525" height="834" viewBox="0 0 525 834" fill="none" xmlns="http://www.w3.org/2000/svg">
<g filter="url(#filter0_dddf_1_58)">
<path d="M262.5 808C121.944 808 8 694.056 8 553.5L8 258.5C8 117.944 121.944 4 262.5 4V4C403.056 4 517 117.944 517 258.5V553.5C517 694.056 403.056 808 262.5 808V808Z" fill="#091158"/>
</g>
<g filter="url(#filter1_dddf_1_58)">
<path d="M262.5 814C121.944 814 8 700.056 8 559.5L8 264.5C8 123.944 121.944 10 262.5 10V10C403.056 10 517 123.944 517 264.5V559.5C517 700.056 403.056 814 262.5 814V814Z" fill="#091158"/>
</g>
<path d="M8 559.5L8 264.5C8 123.944 121.944 10.0001 262.5 10.0001C403.056 10.0001 517 123.944 517 264.5V559.5C517 700.056 403.056 814 262.5 814C121.944 814 8 700.057 8 559.5Z" stroke="white" stroke-width="8"/>
<path d="M8 559.5L8 264.5C8 123.944 121.944 10.0001 262.5 10.0001C403.056 10.0001 517 123.944 517 264.5V559.5C517 700.056 403.056 814 262.5 814C121.944 814 8 700.057 8 559.5Z" stroke="white" stroke-width="8"/>
<path d="M334.789 137.153C332.071 142.667 322.83 157.369 307.61 172.072C288.585 190.45 265.03 220.774 262.312 275.909" stroke="#FFA63C" stroke-width="6" stroke-linecap="round"/>
<path d="M171.478 205.326C171.322 206.133 171.152 206.805 170.976 207.342C164.723 200.192 165.341 191.539 166.17 185.251C166.631 181.76 168.332 179.201 169.568 178.364C169.691 178.28 169.786 178.228 169.856 178.195C170 178.375 170.268 178.803 170.525 179.729C170.843 180.874 171.153 182.055 171.443 183.207C171.945 185.199 172.233 187.228 172.288 189.265C172.438 194.747 172.285 201.134 171.478 205.326ZM170.011 178.145C170.01 178.147 169.997 178.15 169.973 178.15C169.999 178.143 170.011 178.143 170.011 178.145Z" fill="#FFA63C" stroke="#FFA63C" stroke-width="6" stroke-linecap="round"/>
<path d="M188.929 137.153C191.647 142.667 200.888 157.369 216.108 172.072C235.133 190.45 258.688 220.774 261.406 275.909" stroke="#FFA63C" stroke-width="6" stroke-linecap="round"/>
<path d="M455 266.659C455 376.434 367.861 465.317 260.5 465.317C153.139 465.317 66 376.434 66 266.659C66 156.883 153.139 68 260.5 68C367.861 68 455 156.883 455 266.659Z" stroke="#FFA63C" stroke-width="6"/>
<path d="M198.895 203.756C201.611 211.156 211.026 230.027 226.961 246.308C246.879 266.659 261.365 284.234 260.46 342.512" stroke="#FFA63C" stroke-width="6" stroke-linecap="round"/>
<path d="M141.819 168.604C139.101 177.238 143.45 200.981 182.587 226.882C231.509 259.258 226.979 248.158 245.099 268.509" stroke="#FFA63C" stroke-width="6" stroke-linecap="round"/>
<path d="M401.83 300.115C388.754 304.935 360.639 310.911 345.661 296.26" stroke="#FFA63C" stroke-width="6" stroke-linecap="round"/>
<path d="M260.5 123.278V167.679" stroke="#FFA63C" stroke-width="6" stroke-linecap="round"/>
<path d="M260.5 182.48V215.782" stroke="#FFA63C" stroke-width="6" stroke-linecap="round"/>
<path d="M120.982 299.19C134.058 304.01 162.173 309.986 177.151 295.335" stroke="#FFA63C" stroke-width="6" stroke-linecap="round"/>
<path d="M379.439 168.604C382.14 177.238 377.818 200.981 338.926 226.882C290.311 259.258 294.813 248.158 276.807 268.509" stroke="#FFA63C" stroke-width="6" stroke-linecap="round"/>
<path d="M322.105 203.756C319.389 211.156 309.974 230.027 294.039 246.308C274.121 266.659 259.635 284.234 260.54 342.512" stroke="#FFA63C" stroke-width="6" stroke-linecap="round"/>
<path d="M260.5 356.388V645" stroke="#FFA63C" stroke-width="6" stroke-linecap="round"/>
<path d="M195.271 268.509C196.781 278.376 204.33 300.7 222.45 311.061C245.099 324.011 254.158 340.662 260.5 353.612" stroke="#FFA63C" stroke-width="6" stroke-linecap="round"/>
<path d="M325.729 268.509C324.219 278.376 316.67 300.7 298.55 311.061C275.901 324.011 266.842 340.662 260.5 353.612" stroke="#FFA63C" stroke-width="6" stroke-linecap="round"/>
<path d="M357.438 356.507C352.962 354.343 340.427 347.23 326.102 336.096C308.196 322.18 305.51 305.48 281.337 324.035" stroke="#FFA63C" stroke-width="6" stroke-linecap="round"/>
<path d="M164.468 357.313C168.944 355.148 181.479 348.035 195.804 336.902C213.71 322.985 216.396 306.285 240.569 324.841" stroke="#FFA63C" stroke-width="6" stroke-linecap="round"/>
<path d="M384.617 237.057C375.557 261.417 345.842 310.691 299.456 312.911" stroke="#FFA63C" stroke-width="6" stroke-linecap="round"/>
<path d="M137.289 237.057C146.349 261.417 176.064 310.691 222.45 312.911" stroke="#FFA63C" stroke-width="6" stroke-linecap="round"/>
<path d="M248.012 155.171C249.056 158.296 250.019 161.853 250.277 164.368C246.207 161.56 245.253 157.189 244.725 153.584C244.59 152.66 244.655 151.771 244.844 151.028C244.953 150.604 245.09 150.271 245.222 150.025C245.228 150.035 245.235 150.045 245.242 150.055L247.717 148.342L245.242 150.055C245.626 150.621 246.011 151.207 246.382 151.784C247.067 152.85 247.616 153.985 248.012 155.171ZM244.802 149.549C244.802 149.548 244.807 149.551 244.816 149.557C244.806 149.552 244.802 149.549 244.802 149.549ZM250.274 166.307C250.274 166.307 250.274 166.306 250.274 166.305C250.274 166.306 250.274 166.307 250.274 166.307ZM252.004 165.354C252.009 165.355 252.012 165.356 252.012 165.356C252.012 165.356 252.009 165.356 252.004 165.354Z" fill="#FFA63C" stroke="#FFA63C" stroke-width="6" stroke-linecap="round"/>
<path d="M274.323 155C272.883 157.96 271.468 161.359 270.888 163.815C275.296 161.584 276.807 157.378 277.797 153.874C278.051 152.977 278.101 152.088 278.009 151.327C277.956 150.885 277.861 150.532 277.76 150.268C277.749 150.28 277.738 150.292 277.727 150.305C277.274 150.813 276.819 151.34 276.378 151.86C275.56 152.825 274.869 153.877 274.323 155ZM278.228 149.863C278.228 149.863 278.223 149.865 278.213 149.87C278.223 149.866 278.229 149.863 278.228 149.863ZM270.644 165.722C270.644 165.722 270.644 165.721 270.643 165.72C270.643 165.721 270.644 165.722 270.644 165.722ZM269.065 164.551C269.06 164.551 269.057 164.552 269.057 164.552C269.057 164.552 269.06 164.552 269.065 164.551Z" fill="#FFA63C" stroke="#FFA63C" stroke-width="6" stroke-linecap="round"/>
<path d="M292.877 168.325C292.721 169.132 292.551 169.804 292.375 170.34C286.122 163.19 286.74 154.538 287.569 148.249C288.03 144.758 289.731 142.199 290.967 141.362C291.09 141.278 291.185 141.226 291.255 141.193C291.399 141.373 291.667 141.801 291.924 142.727C292.242 143.873 292.552 145.053 292.843 146.205C293.344 148.197 293.632 150.226 293.687 152.263C293.837 157.745 293.684 164.132 292.877 168.325ZM291.41 141.143C291.409 141.145 291.396 141.149 291.372 141.148C291.398 141.141 291.41 141.141 291.41 141.143Z" fill="#FFA63C" stroke="#FFA63C" stroke-width="6" stroke-linecap="round"/>
<path d="M354.482 268.229C354.327 269.036 354.157 269.708 353.981 270.244C347.728 263.094 348.345 254.442 349.175 248.153C349.635 244.663 351.337 242.104 352.573 241.266C352.696 241.183 352.791 241.13 352.86 241.098C353.005 241.277 353.272 241.705 353.53 242.632C353.848 243.777 354.158 244.957 354.448 246.109C354.95 248.101 355.237 250.131 355.293 252.168C355.442 257.649 355.289 264.036 354.482 268.229ZM353.015 241.048C353.015 241.049 353.002 241.053 352.978 241.053C353.004 241.046 353.016 241.046 353.015 241.048Z" fill="#FFA63C" stroke="#FFA63C" stroke-width="6" stroke-linecap="round"/>
<path d="M138.568 266.254C139.192 266.823 139.681 267.329 140.042 267.764C130.795 269.683 123.814 264.727 118.924 260.782C116.226 258.605 114.949 255.831 114.879 254.325C114.869 254.113 114.883 253.976 114.899 253.894C115.093 253.852 115.594 253.805 116.595 254.076C117.698 254.374 118.825 254.696 119.92 255.021C121.867 255.598 123.736 256.386 125.494 257.383C130.186 260.045 135.468 263.424 138.568 266.254ZM114.935 253.787C114.936 253.788 114.932 253.8 114.918 253.819C114.927 253.795 114.933 253.785 114.935 253.787Z" fill="#FFA63C" stroke="#FFA63C" stroke-width="6" stroke-linecap="round"/>
<path d="M386.892 265.266C386.399 265.946 386.022 266.539 385.753 267.038C395.177 266.991 401.031 260.696 405.035 255.827C407.249 253.135 407.951 250.147 407.722 248.656C407.693 248.463 407.657 248.338 407.627 248.26C407.42 248.262 406.922 248.328 406.018 248.788C404.991 249.311 403.945 249.863 402.931 250.41C401.142 251.376 399.47 252.532 397.949 253.868C393.881 257.445 389.373 261.849 386.892 265.266ZM407.568 248.15C407.567 248.151 407.573 248.163 407.59 248.179C407.577 248.156 407.568 248.148 407.568 248.15Z" fill="#FFA63C" stroke="#FFA63C" stroke-width="6" stroke-linecap="round"/>
<path d="M402.196 195.602L402.308 192.597L402.196 195.602C400.166 195.542 398.146 195.706 396.169 196.106C390.904 197.17 384.869 198.731 381.075 200.451C380.303 200.801 379.682 201.133 379.207 201.435C387.436 206.178 395.57 203.648 401.413 201.423C404.633 200.198 406.677 197.962 407.193 196.552C407.272 196.335 407.299 196.194 407.306 196.11C407.144 196.011 406.684 195.8 405.623 195.743C404.49 195.682 403.329 195.636 402.196 195.602ZM407.301 196.01C407.299 196.011 407.3 196.023 407.308 196.045C407.306 196.02 407.302 196.009 407.301 196.01Z" fill="#FFA63C" stroke="#FFA63C" stroke-width="6" stroke-linecap="round"/>
<path d="M374.199 191.071C373.719 191.742 373.284 192.281 372.901 192.691C370.171 183.507 374.309 175.928 377.663 170.581C379.522 167.617 382.117 166.034 383.582 165.809C383.742 165.785 383.857 165.779 383.935 165.781C383.993 165.999 384.065 166.504 383.912 167.476C383.728 168.645 383.522 169.843 383.31 171.006C382.941 173.031 382.362 174.998 381.568 176.872C379.438 181.905 376.66 187.624 374.199 191.071ZM384.083 165.804C384.081 165.805 384.068 165.803 384.047 165.792C384.073 165.797 384.084 165.803 384.083 165.804Z" fill="#FFA63C" stroke="#FFA63C" stroke-width="6" stroke-linecap="round"/>
<path d="M147.725 191.614C148.116 192.338 148.479 192.927 148.808 193.383C152.644 184.628 149.478 176.576 146.814 170.841C145.336 167.659 142.955 165.752 141.529 165.339C141.38 165.296 141.27 165.276 141.193 165.267C141.109 165.479 140.978 165.97 141.009 166.944C141.047 168.131 141.103 169.348 141.17 170.533C141.285 172.588 141.616 174.612 142.17 176.571C143.661 181.839 145.708 187.873 147.725 191.614ZM141.038 165.269C141.039 165.271 141.052 165.27 141.075 165.262C141.048 165.263 141.037 165.267 141.038 165.269Z" fill="#FFA63C" stroke="#FFA63C" stroke-width="6" stroke-linecap="round"/>
<path d="M346.361 149.161C342.719 150.255 338.628 151.721 336.047 153.134C341.317 154.779 346.149 152.79 349.863 150.983C350.852 150.502 351.688 149.861 352.305 149.201C352.623 148.861 352.855 148.547 353.018 148.279C353.009 148.279 353 148.28 352.991 148.28C352.164 148.315 351.315 148.364 350.487 148.419C349.081 148.514 347.698 148.759 346.361 149.161ZM353.845 148.347C353.846 148.347 353.843 148.345 353.836 148.343C353.842 148.346 353.845 148.347 353.845 148.347ZM333.95 152.271C333.95 152.271 333.953 152.274 333.959 152.278C333.953 152.273 333.95 152.271 333.95 152.271Z" fill="#FFA63C" stroke="#FFA63C" stroke-width="6" stroke-linecap="round"/>
<path d="M175.555 148.439C179.152 149.674 183.184 151.299 185.71 152.813C180.383 154.247 175.63 152.07 171.988 150.119C171.018 149.599 170.206 148.925 169.615 148.242C169.311 147.891 169.092 147.569 168.939 147.296C168.947 147.296 168.954 147.297 168.962 147.298C169.788 147.366 170.635 147.447 171.461 147.535C172.862 147.685 174.235 147.985 175.555 148.439ZM168.105 147.331C168.105 147.331 168.108 147.33 168.115 147.327C168.109 147.33 168.106 147.331 168.105 147.331ZM187.844 152.032C187.844 152.032 187.841 152.034 187.834 152.039C187.84 152.034 187.844 152.032 187.844 152.032Z" fill="#FFA63C" stroke="#FFA63C" stroke-width="6" stroke-linecap="round"/>
<path d="M146.187 219.732C148.865 219.202 151.76 218.848 153.714 218.981C152.452 220.803 151.023 221.728 149.659 222.24C147.969 222.874 146.2 222.943 144.516 222.917C143.05 222.894 142.015 222.179 141.66 221.682C141.715 221.641 141.788 221.594 141.882 221.54C142.296 221.303 142.719 221.068 143.139 220.841C144.111 220.315 145.136 219.939 146.187 219.732ZM141.558 221.502C141.559 221.502 141.56 221.505 141.561 221.51C141.559 221.505 141.558 221.502 141.558 221.502ZM141.506 221.817C141.5 221.829 141.495 221.834 141.495 221.834C141.494 221.834 141.497 221.828 141.506 221.817Z" fill="#FFA63C" stroke="#FFA63C" stroke-width="6" stroke-linecap="round"/>
<path d="M375.894 219.482C373.207 219.005 370.306 218.707 368.355 218.877C369.651 220.675 371.096 221.573 372.47 222.058C374.171 222.659 375.941 222.694 377.623 222.635C379.089 222.584 380.111 221.849 380.457 221.345C380.401 221.305 380.327 221.259 380.232 221.207C379.814 220.978 379.386 220.752 378.962 220.533C377.981 220.026 376.949 219.67 375.894 219.482ZM380.554 221.164C380.554 221.164 380.553 221.166 380.552 221.172C380.554 221.166 380.555 221.163 380.554 221.164ZM380.613 221.477C380.619 221.488 380.624 221.493 380.624 221.493C380.625 221.493 380.621 221.488 380.613 221.477Z" fill="#FFA63C" stroke="#FFA63C" stroke-width="6" stroke-linecap="round"/>
<path d="M145.638 320.126C148.179 318.048 151.14 315.908 153.358 314.82C152.192 319.738 148.483 322.145 145.331 323.886C144.531 324.327 143.697 324.566 142.956 324.635C142.483 324.68 142.101 324.652 141.819 324.597C141.839 324.567 141.861 324.536 141.884 324.503C142.267 323.953 142.666 323.396 143.063 322.855C143.815 321.83 144.677 320.913 145.638 320.126ZM141.57 325.094C141.569 325.094 141.57 325.088 141.573 325.077C141.572 325.088 141.57 325.094 141.57 325.094ZM155.062 314.199C155.062 314.199 155.061 314.199 155.059 314.199C155.061 314.199 155.062 314.199 155.062 314.199ZM153.651 312.936C153.65 312.931 153.65 312.928 153.65 312.928C153.65 312.928 153.65 312.931 153.651 312.936Z" fill="#FFA63C" stroke="#FFA63C" stroke-width="6" stroke-linecap="round"/>
<path d="M376.144 320.509C373.742 318.269 370.923 315.939 368.778 314.705C369.635 319.684 373.183 322.329 376.217 324.274C376.988 324.767 377.806 325.06 378.542 325.179C379.006 325.254 379.386 325.252 379.669 325.217C379.652 325.188 379.635 325.158 379.615 325.126L382.14 323.538L379.615 325.126C379.267 324.551 378.902 323.968 378.54 323.4C377.855 322.328 377.053 321.357 376.144 320.509ZM379.892 325.738C379.892 325.738 379.892 325.732 379.889 325.72C379.89 325.732 379.891 325.738 379.892 325.738ZM367.107 313.968C367.107 313.968 367.108 313.968 367.111 313.969C367.108 313.968 367.107 313.968 367.107 313.968ZM368.603 312.793C368.604 312.788 368.604 312.785 368.604 312.785C368.604 312.785 368.603 312.788 368.603 312.793Z" fill="#FFA63C" stroke="#FFA63C" stroke-width="6" stroke-linecap="round"/>
<path d="M195.623 355.127C197.877 351.403 200.688 347.191 202.978 344.612C202.713 350.782 199.133 355.67 196.191 359.267C195.367 360.275 194.419 361.082 193.518 361.64C193.187 361.845 192.883 362.004 192.611 362.126C192.924 361.214 193.256 360.282 193.587 359.38C194.133 357.892 194.813 356.467 195.623 355.127ZM202.835 341.699C202.835 341.699 202.837 341.704 202.84 341.717C202.836 341.706 202.835 341.699 202.835 341.699Z" fill="#FFA63C" stroke="#FFA63C" stroke-width="6" stroke-linecap="round"/>
<path d="M325.479 355.858C323.371 352.048 320.725 347.728 318.536 345.059C318.567 351.232 321.956 356.258 324.756 359.969C325.541 361.009 326.458 361.854 327.337 362.448C327.657 362.664 327.953 362.835 328.218 362.967C327.941 362.044 327.645 361.101 327.35 360.187C326.861 358.679 326.237 357.228 325.479 355.858ZM318.791 342.145C318.791 342.144 318.789 342.15 318.785 342.162C318.789 342.151 318.791 342.145 318.791 342.145Z" fill="#FFA63C" stroke="#FFA63C" stroke-width="6" stroke-linecap="round"/>
<path d="M139.947 199.424C140.71 199.793 141.323 200.14 141.79 200.454C133.449 204.986 125.378 202.249 119.592 199.877C116.403 198.569 114.414 196.283 113.932 194.859C113.859 194.642 113.835 194.5 113.83 194.416C113.995 194.321 114.461 194.123 115.521 194.093C116.655 194.06 117.818 194.043 118.952 194.039C120.982 194.03 122.998 194.246 124.964 194.695C130.201 195.894 136.196 197.607 139.947 199.424ZM113.838 194.315C113.839 194.316 113.838 194.329 113.83 194.35C113.832 194.325 113.836 194.314 113.838 194.315Z" fill="#FFA63C" stroke="#FFA63C" stroke-width="6" stroke-linecap="round"/>
<path d="M349.522 205.326C349.678 206.133 349.848 206.805 350.024 207.342C356.277 200.192 355.659 191.539 354.83 185.251C354.369 181.76 352.668 179.201 351.432 178.364C351.309 178.28 351.214 178.228 351.144 178.195C351 178.375 350.732 178.803 350.475 179.729C350.157 180.874 349.847 182.055 349.557 183.207C349.055 185.199 348.767 187.228 348.712 189.265C348.562 194.747 348.715 201.134 349.522 205.326ZM350.989 178.145C350.99 178.147 351.003 178.15 351.027 178.15C351.001 178.143 350.989 178.143 350.989 178.145Z" fill="#FFA63C" stroke="#FFA63C" stroke-width="6" stroke-linecap="round"/>
<path d="M228.123 166.475C228.279 167.282 228.449 167.954 228.625 168.49C234.878 161.34 234.26 152.688 233.431 146.399C232.97 142.908 231.269 140.349 230.033 139.512C229.91 139.428 229.815 139.376 229.745 139.343C229.601 139.523 229.333 139.951 229.076 140.877C228.758 142.023 228.448 143.203 228.157 144.355C227.656 146.347 227.368 148.376 227.313 150.413C227.163 155.895 227.316 162.282 228.123 166.475ZM229.59 139.293C229.591 139.295 229.604 139.298 229.628 139.298C229.602 139.291 229.59 139.291 229.59 139.293Z" fill="#FFA63C" stroke="#FFA63C" stroke-width="6" stroke-linecap="round"/>
<path d="M166.518 268.229C166.673 269.036 166.843 269.708 167.019 270.244C173.272 263.094 172.655 254.442 171.825 248.153C171.365 244.663 169.663 242.104 168.427 241.266C168.304 241.183 168.209 241.13 168.14 241.098C167.995 241.277 167.728 241.705 167.47 242.632C167.152 243.777 166.842 244.957 166.552 246.109C166.05 248.101 165.763 250.131 165.707 252.168C165.558 257.649 165.711 264.036 166.518 268.229ZM167.985 241.048C167.985 241.049 167.998 241.053 168.022 241.053C167.996 241.046 167.984 241.046 167.985 241.048Z" fill="#FFA63C" stroke="#FFA63C" stroke-width="6" stroke-linecap="round"/>
<path d="M166.518 268.229C166.673 269.036 166.843 269.708 167.019 270.244C173.272 263.094 172.655 254.442 171.825 248.153C171.365 244.663 169.663 242.104 168.427 241.266C168.304 241.183 168.209 241.13 168.14 241.098C167.995 241.277 167.728 241.705 167.47 242.632C167.152 243.777 166.842 244.957 166.552 246.109C166.05 248.101 165.763 250.131 165.707 252.168C165.558 257.649 165.711 264.036 166.518 268.229ZM167.985 241.048C167.985 241.049 167.998 241.053 168.022 241.053C167.996 241.046 167.984 241.046 167.985 241.048Z" fill="#FFA63C" stroke="#FFA63C" stroke-width="6" stroke-linecap="round"/>
<path d="M164.12 338.673C167.913 338.426 172.222 337.917 175.042 337.12C170.256 334.318 165.111 335.169 161.096 336.096C160.028 336.342 159.075 336.778 158.332 337.282C157.942 337.546 157.645 337.804 157.428 338.031C157.441 338.034 157.454 338.036 157.467 338.039C158.28 338.19 159.116 338.334 159.933 338.466C161.326 338.691 162.729 338.763 164.12 338.673ZM156.649 337.781C156.649 337.782 156.652 337.784 156.658 337.787C156.652 337.783 156.65 337.781 156.649 337.781ZM176.885 338.424C176.885 338.424 176.883 338.421 176.878 338.415C176.883 338.421 176.885 338.424 176.885 338.424Z" fill="#FFA63C" stroke="#FFA63C" stroke-width="6" stroke-linecap="round"/>
<path d="M357.662 338.077C353.861 338.071 349.529 337.836 346.666 337.219C351.272 334.119 356.459 334.642 360.524 335.312C361.604 335.49 362.582 335.866 363.354 336.321C363.76 336.56 364.072 336.799 364.303 337.012C364.29 337.016 364.277 337.019 364.263 337.023L365.001 339.931L364.263 337.023C363.462 337.225 362.636 337.422 361.828 337.605C360.452 337.918 359.056 338.079 357.662 338.077ZM365.063 336.714C365.064 336.714 365.061 336.716 365.056 336.721C365.06 336.716 365.063 336.714 365.063 336.714ZM344.907 338.637C344.907 338.637 344.909 338.634 344.914 338.628C344.91 338.634 344.907 338.637 344.907 338.637Z" fill="#FFA63C" stroke="#FFA63C" stroke-width="6" stroke-linecap="round"/>
<path d="M262.312 551.571H329.353" stroke="#FFA63C" stroke-width="6" stroke-linecap="square"/>
<line x1="260.5" y1="605.923" x2="331.165" y2="605.923" stroke="#FFA63C" stroke-width="6"/>
<line x1="299.174" y1="602.223" x2="299.174" y2="573.072" stroke="#FFA63C" stroke-width="6" stroke-linecap="round"/>
<path d="M331.165 553.421V566.372" stroke="#FFA63C" stroke-width="6" stroke-linecap="round"/>
<path d="M331.165 592.273V605.223" stroke="#FFA63C" stroke-width="6" stroke-linecap="round"/>
<path d="M136.56 728C136.827 726.507 136.96 724.293 136.96 721.36V678.64C136.96 675.707 136.827 673.493 136.56 672H184.96L186.16 676.16C184.773 675.84 182.56 675.68 179.52 675.68H140.96V698.08H173.76C176.693 698.08 178.907 697.947 180.4 697.68V702.08C179.067 701.76 176.853 701.6 173.76 701.6H140.96V724.24H180.88C183.92 724.24 186.133 724.08 187.52 723.76L186.4 728H136.56ZM257.148 728.8C249.468 728.8 243.041 727.36 237.868 724.48C232.695 721.547 230.108 717.627 230.108 712.72C230.108 708.987 231.601 705.893 234.588 703.44C237.628 700.987 241.895 699.467 247.388 698.88V698.16C242.748 697.52 239.068 696.027 236.348 693.68C233.628 691.333 232.268 688.533 232.268 685.28C232.268 680.64 234.508 677.04 238.988 674.48C243.521 671.92 249.441 670.64 256.748 670.64C259.255 670.64 262.108 670.853 265.308 671.28C268.561 671.707 271.121 672.267 272.988 672.96V676.8C268.721 675.04 263.308 674.16 256.748 674.16C250.668 674.16 245.681 675.173 241.788 677.2C237.948 679.227 236.028 682.053 236.028 685.68C236.028 689.2 237.761 692.053 241.228 694.24C244.748 696.373 249.388 697.44 255.148 697.44H273.228V688.4H277.148V697.52H286.108V699.84H277.148V725.68C274.801 726.587 271.708 727.333 267.868 727.92C264.081 728.507 260.508 728.8 257.148 728.8ZM257.148 725.12C263.015 725.12 268.375 724.427 273.228 723.04V699.84H253.788C247.815 699.84 242.961 701.013 239.228 703.36C235.548 705.653 233.708 708.693 233.708 712.48C233.708 716.267 235.975 719.333 240.508 721.68C245.095 723.973 250.641 725.12 257.148 725.12ZM329.676 728C329.942 726.507 330.076 724.293 330.076 721.36V678.64C330.076 675.707 329.942 673.493 329.676 672H334.556C334.236 673.333 334.076 675.547 334.076 678.64V698.08H381.356V678.64C381.356 675.547 381.196 673.333 380.876 672H385.756C385.436 673.333 385.276 675.547 385.276 678.64V721.36C385.276 724.4 385.436 726.613 385.756 728H380.876C381.196 726.613 381.356 724.4 381.356 721.36V701.92H334.076V721.36C334.076 724.4 334.236 726.613 334.556 728H329.676Z" fill="#FFBD59"/>
<defs>
<filter id="filter0_dddf_1_58" x="0" y="0" width="525" height="828" filterUnits="userSpaceOnUse" color-interpolation-filters="sRGB">
<feFlood flood-opacity="0" result="BackgroundImageFix"/>
<feColorMatrix in="SourceAlpha" type="matrix" values="0 0 0 0 0 0 0 0 0 0 0 0 0 0 0 0 0 0 127 0" result="hardAlpha"/>
<feOffset dy="7"/>
<feGaussianBlur stdDeviation="4"/>
<feComposite in2="hardAlpha" operator="out"/>
<feColorMatrix type="matrix" values="0 0 0 0 0 0 0 0 0 0 0 0 0 0 0 0 0 0 0.15 0"/>
<feBlend mode="normal" in2="BackgroundImageFix" result="effect1_dropShadow_1_58"/>
<feColorMatrix in="SourceAlpha" type="matrix" values="0 0 0 0 0 0 0 0 0 0 0 0 0 0 0 0 0 0 127 0" result="hardAlpha"/>
<feOffset dy="12"/>
<feGaussianBlur stdDeviation="4"/>
<feComposite in2="hardAlpha" operator="out"/>
<feColorMatrix type="matrix" values="0 0 0 0 0 0 0 0 0 0 0 0 0 0 0 0 0 0 0.15 0"/>
<feBlend mode="normal" in2="effect1_dropShadow_1_58" result="effect2_dropShadow_1_58"/>
<feColorMatrix in="SourceAlpha" type="matrix" values="0 0 0 0 0 0 0 0 0 0 0 0 0 0 0 0 0 0 127 0" result="hardAlpha"/>
<feOffset dy="4"/>
<feGaussianBlur stdDeviation="2"/>
<feComposite in2="hardAlpha" operator="out"/>
<feColorMatrix type="matrix" values="0 0 0 0 0 0 0 0 0 0 0 0 0 0 0 0 0 0 0.25 0"/>
<feBlend mode="normal" in2="effect2_dropShadow_1_58" result="effect3_dropShadow_1_58"/>
<feBlend mode="normal" in="SourceGraphic" in2="effect3_dropShadow_1_58" result="shape"/>
<feGaussianBlur stdDeviation="2" result="effect4_foregroundBlur_1_58"/>
</filter>
<filter id="filter1_dddf_1_58" x="0" y="6" width="525" height="828" filterUnits="userSpaceOnUse" color-interpolation-filters="sRGB">
<feFlood flood-opacity="0" result="BackgroundImageFix"/>
<feColorMatrix in="SourceAlpha" type="matrix" values="0 0 0 0 0 0 0 0 0 0 0 0 0 0 0 0 0 0 127 0" result="hardAlpha"/>
<feOffset dy="7"/>
<feGaussianBlur stdDeviation="4"/>
<feComposite in2="hardAlpha" operator="out"/>
<feColorMatrix type="matrix" values="0 0 0 0 0 0 0 0 0 0 0 0 0 0 0 0 0 0 0.15 0"/>
<feBlend mode="normal" in2="BackgroundImageFix" result="effect1_dropShadow_1_58"/>
<feColorMatrix in="SourceAlpha" type="matrix" values="0 0 0 0 0 0 0 0 0 0 0 0 0 0 0 0 0 0 127 0" result="hardAlpha"/>
<feOffset dy="12"/>
<feGaussianBlur stdDeviation="4"/>
<feComposite in2="hardAlpha" operator="out"/>
<feColorMatrix type="matrix" values="0 0 0 0 0 0 0 0 0 0 0 0 0 0 0 0 0 0 0.15 0"/>
<feBlend mode="normal" in2="effect1_dropShadow_1_58" result="effect2_dropShadow_1_58"/>
<feColorMatrix in="SourceAlpha" type="matrix" values="0 0 0 0 0 0 0 0 0 0 0 0 0 0 0 0 0 0 127 0" result="hardAlpha"/>
<feOffset dy="4"/>
<feGaussianBlur stdDeviation="2"/>
<feComposite in2="hardAlpha" operator="out"/>
<feColorMatrix type="matrix" values="0 0 0 0 0 0 0 0 0 0 0 0 0 0 0 0 0 0 0.25 0"/>
<feBlend mode="normal" in2="effect2_dropShadow_1_58" result="effect3_dropShadow_1_58"/>
<feBlend mode="normal" in="SourceGraphic" in2="effect3_dropShadow_1_58" result="shape"/>
<feGaussianBlur stdDeviation="2" result="effect4_foregroundBlur_1_58"/>
</filter>
</defs>
</svg>
